G04 #@! TF.GenerationSoftware,KiCad,Pcbnew,7.0.2*
G04 #@! TF.CreationDate,2023-11-30T17:18:32+01:00*
G04 #@! TF.ProjectId,mhk,6d686b2e-6b69-4636-9164-5f7063625858,rev?*
G04 #@! TF.SameCoordinates,Original*
G04 #@! TF.FileFunction,Legend,Bot*
G04 #@! TF.FilePolarity,Positive*
%FSLAX46Y46*%
G04 Gerber Fmt 4.6, Leading zero omitted, Abs format (unit mm)*
G04 Created by KiCad (PCBNEW 7.0.2) date 2023-11-30 17:18:32*
%MOMM*%
%LPD*%
G01*
G04 APERTURE LIST*
G04 Aperture macros list*
%AMRoundRect*
0 Rectangle with rounded corners*
0 $1 Rounding radius*
0 $2 $3 $4 $5 $6 $7 $8 $9 X,Y pos of 4 corners*
0 Add a 4 corners polygon primitive as box body*
4,1,4,$2,$3,$4,$5,$6,$7,$8,$9,$2,$3,0*
0 Add four circle primitives for the rounded corners*
1,1,$1+$1,$2,$3*
1,1,$1+$1,$4,$5*
1,1,$1+$1,$6,$7*
1,1,$1+$1,$8,$9*
0 Add four rect primitives between the rounded corners*
20,1,$1+$1,$2,$3,$4,$5,0*
20,1,$1+$1,$4,$5,$6,$7,0*
20,1,$1+$1,$6,$7,$8,$9,0*
20,1,$1+$1,$8,$9,$2,$3,0*%
G04 Aperture macros list end*
%ADD10RoundRect,0.250000X-0.600000X-0.725000X0.600000X-0.725000X0.600000X0.725000X-0.600000X0.725000X0*%
%ADD11O,1.700000X1.950000*%
%ADD12C,3.200000*%
%ADD13RoundRect,0.249999X-1.550001X0.790001X-1.550001X-0.790001X1.550001X-0.790001X1.550001X0.790001X0*%
%ADD14O,3.600000X2.080000*%
%ADD15RoundRect,0.250000X-0.725000X0.600000X-0.725000X-0.600000X0.725000X-0.600000X0.725000X0.600000X0*%
%ADD16O,1.950000X1.700000*%
%ADD17R,1.700000X1.700000*%
%ADD18O,1.700000X1.700000*%
%ADD19RoundRect,0.249999X-0.790001X-1.550001X0.790001X-1.550001X0.790001X1.550001X-0.790001X1.550001X0*%
%ADD20O,2.080000X3.600000*%
G04 APERTURE END LIST*
G36*
X244232790Y-110471137D02*
G01*
X244451820Y-110486051D01*
X244656409Y-110516488D01*
X244851242Y-110563464D01*
X245041007Y-110627993D01*
X245230390Y-110711093D01*
X245277224Y-110734463D01*
X245490838Y-110857780D01*
X245687261Y-110999879D01*
X245865807Y-111160018D01*
X246025793Y-111337454D01*
X246166533Y-111531446D01*
X246287344Y-111741250D01*
X246387540Y-111966125D01*
X246399588Y-111999142D01*
X246419002Y-112057611D01*
X246439637Y-112124479D01*
X246459960Y-112194280D01*
X246478436Y-112261548D01*
X246493532Y-112320817D01*
X246503714Y-112366621D01*
X246507449Y-112393493D01*
X246507360Y-112393942D01*
X246503764Y-112396169D01*
X246494157Y-112398208D01*
X246477503Y-112400068D01*
X246452768Y-112401755D01*
X246418918Y-112403279D01*
X246374918Y-112404647D01*
X246319733Y-112405867D01*
X246252329Y-112406947D01*
X246171671Y-112407895D01*
X246076724Y-112408719D01*
X245966454Y-112409426D01*
X245839826Y-112410026D01*
X245695806Y-112410525D01*
X245533359Y-112410931D01*
X245351449Y-112411254D01*
X245149044Y-112411500D01*
X244925107Y-112411677D01*
X244678605Y-112411794D01*
X244408502Y-112411859D01*
X244113765Y-112411878D01*
X243900137Y-112411852D01*
X243660255Y-112411759D01*
X243428427Y-112411603D01*
X243205911Y-112411386D01*
X242993966Y-112411112D01*
X242793849Y-112410784D01*
X242606820Y-112410407D01*
X242434136Y-112409983D01*
X242277055Y-112409516D01*
X242136836Y-112409009D01*
X242014737Y-112408465D01*
X241912016Y-112407889D01*
X241829932Y-112407283D01*
X241769743Y-112406652D01*
X241732706Y-112405998D01*
X241720081Y-112405325D01*
X241723127Y-112383054D01*
X241731993Y-112341096D01*
X241745182Y-112285962D01*
X241761186Y-112223529D01*
X241778494Y-112159674D01*
X241795599Y-112100274D01*
X241810991Y-112051205D01*
X241815469Y-112037953D01*
X241904858Y-111815006D01*
X242016302Y-111605116D01*
X242149497Y-111408733D01*
X242304139Y-111226308D01*
X242479926Y-111058291D01*
X242550213Y-110999571D01*
X242746132Y-110855503D01*
X242948770Y-110735077D01*
X243159586Y-110637767D01*
X243380035Y-110563048D01*
X243611577Y-110510394D01*
X243855668Y-110479280D01*
X244113765Y-110469181D01*
X244232790Y-110471137D01*
G37*
G36*
X246910660Y-107833486D02*
G01*
X247109682Y-108285774D01*
X247285084Y-108747573D01*
X247436993Y-109219243D01*
X247565537Y-109701146D01*
X247670841Y-110193644D01*
X247753033Y-110697097D01*
X247812239Y-111211867D01*
X247817175Y-111273812D01*
X247823761Y-111389179D01*
X247828939Y-111522962D01*
X247832711Y-111670756D01*
X247835076Y-111828158D01*
X247836035Y-111990762D01*
X247835586Y-112154164D01*
X247833730Y-112313958D01*
X247830468Y-112465741D01*
X247825798Y-112605107D01*
X247819722Y-112727651D01*
X247819171Y-112735111D01*
X247812239Y-112828969D01*
X247812119Y-112830281D01*
X247752867Y-113344943D01*
X247670639Y-113848275D01*
X247565303Y-114340648D01*
X247436730Y-114822435D01*
X247284787Y-115294009D01*
X247109345Y-115755742D01*
X246910272Y-116208008D01*
X246687439Y-116651178D01*
X246440714Y-117085625D01*
X246169968Y-117511723D01*
X246119148Y-117586792D01*
X245831037Y-117985801D01*
X245522948Y-118369918D01*
X245195954Y-118738238D01*
X244851126Y-119089856D01*
X244489539Y-119423867D01*
X244112264Y-119739365D01*
X243720374Y-120035445D01*
X243314942Y-120311202D01*
X242897040Y-120565730D01*
X242467740Y-120798125D01*
X242028116Y-121007481D01*
X241982659Y-121027568D01*
X241557198Y-121203988D01*
X241133142Y-121358421D01*
X240707549Y-121491570D01*
X240277481Y-121604140D01*
X239839995Y-121696834D01*
X239392152Y-121770356D01*
X238931012Y-121825408D01*
X238453634Y-121862695D01*
X238433026Y-121863746D01*
X238363651Y-121865991D01*
X238275195Y-121867549D01*
X238172410Y-121868444D01*
X238060045Y-121868698D01*
X237942852Y-121868333D01*
X237825581Y-121867371D01*
X237712984Y-121865834D01*
X237609810Y-121863746D01*
X237520811Y-121861127D01*
X237450737Y-121858000D01*
X237200533Y-121840599D01*
X236712564Y-121788747D01*
X236230662Y-121713806D01*
X235758333Y-121616277D01*
X235423205Y-121532014D01*
X234946956Y-121390448D01*
X234481494Y-121226235D01*
X234027431Y-121040023D01*
X233585380Y-120832461D01*
X233155953Y-120604197D01*
X232739762Y-120355882D01*
X232337420Y-120088163D01*
X231949539Y-119801689D01*
X231576731Y-119497111D01*
X231219610Y-119175076D01*
X230878787Y-118836233D01*
X230554875Y-118481232D01*
X230248486Y-118110722D01*
X229960234Y-117725351D01*
X229690729Y-117325768D01*
X229440585Y-116912622D01*
X229210414Y-116486562D01*
X229000828Y-116048238D01*
X228812441Y-115598297D01*
X228645863Y-115137390D01*
X228501708Y-114666164D01*
X228380589Y-114185270D01*
X228283117Y-113695355D01*
X228253699Y-113519000D01*
X228225800Y-113334348D01*
X228202916Y-113158857D01*
X228184645Y-112987565D01*
X228170590Y-112815510D01*
X228160353Y-112637729D01*
X228153534Y-112449262D01*
X228149735Y-112245145D01*
X228148557Y-112020418D01*
X228148652Y-111932767D01*
X228149538Y-111769546D01*
X228151562Y-111625298D01*
X228154976Y-111495525D01*
X228160033Y-111375732D01*
X228166984Y-111261421D01*
X228176083Y-111148096D01*
X228187582Y-111031260D01*
X228201733Y-110906416D01*
X228218789Y-110769067D01*
X228255867Y-110508215D01*
X228344336Y-110022694D01*
X228457318Y-109540989D01*
X228594204Y-109064954D01*
X228754389Y-108596444D01*
X228869058Y-108308555D01*
X229770791Y-108308555D01*
X229772165Y-108383855D01*
X229794153Y-108453412D01*
X229834959Y-108513194D01*
X229892786Y-108559166D01*
X229965838Y-108587294D01*
X229981323Y-108590383D01*
X230005809Y-108593425D01*
X230034709Y-108594269D01*
X230071518Y-108592643D01*
X230119730Y-108588274D01*
X230182839Y-108580891D01*
X230264342Y-108570221D01*
X230367732Y-108555992D01*
X230470725Y-108541889D01*
X230758736Y-108505465D01*
X231023462Y-108476804D01*
X231265778Y-108455876D01*
X231486558Y-108442652D01*
X231686676Y-108437103D01*
X231867007Y-108439199D01*
X232028424Y-108448911D01*
X232171802Y-108466209D01*
X232298016Y-108491065D01*
X232353179Y-108505535D01*
X232524954Y-108565840D01*
X232681228Y-108645006D01*
X232820855Y-108742148D01*
X232942693Y-108856383D01*
X233045597Y-108986827D01*
X233128423Y-109132596D01*
X233134427Y-109145376D01*
X233156762Y-109195269D01*
X233175042Y-109242085D01*
X233189668Y-109289018D01*
X233201043Y-109339260D01*
X233209567Y-109396006D01*
X233215641Y-109462449D01*
X233219667Y-109541783D01*
X233222045Y-109637202D01*
X233223178Y-109751900D01*
X233223467Y-109889069D01*
X233223467Y-110332172D01*
X231916518Y-110335618D01*
X230609568Y-110339064D01*
X230547569Y-110377568D01*
X230515497Y-110400883D01*
X230466197Y-110457149D01*
X230436878Y-110522281D01*
X230427229Y-110591839D01*
X230436938Y-110661383D01*
X230465691Y-110726473D01*
X230513176Y-110782668D01*
X230579081Y-110825530D01*
X230581451Y-110826622D01*
X230591284Y-110830886D01*
X230602087Y-110834658D01*
X230615406Y-110837975D01*
X230632783Y-110840869D01*
X230655763Y-110843378D01*
X230685888Y-110845534D01*
X230724702Y-110847372D01*
X230773749Y-110848929D01*
X230834574Y-110850237D01*
X230908718Y-110851333D01*
X230997727Y-110852250D01*
X231103143Y-110853025D01*
X231226510Y-110853690D01*
X231369372Y-110854281D01*
X231533273Y-110854834D01*
X231719756Y-110855381D01*
X231930364Y-110855960D01*
X233223467Y-110859465D01*
X233223467Y-113028244D01*
X233223467Y-115197022D01*
X232033042Y-115197336D01*
X231861984Y-115197464D01*
X231651855Y-115197883D01*
X231463080Y-115198583D01*
X231296197Y-115199557D01*
X231151748Y-115200799D01*
X231030270Y-115202303D01*
X230932303Y-115204064D01*
X230858386Y-115206076D01*
X230809059Y-115208333D01*
X230784862Y-115210829D01*
X230749128Y-115221271D01*
X230678703Y-115258699D01*
X230625276Y-115312687D01*
X230591369Y-115380194D01*
X230579505Y-115458182D01*
X230586458Y-115521713D01*
X230615383Y-115591723D01*
X230666610Y-115649146D01*
X230739940Y-115693688D01*
X230743217Y-115694998D01*
X230748856Y-115696651D01*
X230756585Y-115698220D01*
X230767060Y-115699705D01*
X230780935Y-115701110D01*
X230798865Y-115702438D01*
X230821506Y-115703689D01*
X230849513Y-115704867D01*
X230883540Y-115705974D01*
X230924242Y-115707012D01*
X230972274Y-115707984D01*
X231028292Y-115708891D01*
X231092949Y-115709738D01*
X231166903Y-115710525D01*
X231250806Y-115711255D01*
X231345314Y-115711930D01*
X231451083Y-115712554D01*
X231568766Y-115713127D01*
X231699020Y-115713653D01*
X231842499Y-115714134D01*
X231999858Y-115714572D01*
X232171752Y-115714970D01*
X232358835Y-115715329D01*
X232561764Y-115715653D01*
X232781193Y-115715944D01*
X233017776Y-115716203D01*
X233272170Y-115716434D01*
X233545028Y-115716638D01*
X233837006Y-115716819D01*
X234148759Y-115716978D01*
X234480941Y-115717118D01*
X234834209Y-115717241D01*
X235209216Y-115717349D01*
X235606617Y-115717445D01*
X236027068Y-115717532D01*
X236471224Y-115717611D01*
X236939740Y-115717685D01*
X237433270Y-115717756D01*
X237600145Y-115717778D01*
X238009938Y-115717821D01*
X238413189Y-115717847D01*
X238809134Y-115717858D01*
X239197007Y-115717853D01*
X239576042Y-115717832D01*
X239945476Y-115717797D01*
X240304543Y-115717747D01*
X240652477Y-115717684D01*
X240988514Y-115717606D01*
X241311888Y-115717515D01*
X241621835Y-115717411D01*
X241917589Y-115717294D01*
X242198384Y-115717165D01*
X242463457Y-115717024D01*
X242712042Y-115716872D01*
X242943374Y-115716708D01*
X243156687Y-115716534D01*
X243351216Y-115716349D01*
X243526198Y-115716154D01*
X243680865Y-115715949D01*
X243814453Y-115715735D01*
X243926198Y-115715512D01*
X244015334Y-115715280D01*
X244081095Y-115715040D01*
X244122717Y-115714792D01*
X244139435Y-115714537D01*
X244158383Y-115713265D01*
X244450614Y-115681045D01*
X244731445Y-115625924D01*
X245000713Y-115547977D01*
X245258251Y-115447276D01*
X245503893Y-115323894D01*
X245737474Y-115177904D01*
X245958828Y-115009381D01*
X246167789Y-114818397D01*
X246205893Y-114779831D01*
X246392002Y-114572612D01*
X246553952Y-114357712D01*
X246692374Y-114133880D01*
X246807900Y-113899864D01*
X246901161Y-113654414D01*
X246972790Y-113396279D01*
X247023418Y-113124208D01*
X247024984Y-113112612D01*
X247031754Y-113040083D01*
X247036492Y-112949337D01*
X247039245Y-112845853D01*
X247040055Y-112735111D01*
X247038966Y-112622589D01*
X247036023Y-112513765D01*
X247031269Y-112414120D01*
X247024750Y-112329131D01*
X247016507Y-112264278D01*
X246986495Y-112112701D01*
X246918187Y-111863708D01*
X246828016Y-111627046D01*
X246715408Y-111401623D01*
X246579789Y-111186346D01*
X246420586Y-110980126D01*
X246237223Y-110781870D01*
X246120679Y-110671748D01*
X245910179Y-110499727D01*
X245687776Y-110350419D01*
X245453624Y-110223883D01*
X245207873Y-110120180D01*
X244950675Y-110039370D01*
X244682182Y-109981514D01*
X244402545Y-109946673D01*
X244111916Y-109934906D01*
X243849542Y-109943937D01*
X243570639Y-109975312D01*
X243303601Y-110029075D01*
X243048738Y-110105149D01*
X242806356Y-110203454D01*
X242576766Y-110323913D01*
X242541746Y-110344979D01*
X242350812Y-110474610D01*
X242166175Y-110624315D01*
X241991707Y-110790169D01*
X241831282Y-110968249D01*
X241688776Y-111154634D01*
X241568060Y-111345398D01*
X241510396Y-111452211D01*
X241420035Y-111646292D01*
X241345404Y-111846924D01*
X241285629Y-112057402D01*
X241239835Y-112281019D01*
X241207145Y-112521069D01*
X241186686Y-112780847D01*
X241178188Y-112938043D01*
X243846027Y-112941282D01*
X246513866Y-112944521D01*
X246509849Y-112983025D01*
X246509794Y-112983551D01*
X246500353Y-113047846D01*
X246484359Y-113129552D01*
X246463448Y-113221826D01*
X246439261Y-113317826D01*
X246413434Y-113410707D01*
X246387607Y-113493628D01*
X246369136Y-113546978D01*
X246272519Y-113779899D01*
X246155121Y-113998724D01*
X246017982Y-114202412D01*
X245862140Y-114389919D01*
X245688636Y-114560203D01*
X245498507Y-114712221D01*
X245292793Y-114844929D01*
X245072533Y-114957284D01*
X244838766Y-115048245D01*
X244784986Y-115065607D01*
X244635086Y-115108038D01*
X244478688Y-115143123D01*
X244306287Y-115173091D01*
X244291761Y-115174775D01*
X244260526Y-115176953D01*
X244215529Y-115178965D01*
X244155856Y-115180819D01*
X244080589Y-115182524D01*
X243988812Y-115184089D01*
X243879611Y-115185524D01*
X243752068Y-115186837D01*
X243605268Y-115188038D01*
X243438295Y-115189136D01*
X243250232Y-115190141D01*
X243040164Y-115191060D01*
X242807175Y-115191904D01*
X242550348Y-115192681D01*
X242268768Y-115193400D01*
X240333927Y-115197963D01*
X240333927Y-111815532D01*
X240333927Y-108433101D01*
X241133770Y-108433101D01*
X241226055Y-108433098D01*
X241386959Y-108433006D01*
X241525140Y-108432656D01*
X241642546Y-108431872D01*
X241741122Y-108430482D01*
X241822815Y-108428310D01*
X241889570Y-108425182D01*
X241943334Y-108420924D01*
X241986053Y-108415361D01*
X242019673Y-108408320D01*
X242046140Y-108399625D01*
X242067401Y-108389104D01*
X242085401Y-108376580D01*
X242102087Y-108361881D01*
X242119405Y-108344832D01*
X242128856Y-108334902D01*
X242171836Y-108270096D01*
X242191829Y-108198781D01*
X242188891Y-108125053D01*
X242163079Y-108053008D01*
X242114450Y-107986741D01*
X242103912Y-107975834D01*
X242091195Y-107963468D01*
X242077692Y-107952677D01*
X242061742Y-107943351D01*
X242041689Y-107935386D01*
X242015872Y-107928673D01*
X241982632Y-107923106D01*
X241940312Y-107918576D01*
X241887252Y-107914979D01*
X241821793Y-107912205D01*
X241742277Y-107910149D01*
X241647044Y-107908703D01*
X241534436Y-107907759D01*
X241402794Y-107907212D01*
X241250459Y-107906954D01*
X241075772Y-107906877D01*
X240877075Y-107906876D01*
X239807701Y-107906876D01*
X239807701Y-111551949D01*
X239807701Y-115197022D01*
X238267530Y-115197022D01*
X236727358Y-115197022D01*
X236727358Y-113028391D01*
X236727358Y-110859761D01*
X237558409Y-110856108D01*
X237713159Y-110855438D01*
X237863731Y-110854718D01*
X237992320Y-110853865D01*
X238100870Y-110852710D01*
X238191329Y-110851082D01*
X238265643Y-110848814D01*
X238325757Y-110845734D01*
X238373618Y-110841673D01*
X238411171Y-110836463D01*
X238440363Y-110829933D01*
X238463139Y-110821914D01*
X238481447Y-110812236D01*
X238497231Y-110800730D01*
X238512438Y-110787227D01*
X238529014Y-110771556D01*
X238549117Y-110750215D01*
X238585893Y-110688373D01*
X238601987Y-110620314D01*
X238598624Y-110550611D01*
X238577031Y-110483837D01*
X238538434Y-110424564D01*
X238484058Y-110377365D01*
X238415129Y-110346813D01*
X238406826Y-110345328D01*
X238374103Y-110342634D01*
X238319406Y-110340276D01*
X238242273Y-110338250D01*
X238142242Y-110336548D01*
X238018851Y-110335167D01*
X237871640Y-110334098D01*
X237700145Y-110333338D01*
X237503906Y-110332880D01*
X237282461Y-110332718D01*
X236201132Y-110332646D01*
X236201132Y-112764834D01*
X236201132Y-115197022D01*
X234975412Y-115197022D01*
X233749692Y-115197022D01*
X233749692Y-113028508D01*
X233749692Y-110859993D01*
X234388222Y-110856224D01*
X234396546Y-110856174D01*
X234540989Y-110855253D01*
X234662145Y-110854292D01*
X234762278Y-110853204D01*
X234843650Y-110851900D01*
X234908526Y-110850292D01*
X234959168Y-110848292D01*
X234997840Y-110845810D01*
X235026805Y-110842760D01*
X235048327Y-110839053D01*
X235064667Y-110834599D01*
X235078090Y-110829313D01*
X235091008Y-110823155D01*
X235158973Y-110776269D01*
X235206524Y-110715525D01*
X235232162Y-110643482D01*
X235234385Y-110562699D01*
X235234356Y-110562453D01*
X235214442Y-110485208D01*
X235174192Y-110423160D01*
X235112269Y-110374246D01*
X235052421Y-110339064D01*
X234404265Y-110332646D01*
X233756110Y-110326229D01*
X233748717Y-109800003D01*
X233746860Y-109669939D01*
X233745166Y-109562642D01*
X233743450Y-109475310D01*
X233741528Y-109405091D01*
X233739215Y-109349135D01*
X233736326Y-109304589D01*
X233732675Y-109268603D01*
X233728078Y-109238324D01*
X233722350Y-109210901D01*
X233715306Y-109183483D01*
X233706760Y-109153218D01*
X233651256Y-108997831D01*
X236213967Y-108997831D01*
X236599010Y-108997831D01*
X236984053Y-108997831D01*
X236984053Y-108317588D01*
X236984053Y-107637346D01*
X236599010Y-107637346D01*
X236213967Y-107637346D01*
X236213967Y-108317588D01*
X236213967Y-108997831D01*
X233651256Y-108997831D01*
X233641188Y-108969646D01*
X233552650Y-108794892D01*
X233443106Y-108631763D01*
X233314128Y-108481707D01*
X233167287Y-108346175D01*
X233004154Y-108226615D01*
X232826300Y-108124476D01*
X232635297Y-108041207D01*
X232432716Y-107978257D01*
X232380100Y-107965925D01*
X232208280Y-107936066D01*
X232013940Y-107916353D01*
X231797867Y-107906774D01*
X231560850Y-107907316D01*
X231303674Y-107917967D01*
X231027127Y-107938714D01*
X230731997Y-107969544D01*
X230419071Y-108010446D01*
X230389137Y-108014750D01*
X230255156Y-108034972D01*
X230143874Y-108053850D01*
X230052901Y-108072171D01*
X229979848Y-108090723D01*
X229922327Y-108110291D01*
X229877950Y-108131664D01*
X229844328Y-108155627D01*
X229819072Y-108182968D01*
X229799793Y-108214474D01*
X229791827Y-108231547D01*
X229770791Y-108308555D01*
X228869058Y-108308555D01*
X228937265Y-108137315D01*
X229142225Y-107689420D01*
X229368663Y-107254615D01*
X229611835Y-106839784D01*
X229884960Y-106422523D01*
X230177301Y-106021433D01*
X230488114Y-105637039D01*
X230816653Y-105269870D01*
X231162172Y-104920454D01*
X231523927Y-104589318D01*
X231901171Y-104276990D01*
X232293160Y-103983997D01*
X232699148Y-103710868D01*
X233118390Y-103458130D01*
X233550140Y-103226311D01*
X233993652Y-103015938D01*
X234448182Y-102827539D01*
X234912984Y-102661642D01*
X235387312Y-102518775D01*
X235870422Y-102399464D01*
X236361567Y-102304239D01*
X236453099Y-102289170D01*
X236647224Y-102259461D01*
X236830401Y-102235035D01*
X237007845Y-102215482D01*
X237184771Y-102200393D01*
X237366392Y-102189359D01*
X237557925Y-102181973D01*
X237764583Y-102177825D01*
X237991582Y-102176508D01*
X238066753Y-102176576D01*
X238237775Y-102177543D01*
X238389927Y-102179892D01*
X238528042Y-102183925D01*
X238656959Y-102189944D01*
X238781513Y-102198253D01*
X238906539Y-102209153D01*
X239036874Y-102222947D01*
X239177354Y-102239939D01*
X239332815Y-102260429D01*
X239756922Y-102327592D01*
X240241753Y-102428206D01*
X240719296Y-102552869D01*
X241188713Y-102701056D01*
X241649168Y-102872247D01*
X242099824Y-103065917D01*
X242539843Y-103281544D01*
X242968388Y-103518606D01*
X243384623Y-103776580D01*
X243787711Y-104054944D01*
X244176814Y-104353174D01*
X244551096Y-104670748D01*
X244909719Y-105007143D01*
X245251847Y-105361836D01*
X245576642Y-105734306D01*
X245883268Y-106124029D01*
X246170887Y-106530482D01*
X246441253Y-106955997D01*
X246687893Y-107390348D01*
X246812060Y-107637346D01*
X246910660Y-107833486D01*
G37*
G36*
X342234790Y-110457137D02*
G01*
X342453820Y-110472051D01*
X342658409Y-110502488D01*
X342853242Y-110549464D01*
X343043007Y-110613993D01*
X343232390Y-110697093D01*
X343279224Y-110720463D01*
X343492838Y-110843780D01*
X343689261Y-110985879D01*
X343867807Y-111146018D01*
X344027793Y-111323454D01*
X344168533Y-111517446D01*
X344289344Y-111727250D01*
X344389540Y-111952125D01*
X344401588Y-111985142D01*
X344421002Y-112043611D01*
X344441637Y-112110479D01*
X344461960Y-112180280D01*
X344480436Y-112247548D01*
X344495532Y-112306817D01*
X344505714Y-112352621D01*
X344509449Y-112379493D01*
X344509360Y-112379942D01*
X344505764Y-112382169D01*
X344496157Y-112384208D01*
X344479503Y-112386068D01*
X344454768Y-112387755D01*
X344420918Y-112389279D01*
X344376918Y-112390647D01*
X344321733Y-112391867D01*
X344254329Y-112392947D01*
X344173671Y-112393895D01*
X344078724Y-112394719D01*
X343968454Y-112395426D01*
X343841826Y-112396026D01*
X343697806Y-112396525D01*
X343535359Y-112396931D01*
X343353449Y-112397254D01*
X343151044Y-112397500D01*
X342927107Y-112397677D01*
X342680605Y-112397794D01*
X342410502Y-112397859D01*
X342115765Y-112397878D01*
X341902137Y-112397852D01*
X341662255Y-112397759D01*
X341430427Y-112397603D01*
X341207911Y-112397386D01*
X340995966Y-112397112D01*
X340795849Y-112396784D01*
X340608820Y-112396407D01*
X340436136Y-112395983D01*
X340279055Y-112395516D01*
X340138836Y-112395009D01*
X340016737Y-112394465D01*
X339914016Y-112393889D01*
X339831932Y-112393283D01*
X339771743Y-112392652D01*
X339734706Y-112391998D01*
X339722081Y-112391325D01*
X339725127Y-112369054D01*
X339733993Y-112327096D01*
X339747182Y-112271962D01*
X339763186Y-112209529D01*
X339780494Y-112145674D01*
X339797599Y-112086274D01*
X339812991Y-112037205D01*
X339817469Y-112023953D01*
X339906858Y-111801006D01*
X340018302Y-111591116D01*
X340151497Y-111394733D01*
X340306139Y-111212308D01*
X340481926Y-111044291D01*
X340552213Y-110985571D01*
X340748132Y-110841503D01*
X340950770Y-110721077D01*
X341161586Y-110623767D01*
X341382035Y-110549048D01*
X341613577Y-110496394D01*
X341857668Y-110465280D01*
X342115765Y-110455181D01*
X342234790Y-110457137D01*
G37*
G36*
X344912660Y-107819486D02*
G01*
X345111682Y-108271774D01*
X345287084Y-108733573D01*
X345438993Y-109205243D01*
X345567537Y-109687146D01*
X345672841Y-110179644D01*
X345755033Y-110683097D01*
X345814239Y-111197867D01*
X345819175Y-111259812D01*
X345825761Y-111375179D01*
X345830939Y-111508962D01*
X345834711Y-111656756D01*
X345837076Y-111814158D01*
X345838035Y-111976762D01*
X345837586Y-112140164D01*
X345835730Y-112299958D01*
X345832468Y-112451741D01*
X345827798Y-112591107D01*
X345821722Y-112713651D01*
X345821171Y-112721111D01*
X345814239Y-112814969D01*
X345814119Y-112816281D01*
X345754867Y-113330943D01*
X345672639Y-113834275D01*
X345567303Y-114326648D01*
X345438730Y-114808435D01*
X345286787Y-115280009D01*
X345111345Y-115741742D01*
X344912272Y-116194008D01*
X344689439Y-116637178D01*
X344442714Y-117071625D01*
X344171968Y-117497723D01*
X344121148Y-117572792D01*
X343833037Y-117971801D01*
X343524948Y-118355918D01*
X343197954Y-118724238D01*
X342853126Y-119075856D01*
X342491539Y-119409867D01*
X342114264Y-119725365D01*
X341722374Y-120021445D01*
X341316942Y-120297202D01*
X340899040Y-120551730D01*
X340469740Y-120784125D01*
X340030116Y-120993481D01*
X339984659Y-121013568D01*
X339559198Y-121189988D01*
X339135142Y-121344421D01*
X338709549Y-121477570D01*
X338279481Y-121590140D01*
X337841995Y-121682834D01*
X337394152Y-121756356D01*
X336933012Y-121811408D01*
X336455634Y-121848695D01*
X336435026Y-121849746D01*
X336365651Y-121851991D01*
X336277195Y-121853549D01*
X336174410Y-121854444D01*
X336062045Y-121854698D01*
X335944852Y-121854333D01*
X335827581Y-121853371D01*
X335714984Y-121851834D01*
X335611810Y-121849746D01*
X335522811Y-121847127D01*
X335452737Y-121844000D01*
X335202533Y-121826599D01*
X334714564Y-121774747D01*
X334232662Y-121699806D01*
X333760333Y-121602277D01*
X333425205Y-121518014D01*
X332948956Y-121376448D01*
X332483494Y-121212235D01*
X332029431Y-121026023D01*
X331587380Y-120818461D01*
X331157953Y-120590197D01*
X330741762Y-120341882D01*
X330339420Y-120074163D01*
X329951539Y-119787689D01*
X329578731Y-119483111D01*
X329221610Y-119161076D01*
X328880787Y-118822233D01*
X328556875Y-118467232D01*
X328250486Y-118096722D01*
X327962234Y-117711351D01*
X327692729Y-117311768D01*
X327442585Y-116898622D01*
X327212414Y-116472562D01*
X327002828Y-116034238D01*
X326814441Y-115584297D01*
X326647863Y-115123390D01*
X326503708Y-114652164D01*
X326382589Y-114171270D01*
X326285117Y-113681355D01*
X326255699Y-113505000D01*
X326227800Y-113320348D01*
X326204916Y-113144857D01*
X326186645Y-112973565D01*
X326172590Y-112801510D01*
X326162353Y-112623729D01*
X326155534Y-112435262D01*
X326151735Y-112231145D01*
X326150557Y-112006418D01*
X326150652Y-111918767D01*
X326151538Y-111755546D01*
X326153562Y-111611298D01*
X326156976Y-111481525D01*
X326162033Y-111361732D01*
X326168984Y-111247421D01*
X326178083Y-111134096D01*
X326189582Y-111017260D01*
X326203733Y-110892416D01*
X326220789Y-110755067D01*
X326257867Y-110494215D01*
X326346336Y-110008694D01*
X326459318Y-109526989D01*
X326596204Y-109050954D01*
X326756389Y-108582444D01*
X326871058Y-108294555D01*
X327772791Y-108294555D01*
X327774165Y-108369855D01*
X327796153Y-108439412D01*
X327836959Y-108499194D01*
X327894786Y-108545166D01*
X327967838Y-108573294D01*
X327983323Y-108576383D01*
X328007809Y-108579425D01*
X328036709Y-108580269D01*
X328073518Y-108578643D01*
X328121730Y-108574274D01*
X328184839Y-108566891D01*
X328266342Y-108556221D01*
X328369732Y-108541992D01*
X328472725Y-108527889D01*
X328760736Y-108491465D01*
X329025462Y-108462804D01*
X329267778Y-108441876D01*
X329488558Y-108428652D01*
X329688676Y-108423103D01*
X329869007Y-108425199D01*
X330030424Y-108434911D01*
X330173802Y-108452209D01*
X330300016Y-108477065D01*
X330355179Y-108491535D01*
X330526954Y-108551840D01*
X330683228Y-108631006D01*
X330822855Y-108728148D01*
X330944693Y-108842383D01*
X331047597Y-108972827D01*
X331130423Y-109118596D01*
X331136427Y-109131376D01*
X331158762Y-109181269D01*
X331177042Y-109228085D01*
X331191668Y-109275018D01*
X331203043Y-109325260D01*
X331211567Y-109382006D01*
X331217641Y-109448449D01*
X331221667Y-109527783D01*
X331224045Y-109623202D01*
X331225178Y-109737900D01*
X331225467Y-109875069D01*
X331225467Y-110318172D01*
X329918518Y-110321618D01*
X328611568Y-110325064D01*
X328549569Y-110363568D01*
X328517497Y-110386883D01*
X328468197Y-110443149D01*
X328438878Y-110508281D01*
X328429229Y-110577839D01*
X328438938Y-110647383D01*
X328467691Y-110712473D01*
X328515176Y-110768668D01*
X328581081Y-110811530D01*
X328583451Y-110812622D01*
X328593284Y-110816886D01*
X328604087Y-110820658D01*
X328617406Y-110823975D01*
X328634783Y-110826869D01*
X328657763Y-110829378D01*
X328687888Y-110831534D01*
X328726702Y-110833372D01*
X328775749Y-110834929D01*
X328836574Y-110836237D01*
X328910718Y-110837333D01*
X328999727Y-110838250D01*
X329105143Y-110839025D01*
X329228510Y-110839690D01*
X329371372Y-110840281D01*
X329535273Y-110840834D01*
X329721756Y-110841381D01*
X329932364Y-110841960D01*
X331225467Y-110845465D01*
X331225467Y-113014244D01*
X331225467Y-115183022D01*
X330035042Y-115183336D01*
X329863984Y-115183464D01*
X329653855Y-115183883D01*
X329465080Y-115184583D01*
X329298197Y-115185557D01*
X329153748Y-115186799D01*
X329032270Y-115188303D01*
X328934303Y-115190064D01*
X328860386Y-115192076D01*
X328811059Y-115194333D01*
X328786862Y-115196829D01*
X328751128Y-115207271D01*
X328680703Y-115244699D01*
X328627276Y-115298687D01*
X328593369Y-115366194D01*
X328581505Y-115444182D01*
X328588458Y-115507713D01*
X328617383Y-115577723D01*
X328668610Y-115635146D01*
X328741940Y-115679688D01*
X328745217Y-115680998D01*
X328750856Y-115682651D01*
X328758585Y-115684220D01*
X328769060Y-115685705D01*
X328782935Y-115687110D01*
X328800865Y-115688438D01*
X328823506Y-115689689D01*
X328851513Y-115690867D01*
X328885540Y-115691974D01*
X328926242Y-115693012D01*
X328974274Y-115693984D01*
X329030292Y-115694891D01*
X329094949Y-115695738D01*
X329168903Y-115696525D01*
X329252806Y-115697255D01*
X329347314Y-115697930D01*
X329453083Y-115698554D01*
X329570766Y-115699127D01*
X329701020Y-115699653D01*
X329844499Y-115700134D01*
X330001858Y-115700572D01*
X330173752Y-115700970D01*
X330360835Y-115701329D01*
X330563764Y-115701653D01*
X330783193Y-115701944D01*
X331019776Y-115702203D01*
X331274170Y-115702434D01*
X331547028Y-115702638D01*
X331839006Y-115702819D01*
X332150759Y-115702978D01*
X332482941Y-115703118D01*
X332836209Y-115703241D01*
X333211216Y-115703349D01*
X333608617Y-115703445D01*
X334029068Y-115703532D01*
X334473224Y-115703611D01*
X334941740Y-115703685D01*
X335435270Y-115703756D01*
X335602145Y-115703778D01*
X336011938Y-115703821D01*
X336415189Y-115703847D01*
X336811134Y-115703858D01*
X337199007Y-115703853D01*
X337578042Y-115703832D01*
X337947476Y-115703797D01*
X338306543Y-115703747D01*
X338654477Y-115703684D01*
X338990514Y-115703606D01*
X339313888Y-115703515D01*
X339623835Y-115703411D01*
X339919589Y-115703294D01*
X340200384Y-115703165D01*
X340465457Y-115703024D01*
X340714042Y-115702872D01*
X340945374Y-115702708D01*
X341158687Y-115702534D01*
X341353216Y-115702349D01*
X341528198Y-115702154D01*
X341682865Y-115701949D01*
X341816453Y-115701735D01*
X341928198Y-115701512D01*
X342017334Y-115701280D01*
X342083095Y-115701040D01*
X342124717Y-115700792D01*
X342141435Y-115700537D01*
X342160383Y-115699265D01*
X342452614Y-115667045D01*
X342733445Y-115611924D01*
X343002713Y-115533977D01*
X343260251Y-115433276D01*
X343505893Y-115309894D01*
X343739474Y-115163904D01*
X343960828Y-114995381D01*
X344169789Y-114804397D01*
X344207893Y-114765831D01*
X344394002Y-114558612D01*
X344555952Y-114343712D01*
X344694374Y-114119880D01*
X344809900Y-113885864D01*
X344903161Y-113640414D01*
X344974790Y-113382279D01*
X345025418Y-113110208D01*
X345026984Y-113098612D01*
X345033754Y-113026083D01*
X345038492Y-112935337D01*
X345041245Y-112831853D01*
X345042055Y-112721111D01*
X345040966Y-112608589D01*
X345038023Y-112499765D01*
X345033269Y-112400120D01*
X345026750Y-112315131D01*
X345018507Y-112250278D01*
X344988495Y-112098701D01*
X344920187Y-111849708D01*
X344830016Y-111613046D01*
X344717408Y-111387623D01*
X344581789Y-111172346D01*
X344422586Y-110966126D01*
X344239223Y-110767870D01*
X344122679Y-110657748D01*
X343912179Y-110485727D01*
X343689776Y-110336419D01*
X343455624Y-110209883D01*
X343209873Y-110106180D01*
X342952675Y-110025370D01*
X342684182Y-109967514D01*
X342404545Y-109932673D01*
X342113916Y-109920906D01*
X341851542Y-109929937D01*
X341572639Y-109961312D01*
X341305601Y-110015075D01*
X341050738Y-110091149D01*
X340808356Y-110189454D01*
X340578766Y-110309913D01*
X340543746Y-110330979D01*
X340352812Y-110460610D01*
X340168175Y-110610315D01*
X339993707Y-110776169D01*
X339833282Y-110954249D01*
X339690776Y-111140634D01*
X339570060Y-111331398D01*
X339512396Y-111438211D01*
X339422035Y-111632292D01*
X339347404Y-111832924D01*
X339287629Y-112043402D01*
X339241835Y-112267019D01*
X339209145Y-112507069D01*
X339188686Y-112766847D01*
X339180188Y-112924043D01*
X341848027Y-112927282D01*
X344515866Y-112930521D01*
X344511849Y-112969025D01*
X344511794Y-112969551D01*
X344502353Y-113033846D01*
X344486359Y-113115552D01*
X344465448Y-113207826D01*
X344441261Y-113303826D01*
X344415434Y-113396707D01*
X344389607Y-113479628D01*
X344371136Y-113532978D01*
X344274519Y-113765899D01*
X344157121Y-113984724D01*
X344019982Y-114188412D01*
X343864140Y-114375919D01*
X343690636Y-114546203D01*
X343500507Y-114698221D01*
X343294793Y-114830929D01*
X343074533Y-114943284D01*
X342840766Y-115034245D01*
X342786986Y-115051607D01*
X342637086Y-115094038D01*
X342480688Y-115129123D01*
X342308287Y-115159091D01*
X342293761Y-115160775D01*
X342262526Y-115162953D01*
X342217529Y-115164965D01*
X342157856Y-115166819D01*
X342082589Y-115168524D01*
X341990812Y-115170089D01*
X341881611Y-115171524D01*
X341754068Y-115172837D01*
X341607268Y-115174038D01*
X341440295Y-115175136D01*
X341252232Y-115176141D01*
X341042164Y-115177060D01*
X340809175Y-115177904D01*
X340552348Y-115178681D01*
X340270768Y-115179400D01*
X338335927Y-115183963D01*
X338335927Y-111801532D01*
X338335927Y-108419101D01*
X339135770Y-108419101D01*
X339228055Y-108419098D01*
X339388959Y-108419006D01*
X339527140Y-108418656D01*
X339644546Y-108417872D01*
X339743122Y-108416482D01*
X339824815Y-108414310D01*
X339891570Y-108411182D01*
X339945334Y-108406924D01*
X339988053Y-108401361D01*
X340021673Y-108394320D01*
X340048140Y-108385625D01*
X340069401Y-108375104D01*
X340087401Y-108362580D01*
X340104087Y-108347881D01*
X340121405Y-108330832D01*
X340130856Y-108320902D01*
X340173836Y-108256096D01*
X340193829Y-108184781D01*
X340190891Y-108111053D01*
X340165079Y-108039008D01*
X340116450Y-107972741D01*
X340105912Y-107961834D01*
X340093195Y-107949468D01*
X340079692Y-107938677D01*
X340063742Y-107929351D01*
X340043689Y-107921386D01*
X340017872Y-107914673D01*
X339984632Y-107909106D01*
X339942312Y-107904576D01*
X339889252Y-107900979D01*
X339823793Y-107898205D01*
X339744277Y-107896149D01*
X339649044Y-107894703D01*
X339536436Y-107893759D01*
X339404794Y-107893212D01*
X339252459Y-107892954D01*
X339077772Y-107892877D01*
X338879075Y-107892876D01*
X337809701Y-107892876D01*
X337809701Y-111537949D01*
X337809701Y-115183022D01*
X336269530Y-115183022D01*
X334729358Y-115183022D01*
X334729358Y-113014391D01*
X334729358Y-110845761D01*
X335560409Y-110842108D01*
X335715159Y-110841438D01*
X335865731Y-110840718D01*
X335994320Y-110839865D01*
X336102870Y-110838710D01*
X336193329Y-110837082D01*
X336267643Y-110834814D01*
X336327757Y-110831734D01*
X336375618Y-110827673D01*
X336413171Y-110822463D01*
X336442363Y-110815933D01*
X336465139Y-110807914D01*
X336483447Y-110798236D01*
X336499231Y-110786730D01*
X336514438Y-110773227D01*
X336531014Y-110757556D01*
X336551117Y-110736215D01*
X336587893Y-110674373D01*
X336603987Y-110606314D01*
X336600624Y-110536611D01*
X336579031Y-110469837D01*
X336540434Y-110410564D01*
X336486058Y-110363365D01*
X336417129Y-110332813D01*
X336408826Y-110331328D01*
X336376103Y-110328634D01*
X336321406Y-110326276D01*
X336244273Y-110324250D01*
X336144242Y-110322548D01*
X336020851Y-110321167D01*
X335873640Y-110320098D01*
X335702145Y-110319338D01*
X335505906Y-110318880D01*
X335284461Y-110318718D01*
X334203132Y-110318646D01*
X334203132Y-112750834D01*
X334203132Y-115183022D01*
X332977412Y-115183022D01*
X331751692Y-115183022D01*
X331751692Y-113014508D01*
X331751692Y-110845993D01*
X332390222Y-110842224D01*
X332398546Y-110842174D01*
X332542989Y-110841253D01*
X332664145Y-110840292D01*
X332764278Y-110839204D01*
X332845650Y-110837900D01*
X332910526Y-110836292D01*
X332961168Y-110834292D01*
X332999840Y-110831810D01*
X333028805Y-110828760D01*
X333050327Y-110825053D01*
X333066667Y-110820599D01*
X333080090Y-110815313D01*
X333093008Y-110809155D01*
X333160973Y-110762269D01*
X333208524Y-110701525D01*
X333234162Y-110629482D01*
X333236385Y-110548699D01*
X333236356Y-110548453D01*
X333216442Y-110471208D01*
X333176192Y-110409160D01*
X333114269Y-110360246D01*
X333054421Y-110325064D01*
X332406265Y-110318646D01*
X331758110Y-110312229D01*
X331750717Y-109786003D01*
X331748860Y-109655939D01*
X331747166Y-109548642D01*
X331745450Y-109461310D01*
X331743528Y-109391091D01*
X331741215Y-109335135D01*
X331738326Y-109290589D01*
X331734675Y-109254603D01*
X331730078Y-109224324D01*
X331724350Y-109196901D01*
X331717306Y-109169483D01*
X331708760Y-109139218D01*
X331653256Y-108983831D01*
X334215967Y-108983831D01*
X334601010Y-108983831D01*
X334986053Y-108983831D01*
X334986053Y-108303588D01*
X334986053Y-107623346D01*
X334601010Y-107623346D01*
X334215967Y-107623346D01*
X334215967Y-108303588D01*
X334215967Y-108983831D01*
X331653256Y-108983831D01*
X331643188Y-108955646D01*
X331554650Y-108780892D01*
X331445106Y-108617763D01*
X331316128Y-108467707D01*
X331169287Y-108332175D01*
X331006154Y-108212615D01*
X330828300Y-108110476D01*
X330637297Y-108027207D01*
X330434716Y-107964257D01*
X330382100Y-107951925D01*
X330210280Y-107922066D01*
X330015940Y-107902353D01*
X329799867Y-107892774D01*
X329562850Y-107893316D01*
X329305674Y-107903967D01*
X329029127Y-107924714D01*
X328733997Y-107955544D01*
X328421071Y-107996446D01*
X328391137Y-108000750D01*
X328257156Y-108020972D01*
X328145874Y-108039850D01*
X328054901Y-108058171D01*
X327981848Y-108076723D01*
X327924327Y-108096291D01*
X327879950Y-108117664D01*
X327846328Y-108141627D01*
X327821072Y-108168968D01*
X327801793Y-108200474D01*
X327793827Y-108217547D01*
X327772791Y-108294555D01*
X326871058Y-108294555D01*
X326939265Y-108123315D01*
X327144225Y-107675420D01*
X327370663Y-107240615D01*
X327613835Y-106825784D01*
X327886960Y-106408523D01*
X328179301Y-106007433D01*
X328490114Y-105623039D01*
X328818653Y-105255870D01*
X329164172Y-104906454D01*
X329525927Y-104575318D01*
X329903171Y-104262990D01*
X330295160Y-103969997D01*
X330701148Y-103696868D01*
X331120390Y-103444130D01*
X331552140Y-103212311D01*
X331995652Y-103001938D01*
X332450182Y-102813539D01*
X332914984Y-102647642D01*
X333389312Y-102504775D01*
X333872422Y-102385464D01*
X334363567Y-102290239D01*
X334455099Y-102275170D01*
X334649224Y-102245461D01*
X334832401Y-102221035D01*
X335009845Y-102201482D01*
X335186771Y-102186393D01*
X335368392Y-102175359D01*
X335559925Y-102167973D01*
X335766583Y-102163825D01*
X335993582Y-102162508D01*
X336068753Y-102162576D01*
X336239775Y-102163543D01*
X336391927Y-102165892D01*
X336530042Y-102169925D01*
X336658959Y-102175944D01*
X336783513Y-102184253D01*
X336908539Y-102195153D01*
X337038874Y-102208947D01*
X337179354Y-102225939D01*
X337334815Y-102246429D01*
X337758922Y-102313592D01*
X338243753Y-102414206D01*
X338721296Y-102538869D01*
X339190713Y-102687056D01*
X339651168Y-102858247D01*
X340101824Y-103051917D01*
X340541843Y-103267544D01*
X340970388Y-103504606D01*
X341386623Y-103762580D01*
X341789711Y-104040944D01*
X342178814Y-104339174D01*
X342553096Y-104656748D01*
X342911719Y-104993143D01*
X343253847Y-105347836D01*
X343578642Y-105720306D01*
X343885268Y-106110029D01*
X344172887Y-106516482D01*
X344443253Y-106941997D01*
X344689893Y-107376348D01*
X344814060Y-107623346D01*
X344912660Y-107819486D01*
G37*
G36*
X128372790Y-134753137D02*
G01*
X128591820Y-134768051D01*
X128796409Y-134798488D01*
X128991242Y-134845464D01*
X129181007Y-134909993D01*
X129370390Y-134993093D01*
X129417224Y-135016463D01*
X129630838Y-135139780D01*
X129827261Y-135281879D01*
X130005807Y-135442018D01*
X130165793Y-135619454D01*
X130306533Y-135813446D01*
X130427344Y-136023250D01*
X130527540Y-136248125D01*
X130539588Y-136281142D01*
X130559002Y-136339611D01*
X130579637Y-136406479D01*
X130599960Y-136476280D01*
X130618436Y-136543548D01*
X130633532Y-136602817D01*
X130643714Y-136648621D01*
X130647449Y-136675493D01*
X130647360Y-136675942D01*
X130643764Y-136678169D01*
X130634157Y-136680208D01*
X130617503Y-136682068D01*
X130592768Y-136683755D01*
X130558918Y-136685279D01*
X130514918Y-136686647D01*
X130459733Y-136687867D01*
X130392329Y-136688947D01*
X130311671Y-136689895D01*
X130216724Y-136690719D01*
X130106454Y-136691426D01*
X129979826Y-136692026D01*
X129835806Y-136692525D01*
X129673359Y-136692931D01*
X129491449Y-136693254D01*
X129289044Y-136693500D01*
X129065107Y-136693677D01*
X128818605Y-136693794D01*
X128548502Y-136693859D01*
X128253765Y-136693878D01*
X128040137Y-136693852D01*
X127800255Y-136693759D01*
X127568427Y-136693603D01*
X127345911Y-136693386D01*
X127133966Y-136693112D01*
X126933849Y-136692784D01*
X126746820Y-136692407D01*
X126574136Y-136691983D01*
X126417055Y-136691516D01*
X126276836Y-136691009D01*
X126154737Y-136690465D01*
X126052016Y-136689889D01*
X125969932Y-136689283D01*
X125909743Y-136688652D01*
X125872706Y-136687998D01*
X125860081Y-136687325D01*
X125863127Y-136665054D01*
X125871993Y-136623096D01*
X125885182Y-136567962D01*
X125901186Y-136505529D01*
X125918494Y-136441674D01*
X125935599Y-136382274D01*
X125950991Y-136333205D01*
X125955469Y-136319953D01*
X126044858Y-136097006D01*
X126156302Y-135887116D01*
X126289497Y-135690733D01*
X126444139Y-135508308D01*
X126619926Y-135340291D01*
X126690213Y-135281571D01*
X126886132Y-135137503D01*
X127088770Y-135017077D01*
X127299586Y-134919767D01*
X127520035Y-134845048D01*
X127751577Y-134792394D01*
X127995668Y-134761280D01*
X128253765Y-134751181D01*
X128372790Y-134753137D01*
G37*
G36*
X131050660Y-132115486D02*
G01*
X131249682Y-132567774D01*
X131425084Y-133029573D01*
X131576993Y-133501243D01*
X131705537Y-133983146D01*
X131810841Y-134475644D01*
X131893033Y-134979097D01*
X131952239Y-135493867D01*
X131957175Y-135555812D01*
X131963761Y-135671179D01*
X131968939Y-135804962D01*
X131972711Y-135952756D01*
X131975076Y-136110158D01*
X131976035Y-136272762D01*
X131975586Y-136436164D01*
X131973730Y-136595958D01*
X131970468Y-136747741D01*
X131965798Y-136887107D01*
X131959722Y-137009651D01*
X131959171Y-137017111D01*
X131952239Y-137110969D01*
X131952119Y-137112281D01*
X131892867Y-137626943D01*
X131810639Y-138130275D01*
X131705303Y-138622648D01*
X131576730Y-139104435D01*
X131424787Y-139576009D01*
X131249345Y-140037742D01*
X131050272Y-140490008D01*
X130827439Y-140933178D01*
X130580714Y-141367625D01*
X130309968Y-141793723D01*
X130259148Y-141868792D01*
X129971037Y-142267801D01*
X129662948Y-142651918D01*
X129335954Y-143020238D01*
X128991126Y-143371856D01*
X128629539Y-143705867D01*
X128252264Y-144021365D01*
X127860374Y-144317445D01*
X127454942Y-144593202D01*
X127037040Y-144847730D01*
X126607740Y-145080125D01*
X126168116Y-145289481D01*
X126122659Y-145309568D01*
X125697198Y-145485988D01*
X125273142Y-145640421D01*
X124847549Y-145773570D01*
X124417481Y-145886140D01*
X123979995Y-145978834D01*
X123532152Y-146052356D01*
X123071012Y-146107408D01*
X122593634Y-146144695D01*
X122573026Y-146145746D01*
X122503651Y-146147991D01*
X122415195Y-146149549D01*
X122312410Y-146150444D01*
X122200045Y-146150698D01*
X122082852Y-146150333D01*
X121965581Y-146149371D01*
X121852984Y-146147834D01*
X121749810Y-146145746D01*
X121660811Y-146143127D01*
X121590737Y-146140000D01*
X121340533Y-146122599D01*
X120852564Y-146070747D01*
X120370662Y-145995806D01*
X119898333Y-145898277D01*
X119563205Y-145814014D01*
X119086956Y-145672448D01*
X118621494Y-145508235D01*
X118167431Y-145322023D01*
X117725380Y-145114461D01*
X117295953Y-144886197D01*
X116879762Y-144637882D01*
X116477420Y-144370163D01*
X116089539Y-144083689D01*
X115716731Y-143779111D01*
X115359610Y-143457076D01*
X115018787Y-143118233D01*
X114694875Y-142763232D01*
X114388486Y-142392722D01*
X114100234Y-142007351D01*
X113830729Y-141607768D01*
X113580585Y-141194622D01*
X113350414Y-140768562D01*
X113140828Y-140330238D01*
X112952441Y-139880297D01*
X112785863Y-139419390D01*
X112641708Y-138948164D01*
X112520589Y-138467270D01*
X112423117Y-137977355D01*
X112393699Y-137801000D01*
X112365800Y-137616348D01*
X112342916Y-137440857D01*
X112324645Y-137269565D01*
X112310590Y-137097510D01*
X112300353Y-136919729D01*
X112293534Y-136731262D01*
X112289735Y-136527145D01*
X112288557Y-136302418D01*
X112288652Y-136214767D01*
X112289538Y-136051546D01*
X112291562Y-135907298D01*
X112294976Y-135777525D01*
X112300033Y-135657732D01*
X112306984Y-135543421D01*
X112316083Y-135430096D01*
X112327582Y-135313260D01*
X112341733Y-135188416D01*
X112358789Y-135051067D01*
X112395867Y-134790215D01*
X112484336Y-134304694D01*
X112597318Y-133822989D01*
X112734204Y-133346954D01*
X112894389Y-132878444D01*
X113009058Y-132590555D01*
X113910791Y-132590555D01*
X113912165Y-132665855D01*
X113934153Y-132735412D01*
X113974959Y-132795194D01*
X114032786Y-132841166D01*
X114105838Y-132869294D01*
X114121323Y-132872383D01*
X114145809Y-132875425D01*
X114174709Y-132876269D01*
X114211518Y-132874643D01*
X114259730Y-132870274D01*
X114322839Y-132862891D01*
X114404342Y-132852221D01*
X114507732Y-132837992D01*
X114610725Y-132823889D01*
X114898736Y-132787465D01*
X115163462Y-132758804D01*
X115405778Y-132737876D01*
X115626558Y-132724652D01*
X115826676Y-132719103D01*
X116007007Y-132721199D01*
X116168424Y-132730911D01*
X116311802Y-132748209D01*
X116438016Y-132773065D01*
X116493179Y-132787535D01*
X116664954Y-132847840D01*
X116821228Y-132927006D01*
X116960855Y-133024148D01*
X117082693Y-133138383D01*
X117185597Y-133268827D01*
X117268423Y-133414596D01*
X117274427Y-133427376D01*
X117296762Y-133477269D01*
X117315042Y-133524085D01*
X117329668Y-133571018D01*
X117341043Y-133621260D01*
X117349567Y-133678006D01*
X117355641Y-133744449D01*
X117359667Y-133823783D01*
X117362045Y-133919202D01*
X117363178Y-134033900D01*
X117363467Y-134171069D01*
X117363467Y-134614172D01*
X116056518Y-134617618D01*
X114749568Y-134621064D01*
X114687569Y-134659568D01*
X114655497Y-134682883D01*
X114606197Y-134739149D01*
X114576878Y-134804281D01*
X114567229Y-134873839D01*
X114576938Y-134943383D01*
X114605691Y-135008473D01*
X114653176Y-135064668D01*
X114719081Y-135107530D01*
X114721451Y-135108622D01*
X114731284Y-135112886D01*
X114742087Y-135116658D01*
X114755406Y-135119975D01*
X114772783Y-135122869D01*
X114795763Y-135125378D01*
X114825888Y-135127534D01*
X114864702Y-135129372D01*
X114913749Y-135130929D01*
X114974574Y-135132237D01*
X115048718Y-135133333D01*
X115137727Y-135134250D01*
X115243143Y-135135025D01*
X115366510Y-135135690D01*
X115509372Y-135136281D01*
X115673273Y-135136834D01*
X115859756Y-135137381D01*
X116070364Y-135137960D01*
X117363467Y-135141465D01*
X117363467Y-137310244D01*
X117363467Y-139479022D01*
X116173042Y-139479336D01*
X116001984Y-139479464D01*
X115791855Y-139479883D01*
X115603080Y-139480583D01*
X115436197Y-139481557D01*
X115291748Y-139482799D01*
X115170270Y-139484303D01*
X115072303Y-139486064D01*
X114998386Y-139488076D01*
X114949059Y-139490333D01*
X114924862Y-139492829D01*
X114889128Y-139503271D01*
X114818703Y-139540699D01*
X114765276Y-139594687D01*
X114731369Y-139662194D01*
X114719505Y-139740182D01*
X114726458Y-139803713D01*
X114755383Y-139873723D01*
X114806610Y-139931146D01*
X114879940Y-139975688D01*
X114883217Y-139976998D01*
X114888856Y-139978651D01*
X114896585Y-139980220D01*
X114907060Y-139981705D01*
X114920935Y-139983110D01*
X114938865Y-139984438D01*
X114961506Y-139985689D01*
X114989513Y-139986867D01*
X115023540Y-139987974D01*
X115064242Y-139989012D01*
X115112274Y-139989984D01*
X115168292Y-139990891D01*
X115232949Y-139991738D01*
X115306903Y-139992525D01*
X115390806Y-139993255D01*
X115485314Y-139993930D01*
X115591083Y-139994554D01*
X115708766Y-139995127D01*
X115839020Y-139995653D01*
X115982499Y-139996134D01*
X116139858Y-139996572D01*
X116311752Y-139996970D01*
X116498835Y-139997329D01*
X116701764Y-139997653D01*
X116921193Y-139997944D01*
X117157776Y-139998203D01*
X117412170Y-139998434D01*
X117685028Y-139998638D01*
X117977006Y-139998819D01*
X118288759Y-139998978D01*
X118620941Y-139999118D01*
X118974209Y-139999241D01*
X119349216Y-139999349D01*
X119746617Y-139999445D01*
X120167068Y-139999532D01*
X120611224Y-139999611D01*
X121079740Y-139999685D01*
X121573270Y-139999756D01*
X121740145Y-139999778D01*
X122149938Y-139999821D01*
X122553189Y-139999847D01*
X122949134Y-139999858D01*
X123337007Y-139999853D01*
X123716042Y-139999832D01*
X124085476Y-139999797D01*
X124444543Y-139999747D01*
X124792477Y-139999684D01*
X125128514Y-139999606D01*
X125451888Y-139999515D01*
X125761835Y-139999411D01*
X126057589Y-139999294D01*
X126338384Y-139999165D01*
X126603457Y-139999024D01*
X126852042Y-139998872D01*
X127083374Y-139998708D01*
X127296687Y-139998534D01*
X127491216Y-139998349D01*
X127666198Y-139998154D01*
X127820865Y-139997949D01*
X127954453Y-139997735D01*
X128066198Y-139997512D01*
X128155334Y-139997280D01*
X128221095Y-139997040D01*
X128262717Y-139996792D01*
X128279435Y-139996537D01*
X128298383Y-139995265D01*
X128590614Y-139963045D01*
X128871445Y-139907924D01*
X129140713Y-139829977D01*
X129398251Y-139729276D01*
X129643893Y-139605894D01*
X129877474Y-139459904D01*
X130098828Y-139291381D01*
X130307789Y-139100397D01*
X130345893Y-139061831D01*
X130532002Y-138854612D01*
X130693952Y-138639712D01*
X130832374Y-138415880D01*
X130947900Y-138181864D01*
X131041161Y-137936414D01*
X131112790Y-137678279D01*
X131163418Y-137406208D01*
X131164984Y-137394612D01*
X131171754Y-137322083D01*
X131176492Y-137231337D01*
X131179245Y-137127853D01*
X131180055Y-137017111D01*
X131178966Y-136904589D01*
X131176023Y-136795765D01*
X131171269Y-136696120D01*
X131164750Y-136611131D01*
X131156507Y-136546278D01*
X131126495Y-136394701D01*
X131058187Y-136145708D01*
X130968016Y-135909046D01*
X130855408Y-135683623D01*
X130719789Y-135468346D01*
X130560586Y-135262126D01*
X130377223Y-135063870D01*
X130260679Y-134953748D01*
X130050179Y-134781727D01*
X129827776Y-134632419D01*
X129593624Y-134505883D01*
X129347873Y-134402180D01*
X129090675Y-134321370D01*
X128822182Y-134263514D01*
X128542545Y-134228673D01*
X128251916Y-134216906D01*
X127989542Y-134225937D01*
X127710639Y-134257312D01*
X127443601Y-134311075D01*
X127188738Y-134387149D01*
X126946356Y-134485454D01*
X126716766Y-134605913D01*
X126681746Y-134626979D01*
X126490812Y-134756610D01*
X126306175Y-134906315D01*
X126131707Y-135072169D01*
X125971282Y-135250249D01*
X125828776Y-135436634D01*
X125708060Y-135627398D01*
X125650396Y-135734211D01*
X125560035Y-135928292D01*
X125485404Y-136128924D01*
X125425629Y-136339402D01*
X125379835Y-136563019D01*
X125347145Y-136803069D01*
X125326686Y-137062847D01*
X125318188Y-137220043D01*
X127986027Y-137223282D01*
X130653866Y-137226521D01*
X130649849Y-137265025D01*
X130649794Y-137265551D01*
X130640353Y-137329846D01*
X130624359Y-137411552D01*
X130603448Y-137503826D01*
X130579261Y-137599826D01*
X130553434Y-137692707D01*
X130527607Y-137775628D01*
X130509136Y-137828978D01*
X130412519Y-138061899D01*
X130295121Y-138280724D01*
X130157982Y-138484412D01*
X130002140Y-138671919D01*
X129828636Y-138842203D01*
X129638507Y-138994221D01*
X129432793Y-139126929D01*
X129212533Y-139239284D01*
X128978766Y-139330245D01*
X128924986Y-139347607D01*
X128775086Y-139390038D01*
X128618688Y-139425123D01*
X128446287Y-139455091D01*
X128431761Y-139456775D01*
X128400526Y-139458953D01*
X128355529Y-139460965D01*
X128295856Y-139462819D01*
X128220589Y-139464524D01*
X128128812Y-139466089D01*
X128019611Y-139467524D01*
X127892068Y-139468837D01*
X127745268Y-139470038D01*
X127578295Y-139471136D01*
X127390232Y-139472141D01*
X127180164Y-139473060D01*
X126947175Y-139473904D01*
X126690348Y-139474681D01*
X126408768Y-139475400D01*
X124473927Y-139479963D01*
X124473927Y-136097532D01*
X124473927Y-132715101D01*
X125273770Y-132715101D01*
X125366055Y-132715098D01*
X125526959Y-132715006D01*
X125665140Y-132714656D01*
X125782546Y-132713872D01*
X125881122Y-132712482D01*
X125962815Y-132710310D01*
X126029570Y-132707182D01*
X126083334Y-132702924D01*
X126126053Y-132697361D01*
X126159673Y-132690320D01*
X126186140Y-132681625D01*
X126207401Y-132671104D01*
X126225401Y-132658580D01*
X126242087Y-132643881D01*
X126259405Y-132626832D01*
X126268856Y-132616902D01*
X126311836Y-132552096D01*
X126331829Y-132480781D01*
X126328891Y-132407053D01*
X126303079Y-132335008D01*
X126254450Y-132268741D01*
X126243912Y-132257834D01*
X126231195Y-132245468D01*
X126217692Y-132234677D01*
X126201742Y-132225351D01*
X126181689Y-132217386D01*
X126155872Y-132210673D01*
X126122632Y-132205106D01*
X126080312Y-132200576D01*
X126027252Y-132196979D01*
X125961793Y-132194205D01*
X125882277Y-132192149D01*
X125787044Y-132190703D01*
X125674436Y-132189759D01*
X125542794Y-132189212D01*
X125390459Y-132188954D01*
X125215772Y-132188877D01*
X125017075Y-132188876D01*
X123947701Y-132188876D01*
X123947701Y-135833949D01*
X123947701Y-139479022D01*
X122407530Y-139479022D01*
X120867358Y-139479022D01*
X120867358Y-137310391D01*
X120867358Y-135141761D01*
X121698409Y-135138108D01*
X121853159Y-135137438D01*
X122003731Y-135136718D01*
X122132320Y-135135865D01*
X122240870Y-135134710D01*
X122331329Y-135133082D01*
X122405643Y-135130814D01*
X122465757Y-135127734D01*
X122513618Y-135123673D01*
X122551171Y-135118463D01*
X122580363Y-135111933D01*
X122603139Y-135103914D01*
X122621447Y-135094236D01*
X122637231Y-135082730D01*
X122652438Y-135069227D01*
X122669014Y-135053556D01*
X122689117Y-135032215D01*
X122725893Y-134970373D01*
X122741987Y-134902314D01*
X122738624Y-134832611D01*
X122717031Y-134765837D01*
X122678434Y-134706564D01*
X122624058Y-134659365D01*
X122555129Y-134628813D01*
X122546826Y-134627328D01*
X122514103Y-134624634D01*
X122459406Y-134622276D01*
X122382273Y-134620250D01*
X122282242Y-134618548D01*
X122158851Y-134617167D01*
X122011640Y-134616098D01*
X121840145Y-134615338D01*
X121643906Y-134614880D01*
X121422461Y-134614718D01*
X120341132Y-134614646D01*
X120341132Y-137046834D01*
X120341132Y-139479022D01*
X119115412Y-139479022D01*
X117889692Y-139479022D01*
X117889692Y-137310508D01*
X117889692Y-135141993D01*
X118528222Y-135138224D01*
X118536546Y-135138174D01*
X118680989Y-135137253D01*
X118802145Y-135136292D01*
X118902278Y-135135204D01*
X118983650Y-135133900D01*
X119048526Y-135132292D01*
X119099168Y-135130292D01*
X119137840Y-135127810D01*
X119166805Y-135124760D01*
X119188327Y-135121053D01*
X119204667Y-135116599D01*
X119218090Y-135111313D01*
X119231008Y-135105155D01*
X119298973Y-135058269D01*
X119346524Y-134997525D01*
X119372162Y-134925482D01*
X119374385Y-134844699D01*
X119374356Y-134844453D01*
X119354442Y-134767208D01*
X119314192Y-134705160D01*
X119252269Y-134656246D01*
X119192421Y-134621064D01*
X118544265Y-134614646D01*
X117896110Y-134608229D01*
X117888717Y-134082003D01*
X117886860Y-133951939D01*
X117885166Y-133844642D01*
X117883450Y-133757310D01*
X117881528Y-133687091D01*
X117879215Y-133631135D01*
X117876326Y-133586589D01*
X117872675Y-133550603D01*
X117868078Y-133520324D01*
X117862350Y-133492901D01*
X117855306Y-133465483D01*
X117846760Y-133435218D01*
X117791256Y-133279831D01*
X120353967Y-133279831D01*
X120739010Y-133279831D01*
X121124053Y-133279831D01*
X121124053Y-132599588D01*
X121124053Y-131919346D01*
X120739010Y-131919346D01*
X120353967Y-131919346D01*
X120353967Y-132599588D01*
X120353967Y-133279831D01*
X117791256Y-133279831D01*
X117781188Y-133251646D01*
X117692650Y-133076892D01*
X117583106Y-132913763D01*
X117454128Y-132763707D01*
X117307287Y-132628175D01*
X117144154Y-132508615D01*
X116966300Y-132406476D01*
X116775297Y-132323207D01*
X116572716Y-132260257D01*
X116520100Y-132247925D01*
X116348280Y-132218066D01*
X116153940Y-132198353D01*
X115937867Y-132188774D01*
X115700850Y-132189316D01*
X115443674Y-132199967D01*
X115167127Y-132220714D01*
X114871997Y-132251544D01*
X114559071Y-132292446D01*
X114529137Y-132296750D01*
X114395156Y-132316972D01*
X114283874Y-132335850D01*
X114192901Y-132354171D01*
X114119848Y-132372723D01*
X114062327Y-132392291D01*
X114017950Y-132413664D01*
X113984328Y-132437627D01*
X113959072Y-132464968D01*
X113939793Y-132496474D01*
X113931827Y-132513547D01*
X113910791Y-132590555D01*
X113009058Y-132590555D01*
X113077265Y-132419315D01*
X113282225Y-131971420D01*
X113508663Y-131536615D01*
X113751835Y-131121784D01*
X114024960Y-130704523D01*
X114317301Y-130303433D01*
X114628114Y-129919039D01*
X114956653Y-129551870D01*
X115302172Y-129202454D01*
X115663927Y-128871318D01*
X116041171Y-128558990D01*
X116433160Y-128265997D01*
X116839148Y-127992868D01*
X117258390Y-127740130D01*
X117690140Y-127508311D01*
X118133652Y-127297938D01*
X118588182Y-127109539D01*
X119052984Y-126943642D01*
X119527312Y-126800775D01*
X120010422Y-126681464D01*
X120501567Y-126586239D01*
X120593099Y-126571170D01*
X120787224Y-126541461D01*
X120970401Y-126517035D01*
X121147845Y-126497482D01*
X121324771Y-126482393D01*
X121506392Y-126471359D01*
X121697925Y-126463973D01*
X121904583Y-126459825D01*
X122131582Y-126458508D01*
X122206753Y-126458576D01*
X122377775Y-126459543D01*
X122529927Y-126461892D01*
X122668042Y-126465925D01*
X122796959Y-126471944D01*
X122921513Y-126480253D01*
X123046539Y-126491153D01*
X123176874Y-126504947D01*
X123317354Y-126521939D01*
X123472815Y-126542429D01*
X123896922Y-126609592D01*
X124381753Y-126710206D01*
X124859296Y-126834869D01*
X125328713Y-126983056D01*
X125789168Y-127154247D01*
X126239824Y-127347917D01*
X126679843Y-127563544D01*
X127108388Y-127800606D01*
X127524623Y-128058580D01*
X127927711Y-128336944D01*
X128316814Y-128635174D01*
X128691096Y-128952748D01*
X129049719Y-129289143D01*
X129391847Y-129643836D01*
X129716642Y-130016306D01*
X130023268Y-130406029D01*
X130310887Y-130812482D01*
X130581253Y-131237997D01*
X130827893Y-131672348D01*
X130952060Y-131919346D01*
X131050660Y-132115486D01*
G37*
%LPC*%
D10*
X157294285Y-109220000D03*
D11*
X159794285Y-109220000D03*
X162294285Y-109220000D03*
X164794285Y-109220000D03*
D10*
X184702855Y-109220000D03*
D11*
X187202855Y-109220000D03*
X189702855Y-109220000D03*
X192202855Y-109220000D03*
D10*
X170998570Y-109220000D03*
D11*
X173498570Y-109220000D03*
X175998570Y-109220000D03*
X178498570Y-109220000D03*
D10*
X264570000Y-111000000D03*
D11*
X267070000Y-111000000D03*
X269570000Y-111000000D03*
D12*
X244789232Y-72510000D03*
D13*
X152410000Y-74850000D03*
D14*
X152410000Y-79930000D03*
D12*
X191789232Y-72510000D03*
D15*
X64882000Y-135320000D03*
D16*
X64882000Y-137820000D03*
X64882000Y-140320000D03*
D17*
X81442000Y-107486000D03*
D18*
X81442000Y-110026000D03*
X81442000Y-112566000D03*
X81442000Y-115106000D03*
X81442000Y-117646000D03*
D10*
X329500000Y-111000000D03*
D11*
X332000000Y-111000000D03*
X334500000Y-111000000D03*
D12*
X75172000Y-70660000D03*
D19*
X74632000Y-128660000D03*
D20*
X79712000Y-128660000D03*
D10*
X143590000Y-109220000D03*
D11*
X146090000Y-109220000D03*
X148590000Y-109220000D03*
X151090000Y-109220000D03*
D17*
X99222000Y-107486000D03*
D18*
X99222000Y-110026000D03*
X99222000Y-112566000D03*
X99222000Y-115106000D03*
X99222000Y-117646000D03*
D17*
X119542000Y-107486000D03*
D18*
X119542000Y-110026000D03*
X119542000Y-112566000D03*
X119542000Y-115106000D03*
X119542000Y-117646000D03*
D17*
X76362000Y-98210000D03*
D18*
X78902000Y-98210000D03*
X81442000Y-98210000D03*
X83982000Y-98210000D03*
X86522000Y-98210000D03*
X89062000Y-98210000D03*
X91602000Y-98210000D03*
X94142000Y-98210000D03*
X96682000Y-98210000D03*
X99222000Y-98210000D03*
X101762000Y-98210000D03*
X104302000Y-98210000D03*
X106842000Y-98210000D03*
X109382000Y-98210000D03*
X111922000Y-98210000D03*
X114462000Y-98210000D03*
X117002000Y-98210000D03*
X119542000Y-98210000D03*
X122082000Y-98210000D03*
X124622000Y-98210000D03*
D13*
X66642000Y-72150000D03*
D14*
X66642000Y-77230000D03*
D19*
X116042000Y-128660000D03*
D20*
X121122000Y-128660000D03*
D17*
X287190250Y-82032000D03*
D18*
X289730250Y-82032000D03*
X292270250Y-82032000D03*
X294810250Y-82032000D03*
X297350250Y-82032000D03*
X299890250Y-82032000D03*
X302430250Y-82032000D03*
X304970250Y-82032000D03*
X307510250Y-82032000D03*
X310050250Y-82032000D03*
X312590250Y-82032000D03*
X315130250Y-82032000D03*
X317670250Y-82032000D03*
X320210250Y-82032000D03*
X322750250Y-82032000D03*
X325290250Y-82032000D03*
X327830250Y-82032000D03*
X330370250Y-82032000D03*
X332910250Y-82032000D03*
X335450250Y-82032000D03*
D17*
X86522000Y-107541000D03*
D18*
X86522000Y-110081000D03*
X86522000Y-112621000D03*
X86522000Y-115161000D03*
X86522000Y-117701000D03*
D17*
X170480000Y-99880000D03*
D18*
X173020000Y-99880000D03*
X175560000Y-99880000D03*
X178100000Y-99880000D03*
X180640000Y-99880000D03*
X183180000Y-99880000D03*
X185720000Y-99880000D03*
X188260000Y-99880000D03*
X190800000Y-99880000D03*
X193340000Y-99880000D03*
X195880000Y-99880000D03*
X198420000Y-99880000D03*
X200960000Y-99880000D03*
X203500000Y-99880000D03*
X206040000Y-99880000D03*
X208580000Y-99880000D03*
X211120000Y-99880000D03*
X213660000Y-99880000D03*
X216200000Y-99880000D03*
X218740000Y-99880000D03*
D13*
X276957750Y-74422000D03*
D14*
X276957750Y-79502000D03*
D10*
X286213334Y-111000000D03*
D11*
X288713334Y-111000000D03*
X291213334Y-111000000D03*
D10*
X225815710Y-109220000D03*
D11*
X228315710Y-109220000D03*
X230815710Y-109220000D03*
X233315710Y-109220000D03*
D12*
X341150250Y-72482000D03*
D10*
X198407140Y-109220000D03*
D11*
X200907140Y-109220000D03*
X203407140Y-109220000D03*
X205907140Y-109220000D03*
D12*
X288150250Y-72482000D03*
D10*
X307856667Y-111000000D03*
D11*
X310356667Y-111000000D03*
X312856667Y-111000000D03*
D15*
X64882000Y-109546666D03*
D16*
X64882000Y-112046666D03*
X64882000Y-114546666D03*
D19*
X88435333Y-128660000D03*
D20*
X93515333Y-128660000D03*
D15*
X64882000Y-96660000D03*
D16*
X64882000Y-99160000D03*
X64882000Y-101660000D03*
D17*
X94142000Y-107541000D03*
D18*
X94142000Y-110081000D03*
X94142000Y-112621000D03*
X94142000Y-115161000D03*
X94142000Y-117701000D03*
D17*
X170480000Y-82100000D03*
D18*
X173020000Y-82100000D03*
X175560000Y-82100000D03*
X178100000Y-82100000D03*
X180640000Y-82100000D03*
X183180000Y-82100000D03*
X185720000Y-82100000D03*
X188260000Y-82100000D03*
X190800000Y-82100000D03*
X193340000Y-82100000D03*
X195880000Y-82100000D03*
X198420000Y-82100000D03*
X200960000Y-82100000D03*
X203500000Y-82100000D03*
X206040000Y-82100000D03*
X208580000Y-82100000D03*
X211120000Y-82100000D03*
X213660000Y-82100000D03*
X216200000Y-82100000D03*
X218740000Y-82100000D03*
D17*
X106842000Y-107486000D03*
D18*
X106842000Y-110026000D03*
X106842000Y-112566000D03*
X106842000Y-115106000D03*
X106842000Y-117646000D03*
D19*
X102238666Y-128660000D03*
D20*
X107318666Y-128660000D03*
D15*
X64882000Y-122433332D03*
D16*
X64882000Y-124933332D03*
X64882000Y-127433332D03*
D17*
X111922000Y-107486000D03*
D18*
X111922000Y-110026000D03*
X111922000Y-112566000D03*
X111922000Y-115106000D03*
X111922000Y-117646000D03*
D17*
X287180250Y-99812000D03*
D18*
X289720250Y-99812000D03*
X292260250Y-99812000D03*
X294800250Y-99812000D03*
X297340250Y-99812000D03*
X299880250Y-99812000D03*
X302420250Y-99812000D03*
X304960250Y-99812000D03*
X307500250Y-99812000D03*
X310040250Y-99812000D03*
X312580250Y-99812000D03*
X315120250Y-99812000D03*
X317660250Y-99812000D03*
X320200250Y-99812000D03*
X322740250Y-99812000D03*
X325280250Y-99812000D03*
X327820250Y-99812000D03*
X330360250Y-99812000D03*
X332900250Y-99812000D03*
X335440250Y-99812000D03*
D17*
X76362000Y-80430000D03*
D18*
X78902000Y-80430000D03*
X81442000Y-80430000D03*
X83982000Y-80430000D03*
X86522000Y-80430000D03*
X89062000Y-80430000D03*
X91602000Y-80430000D03*
X94142000Y-80430000D03*
X96682000Y-80430000D03*
X99222000Y-80430000D03*
X101762000Y-80430000D03*
X104302000Y-80430000D03*
X106842000Y-80430000D03*
X109382000Y-80430000D03*
X111922000Y-80430000D03*
X114462000Y-80430000D03*
X117002000Y-80430000D03*
X119542000Y-80430000D03*
X122082000Y-80430000D03*
X124622000Y-80430000D03*
D10*
X212111425Y-109220000D03*
D11*
X214611425Y-109220000D03*
X217111425Y-109220000D03*
X219611425Y-109220000D03*
D17*
X73822000Y-107486000D03*
D18*
X73822000Y-110026000D03*
X73822000Y-112566000D03*
X73822000Y-115106000D03*
X73822000Y-117646000D03*
D12*
X128172000Y-70660000D03*
D10*
X239520000Y-109220000D03*
D11*
X242020000Y-109220000D03*
X244520000Y-109220000D03*
X247020000Y-109220000D03*
%LPD*%
M02*
