G04 #@! TF.GenerationSoftware,KiCad,Pcbnew,7.0.2*
G04 #@! TF.CreationDate,2023-11-30T17:18:32+01:00*
G04 #@! TF.ProjectId,mhk,6d686b2e-6b69-4636-9164-5f7063625858,rev?*
G04 #@! TF.SameCoordinates,Original*
G04 #@! TF.FileFunction,Copper,L1,Top*
G04 #@! TF.FilePolarity,Positive*
%FSLAX46Y46*%
G04 Gerber Fmt 4.6, Leading zero omitted, Abs format (unit mm)*
G04 Created by KiCad (PCBNEW 7.0.2) date 2023-11-30 17:18:32*
%MOMM*%
%LPD*%
G01*
G04 APERTURE LIST*
G04 Aperture macros list*
%AMRoundRect*
0 Rectangle with rounded corners*
0 $1 Rounding radius*
0 $2 $3 $4 $5 $6 $7 $8 $9 X,Y pos of 4 corners*
0 Add a 4 corners polygon primitive as box body*
4,1,4,$2,$3,$4,$5,$6,$7,$8,$9,$2,$3,0*
0 Add four circle primitives for the rounded corners*
1,1,$1+$1,$2,$3*
1,1,$1+$1,$4,$5*
1,1,$1+$1,$6,$7*
1,1,$1+$1,$8,$9*
0 Add four rect primitives between the rounded corners*
20,1,$1+$1,$2,$3,$4,$5,0*
20,1,$1+$1,$4,$5,$6,$7,0*
20,1,$1+$1,$6,$7,$8,$9,0*
20,1,$1+$1,$8,$9,$2,$3,0*%
G04 Aperture macros list end*
G04 #@! TA.AperFunction,ComponentPad*
%ADD10RoundRect,0.250000X-0.600000X-0.725000X0.600000X-0.725000X0.600000X0.725000X-0.600000X0.725000X0*%
G04 #@! TD*
G04 #@! TA.AperFunction,ComponentPad*
%ADD11O,1.700000X1.950000*%
G04 #@! TD*
G04 #@! TA.AperFunction,ComponentPad*
%ADD12RoundRect,0.249999X-1.550001X0.790001X-1.550001X-0.790001X1.550001X-0.790001X1.550001X0.790001X0*%
G04 #@! TD*
G04 #@! TA.AperFunction,ComponentPad*
%ADD13O,3.600000X2.080000*%
G04 #@! TD*
G04 #@! TA.AperFunction,ComponentPad*
%ADD14RoundRect,0.250000X-0.725000X0.600000X-0.725000X-0.600000X0.725000X-0.600000X0.725000X0.600000X0*%
G04 #@! TD*
G04 #@! TA.AperFunction,ComponentPad*
%ADD15O,1.950000X1.700000*%
G04 #@! TD*
G04 #@! TA.AperFunction,ComponentPad*
%ADD16R,1.700000X1.700000*%
G04 #@! TD*
G04 #@! TA.AperFunction,ComponentPad*
%ADD17O,1.700000X1.700000*%
G04 #@! TD*
G04 #@! TA.AperFunction,ComponentPad*
%ADD18RoundRect,0.249999X-0.790001X-1.550001X0.790001X-1.550001X0.790001X1.550001X-0.790001X1.550001X0*%
G04 #@! TD*
G04 #@! TA.AperFunction,ComponentPad*
%ADD19O,2.080000X3.600000*%
G04 #@! TD*
G04 #@! TA.AperFunction,Conductor*
%ADD20C,2.000000*%
G04 #@! TD*
G04 #@! TA.AperFunction,Conductor*
%ADD21C,1.000000*%
G04 #@! TD*
G04 APERTURE END LIST*
D10*
X157294285Y-109220000D03*
D11*
X159794285Y-109220000D03*
X162294285Y-109220000D03*
X164794285Y-109220000D03*
D10*
X184702855Y-109220000D03*
D11*
X187202855Y-109220000D03*
X189702855Y-109220000D03*
X192202855Y-109220000D03*
D10*
X170998570Y-109220000D03*
D11*
X173498570Y-109220000D03*
X175998570Y-109220000D03*
X178498570Y-109220000D03*
D10*
X264570000Y-111000000D03*
D11*
X267070000Y-111000000D03*
X269570000Y-111000000D03*
D12*
X152410000Y-74850000D03*
D13*
X152410000Y-79930000D03*
D14*
X64882000Y-135320000D03*
D15*
X64882000Y-137820000D03*
X64882000Y-140320000D03*
D16*
X81442000Y-107486000D03*
D17*
X81442000Y-110026000D03*
X81442000Y-112566000D03*
X81442000Y-115106000D03*
X81442000Y-117646000D03*
D10*
X329500000Y-111000000D03*
D11*
X332000000Y-111000000D03*
X334500000Y-111000000D03*
D18*
X74632000Y-128660000D03*
D19*
X79712000Y-128660000D03*
D10*
X143590000Y-109220000D03*
D11*
X146090000Y-109220000D03*
X148590000Y-109220000D03*
X151090000Y-109220000D03*
D16*
X99222000Y-107486000D03*
D17*
X99222000Y-110026000D03*
X99222000Y-112566000D03*
X99222000Y-115106000D03*
X99222000Y-117646000D03*
D16*
X119542000Y-107486000D03*
D17*
X119542000Y-110026000D03*
X119542000Y-112566000D03*
X119542000Y-115106000D03*
X119542000Y-117646000D03*
D16*
X76362000Y-98210000D03*
D17*
X78902000Y-98210000D03*
X81442000Y-98210000D03*
X83982000Y-98210000D03*
X86522000Y-98210000D03*
X89062000Y-98210000D03*
X91602000Y-98210000D03*
X94142000Y-98210000D03*
X96682000Y-98210000D03*
X99222000Y-98210000D03*
X101762000Y-98210000D03*
X104302000Y-98210000D03*
X106842000Y-98210000D03*
X109382000Y-98210000D03*
X111922000Y-98210000D03*
X114462000Y-98210000D03*
X117002000Y-98210000D03*
X119542000Y-98210000D03*
X122082000Y-98210000D03*
X124622000Y-98210000D03*
D12*
X66642000Y-72150000D03*
D13*
X66642000Y-77230000D03*
D18*
X116042000Y-128660000D03*
D19*
X121122000Y-128660000D03*
D16*
X287190250Y-82032000D03*
D17*
X289730250Y-82032000D03*
X292270250Y-82032000D03*
X294810250Y-82032000D03*
X297350250Y-82032000D03*
X299890250Y-82032000D03*
X302430250Y-82032000D03*
X304970250Y-82032000D03*
X307510250Y-82032000D03*
X310050250Y-82032000D03*
X312590250Y-82032000D03*
X315130250Y-82032000D03*
X317670250Y-82032000D03*
X320210250Y-82032000D03*
X322750250Y-82032000D03*
X325290250Y-82032000D03*
X327830250Y-82032000D03*
X330370250Y-82032000D03*
X332910250Y-82032000D03*
X335450250Y-82032000D03*
D16*
X86522000Y-107541000D03*
D17*
X86522000Y-110081000D03*
X86522000Y-112621000D03*
X86522000Y-115161000D03*
X86522000Y-117701000D03*
D16*
X170480000Y-99880000D03*
D17*
X173020000Y-99880000D03*
X175560000Y-99880000D03*
X178100000Y-99880000D03*
X180640000Y-99880000D03*
X183180000Y-99880000D03*
X185720000Y-99880000D03*
X188260000Y-99880000D03*
X190800000Y-99880000D03*
X193340000Y-99880000D03*
X195880000Y-99880000D03*
X198420000Y-99880000D03*
X200960000Y-99880000D03*
X203500000Y-99880000D03*
X206040000Y-99880000D03*
X208580000Y-99880000D03*
X211120000Y-99880000D03*
X213660000Y-99880000D03*
X216200000Y-99880000D03*
X218740000Y-99880000D03*
D12*
X276957750Y-74422000D03*
D13*
X276957750Y-79502000D03*
D10*
X286213334Y-111000000D03*
D11*
X288713334Y-111000000D03*
X291213334Y-111000000D03*
D10*
X225815710Y-109220000D03*
D11*
X228315710Y-109220000D03*
X230815710Y-109220000D03*
X233315710Y-109220000D03*
D10*
X198407140Y-109220000D03*
D11*
X200907140Y-109220000D03*
X203407140Y-109220000D03*
X205907140Y-109220000D03*
D10*
X307856667Y-111000000D03*
D11*
X310356667Y-111000000D03*
X312856667Y-111000000D03*
D14*
X64882000Y-109546666D03*
D15*
X64882000Y-112046666D03*
X64882000Y-114546666D03*
D18*
X88435333Y-128660000D03*
D19*
X93515333Y-128660000D03*
D14*
X64882000Y-96660000D03*
D15*
X64882000Y-99160000D03*
X64882000Y-101660000D03*
D16*
X94142000Y-107541000D03*
D17*
X94142000Y-110081000D03*
X94142000Y-112621000D03*
X94142000Y-115161000D03*
X94142000Y-117701000D03*
D16*
X170480000Y-82100000D03*
D17*
X173020000Y-82100000D03*
X175560000Y-82100000D03*
X178100000Y-82100000D03*
X180640000Y-82100000D03*
X183180000Y-82100000D03*
X185720000Y-82100000D03*
X188260000Y-82100000D03*
X190800000Y-82100000D03*
X193340000Y-82100000D03*
X195880000Y-82100000D03*
X198420000Y-82100000D03*
X200960000Y-82100000D03*
X203500000Y-82100000D03*
X206040000Y-82100000D03*
X208580000Y-82100000D03*
X211120000Y-82100000D03*
X213660000Y-82100000D03*
X216200000Y-82100000D03*
X218740000Y-82100000D03*
D16*
X106842000Y-107486000D03*
D17*
X106842000Y-110026000D03*
X106842000Y-112566000D03*
X106842000Y-115106000D03*
X106842000Y-117646000D03*
D18*
X102238666Y-128660000D03*
D19*
X107318666Y-128660000D03*
D14*
X64882000Y-122433332D03*
D15*
X64882000Y-124933332D03*
X64882000Y-127433332D03*
D16*
X111922000Y-107486000D03*
D17*
X111922000Y-110026000D03*
X111922000Y-112566000D03*
X111922000Y-115106000D03*
X111922000Y-117646000D03*
D16*
X287180250Y-99812000D03*
D17*
X289720250Y-99812000D03*
X292260250Y-99812000D03*
X294800250Y-99812000D03*
X297340250Y-99812000D03*
X299880250Y-99812000D03*
X302420250Y-99812000D03*
X304960250Y-99812000D03*
X307500250Y-99812000D03*
X310040250Y-99812000D03*
X312580250Y-99812000D03*
X315120250Y-99812000D03*
X317660250Y-99812000D03*
X320200250Y-99812000D03*
X322740250Y-99812000D03*
X325280250Y-99812000D03*
X327820250Y-99812000D03*
X330360250Y-99812000D03*
X332900250Y-99812000D03*
X335440250Y-99812000D03*
D16*
X76362000Y-80430000D03*
D17*
X78902000Y-80430000D03*
X81442000Y-80430000D03*
X83982000Y-80430000D03*
X86522000Y-80430000D03*
X89062000Y-80430000D03*
X91602000Y-80430000D03*
X94142000Y-80430000D03*
X96682000Y-80430000D03*
X99222000Y-80430000D03*
X101762000Y-80430000D03*
X104302000Y-80430000D03*
X106842000Y-80430000D03*
X109382000Y-80430000D03*
X111922000Y-80430000D03*
X114462000Y-80430000D03*
X117002000Y-80430000D03*
X119542000Y-80430000D03*
X122082000Y-80430000D03*
X124622000Y-80430000D03*
D10*
X212111425Y-109220000D03*
D11*
X214611425Y-109220000D03*
X217111425Y-109220000D03*
X219611425Y-109220000D03*
D16*
X73822000Y-107486000D03*
D17*
X73822000Y-110026000D03*
X73822000Y-112566000D03*
X73822000Y-115106000D03*
X73822000Y-117646000D03*
D10*
X239520000Y-109220000D03*
D11*
X242020000Y-109220000D03*
X244520000Y-109220000D03*
X247020000Y-109220000D03*
D20*
X152410000Y-74850000D02*
X152480000Y-74850000D01*
X264530250Y-110960250D02*
X264530250Y-91929500D01*
D21*
X63372000Y-101660000D02*
X64882000Y-101660000D01*
X94142000Y-110081000D02*
X86522000Y-110081000D01*
X235584285Y-105284285D02*
X221879995Y-105284285D01*
D20*
X280234917Y-102473333D02*
X276957750Y-99196166D01*
D21*
X208175710Y-105284285D02*
X194471425Y-105284285D01*
X152410000Y-100000000D02*
X152410000Y-100400000D01*
D20*
X286213334Y-111000000D02*
X286213334Y-108451750D01*
D21*
X64882000Y-127433332D02*
X62928668Y-127433332D01*
X62702000Y-140360000D02*
X62702000Y-127660000D01*
X96992000Y-104800000D02*
X96992000Y-108998081D01*
X63602000Y-77230000D02*
X62702000Y-78130000D01*
X84292000Y-104800000D02*
X84292000Y-109053081D01*
X173020000Y-80310000D02*
X173020000Y-82100000D01*
X66642000Y-77230000D02*
X63602000Y-77230000D01*
D20*
X264530250Y-91929500D02*
X276957750Y-79502000D01*
D21*
X66642000Y-77230000D02*
X77042000Y-77230000D01*
X111362000Y-110026000D02*
X111922000Y-110026000D01*
X180767140Y-105284285D02*
X167062855Y-105284285D01*
X157294285Y-109220000D02*
X157294285Y-105284285D01*
X62702000Y-100990000D02*
X63372000Y-101660000D01*
X239520000Y-109220000D02*
X235584285Y-105284285D01*
X289984250Y-80532000D02*
X289730250Y-80786000D01*
X152410000Y-79930000D02*
X152410000Y-100400000D01*
X66642000Y-77230000D02*
X66642000Y-79530000D01*
X70322000Y-104800000D02*
X70322000Y-109880000D01*
X70468000Y-110026000D02*
X73822000Y-110026000D01*
X62742000Y-140320000D02*
X62702000Y-140360000D01*
X172640000Y-79930000D02*
X173020000Y-80310000D01*
D20*
X301878250Y-102473333D02*
X280234917Y-102473333D01*
D21*
X212111425Y-109220000D02*
X208175710Y-105284285D01*
D20*
X286213334Y-108451750D02*
X280234917Y-102473333D01*
D21*
X84292000Y-109053081D02*
X85319919Y-110081000D01*
X63558666Y-114546666D02*
X62702000Y-113690000D01*
X152410000Y-79930000D02*
X172640000Y-79930000D01*
X157294285Y-105284285D02*
X152410000Y-100400000D01*
X276957750Y-79502000D02*
X288954250Y-79502000D01*
X96992000Y-108998081D02*
X98019919Y-110026000D01*
X289730250Y-80786000D02*
X289730250Y-82032000D01*
D20*
X307856667Y-108451750D02*
X301878250Y-102473333D01*
X307856667Y-111000000D02*
X307856667Y-108451750D01*
D21*
X62702000Y-127660000D02*
X62702000Y-113690000D01*
X109692000Y-108356000D02*
X111362000Y-110026000D01*
X288954250Y-79502000D02*
X289984250Y-80532000D01*
X85319919Y-110081000D02*
X86522000Y-110081000D01*
D20*
X264570000Y-111000000D02*
X264530250Y-110960250D01*
D21*
X62702000Y-113690000D02*
X62702000Y-100990000D01*
X62702000Y-127660000D02*
X62928668Y-127433332D01*
D20*
X329500000Y-111000000D02*
X329500000Y-108451750D01*
D21*
X70322000Y-83210000D02*
X70322000Y-104800000D01*
X225815710Y-109220000D02*
X221879995Y-105284285D01*
D20*
X329500000Y-108451750D02*
X323521583Y-102473333D01*
D21*
X81442000Y-110026000D02*
X73822000Y-110026000D01*
D20*
X276957750Y-99196166D02*
X276957750Y-79502000D01*
D21*
X64882000Y-140320000D02*
X62742000Y-140320000D01*
X119542000Y-110026000D02*
X111922000Y-110026000D01*
X106842000Y-110026000D02*
X99222000Y-110026000D01*
X96992000Y-104800000D02*
X109692000Y-104800000D01*
X70322000Y-109880000D02*
X70468000Y-110026000D01*
X198407140Y-109220000D02*
X194471425Y-105284285D01*
X84292000Y-104800000D02*
X96992000Y-104800000D01*
X77042000Y-77230000D02*
X78902000Y-79090000D01*
X109692000Y-104800000D02*
X109692000Y-108356000D01*
D20*
X152410000Y-82790000D02*
X152410000Y-79930000D01*
D21*
X170998570Y-109220000D02*
X167062855Y-105284285D01*
X64882000Y-114546666D02*
X63558666Y-114546666D01*
X194471425Y-105284285D02*
X180767140Y-105284285D01*
X66642000Y-79530000D02*
X70322000Y-83210000D01*
X221879995Y-105284285D02*
X208175710Y-105284285D01*
X62702000Y-78130000D02*
X62702000Y-100990000D01*
X152410000Y-100400000D02*
X143590000Y-109220000D01*
X143510000Y-109640000D02*
X143500000Y-109650000D01*
D20*
X323521583Y-102473333D02*
X301878250Y-102473333D01*
D21*
X70322000Y-104800000D02*
X84292000Y-104800000D01*
X78902000Y-79090000D02*
X78902000Y-80430000D01*
X98019919Y-110026000D02*
X99222000Y-110026000D01*
X167062855Y-105284285D02*
X157294285Y-105284285D01*
X184702855Y-109220000D02*
X180767140Y-105284285D01*
X81442000Y-112566000D02*
X74632000Y-119376000D01*
X74632000Y-119376000D02*
X74632000Y-128660000D01*
X79712000Y-128660000D02*
X79712000Y-116836000D01*
X79712000Y-116836000D02*
X81442000Y-115106000D01*
X88435333Y-118327667D02*
X94142000Y-112621000D01*
X88435333Y-128660000D02*
X88435333Y-118327667D01*
X95692000Y-116711000D02*
X95692000Y-126483333D01*
X95692000Y-126483333D02*
X93515333Y-128660000D01*
X94142000Y-115161000D02*
X94142000Y-115270000D01*
X94142000Y-115161000D02*
X95692000Y-116711000D01*
X102238666Y-117169334D02*
X106842000Y-112566000D01*
X102238666Y-128660000D02*
X102238666Y-117169334D01*
X108392000Y-127586666D02*
X107318666Y-128660000D01*
X106842000Y-115106000D02*
X108392000Y-116656000D01*
X108392000Y-116656000D02*
X108392000Y-127586666D01*
X116042000Y-116066000D02*
X116042000Y-128660000D01*
X119542000Y-112566000D02*
X116042000Y-116066000D01*
X119542000Y-115453968D02*
X121122000Y-117033968D01*
X119542000Y-115106000D02*
X119542000Y-115453968D01*
X121122000Y-117033968D02*
X121122000Y-128660000D01*
M02*
