G04 #@! TF.GenerationSoftware,KiCad,Pcbnew,7.0.2*
G04 #@! TF.CreationDate,2023-11-30T17:18:32+01:00*
G04 #@! TF.ProjectId,mhk,6d686b2e-6b69-4636-9164-5f7063625858,rev?*
G04 #@! TF.SameCoordinates,Original*
G04 #@! TF.FileFunction,Copper,L2,Inr*
G04 #@! TF.FilePolarity,Positive*
%FSLAX46Y46*%
G04 Gerber Fmt 4.6, Leading zero omitted, Abs format (unit mm)*
G04 Created by KiCad (PCBNEW 7.0.2) date 2023-11-30 17:18:32*
%MOMM*%
%LPD*%
G01*
G04 APERTURE LIST*
G04 Aperture macros list*
%AMRoundRect*
0 Rectangle with rounded corners*
0 $1 Rounding radius*
0 $2 $3 $4 $5 $6 $7 $8 $9 X,Y pos of 4 corners*
0 Add a 4 corners polygon primitive as box body*
4,1,4,$2,$3,$4,$5,$6,$7,$8,$9,$2,$3,0*
0 Add four circle primitives for the rounded corners*
1,1,$1+$1,$2,$3*
1,1,$1+$1,$4,$5*
1,1,$1+$1,$6,$7*
1,1,$1+$1,$8,$9*
0 Add four rect primitives between the rounded corners*
20,1,$1+$1,$2,$3,$4,$5,0*
20,1,$1+$1,$4,$5,$6,$7,0*
20,1,$1+$1,$6,$7,$8,$9,0*
20,1,$1+$1,$8,$9,$2,$3,0*%
G04 Aperture macros list end*
G04 #@! TA.AperFunction,ComponentPad*
%ADD10RoundRect,0.250000X-0.600000X-0.725000X0.600000X-0.725000X0.600000X0.725000X-0.600000X0.725000X0*%
G04 #@! TD*
G04 #@! TA.AperFunction,ComponentPad*
%ADD11O,1.700000X1.950000*%
G04 #@! TD*
G04 #@! TA.AperFunction,ComponentPad*
%ADD12RoundRect,0.249999X-1.550001X0.790001X-1.550001X-0.790001X1.550001X-0.790001X1.550001X0.790001X0*%
G04 #@! TD*
G04 #@! TA.AperFunction,ComponentPad*
%ADD13O,3.600000X2.080000*%
G04 #@! TD*
G04 #@! TA.AperFunction,ComponentPad*
%ADD14RoundRect,0.250000X-0.725000X0.600000X-0.725000X-0.600000X0.725000X-0.600000X0.725000X0.600000X0*%
G04 #@! TD*
G04 #@! TA.AperFunction,ComponentPad*
%ADD15O,1.950000X1.700000*%
G04 #@! TD*
G04 #@! TA.AperFunction,ComponentPad*
%ADD16R,1.700000X1.700000*%
G04 #@! TD*
G04 #@! TA.AperFunction,ComponentPad*
%ADD17O,1.700000X1.700000*%
G04 #@! TD*
G04 #@! TA.AperFunction,ComponentPad*
%ADD18RoundRect,0.249999X-0.790001X-1.550001X0.790001X-1.550001X0.790001X1.550001X-0.790001X1.550001X0*%
G04 #@! TD*
G04 #@! TA.AperFunction,ComponentPad*
%ADD19O,2.080000X3.600000*%
G04 #@! TD*
G04 #@! TA.AperFunction,Conductor*
%ADD20C,1.000000*%
G04 #@! TD*
G04 APERTURE END LIST*
D10*
X157294285Y-109220000D03*
D11*
X159794285Y-109220000D03*
X162294285Y-109220000D03*
X164794285Y-109220000D03*
D10*
X184702855Y-109220000D03*
D11*
X187202855Y-109220000D03*
X189702855Y-109220000D03*
X192202855Y-109220000D03*
D10*
X170998570Y-109220000D03*
D11*
X173498570Y-109220000D03*
X175998570Y-109220000D03*
X178498570Y-109220000D03*
D10*
X264570000Y-111000000D03*
D11*
X267070000Y-111000000D03*
X269570000Y-111000000D03*
D12*
X152410000Y-74850000D03*
D13*
X152410000Y-79930000D03*
D14*
X64882000Y-135320000D03*
D15*
X64882000Y-137820000D03*
X64882000Y-140320000D03*
D16*
X81442000Y-107486000D03*
D17*
X81442000Y-110026000D03*
X81442000Y-112566000D03*
X81442000Y-115106000D03*
X81442000Y-117646000D03*
D10*
X329500000Y-111000000D03*
D11*
X332000000Y-111000000D03*
X334500000Y-111000000D03*
D18*
X74632000Y-128660000D03*
D19*
X79712000Y-128660000D03*
D10*
X143590000Y-109220000D03*
D11*
X146090000Y-109220000D03*
X148590000Y-109220000D03*
X151090000Y-109220000D03*
D16*
X99222000Y-107486000D03*
D17*
X99222000Y-110026000D03*
X99222000Y-112566000D03*
X99222000Y-115106000D03*
X99222000Y-117646000D03*
D16*
X119542000Y-107486000D03*
D17*
X119542000Y-110026000D03*
X119542000Y-112566000D03*
X119542000Y-115106000D03*
X119542000Y-117646000D03*
D16*
X76362000Y-98210000D03*
D17*
X78902000Y-98210000D03*
X81442000Y-98210000D03*
X83982000Y-98210000D03*
X86522000Y-98210000D03*
X89062000Y-98210000D03*
X91602000Y-98210000D03*
X94142000Y-98210000D03*
X96682000Y-98210000D03*
X99222000Y-98210000D03*
X101762000Y-98210000D03*
X104302000Y-98210000D03*
X106842000Y-98210000D03*
X109382000Y-98210000D03*
X111922000Y-98210000D03*
X114462000Y-98210000D03*
X117002000Y-98210000D03*
X119542000Y-98210000D03*
X122082000Y-98210000D03*
X124622000Y-98210000D03*
D12*
X66642000Y-72150000D03*
D13*
X66642000Y-77230000D03*
D18*
X116042000Y-128660000D03*
D19*
X121122000Y-128660000D03*
D16*
X287190250Y-82032000D03*
D17*
X289730250Y-82032000D03*
X292270250Y-82032000D03*
X294810250Y-82032000D03*
X297350250Y-82032000D03*
X299890250Y-82032000D03*
X302430250Y-82032000D03*
X304970250Y-82032000D03*
X307510250Y-82032000D03*
X310050250Y-82032000D03*
X312590250Y-82032000D03*
X315130250Y-82032000D03*
X317670250Y-82032000D03*
X320210250Y-82032000D03*
X322750250Y-82032000D03*
X325290250Y-82032000D03*
X327830250Y-82032000D03*
X330370250Y-82032000D03*
X332910250Y-82032000D03*
X335450250Y-82032000D03*
D16*
X86522000Y-107541000D03*
D17*
X86522000Y-110081000D03*
X86522000Y-112621000D03*
X86522000Y-115161000D03*
X86522000Y-117701000D03*
D16*
X170480000Y-99880000D03*
D17*
X173020000Y-99880000D03*
X175560000Y-99880000D03*
X178100000Y-99880000D03*
X180640000Y-99880000D03*
X183180000Y-99880000D03*
X185720000Y-99880000D03*
X188260000Y-99880000D03*
X190800000Y-99880000D03*
X193340000Y-99880000D03*
X195880000Y-99880000D03*
X198420000Y-99880000D03*
X200960000Y-99880000D03*
X203500000Y-99880000D03*
X206040000Y-99880000D03*
X208580000Y-99880000D03*
X211120000Y-99880000D03*
X213660000Y-99880000D03*
X216200000Y-99880000D03*
X218740000Y-99880000D03*
D12*
X276957750Y-74422000D03*
D13*
X276957750Y-79502000D03*
D10*
X286213334Y-111000000D03*
D11*
X288713334Y-111000000D03*
X291213334Y-111000000D03*
D10*
X225815710Y-109220000D03*
D11*
X228315710Y-109220000D03*
X230815710Y-109220000D03*
X233315710Y-109220000D03*
D10*
X198407140Y-109220000D03*
D11*
X200907140Y-109220000D03*
X203407140Y-109220000D03*
X205907140Y-109220000D03*
D10*
X307856667Y-111000000D03*
D11*
X310356667Y-111000000D03*
X312856667Y-111000000D03*
D14*
X64882000Y-109546666D03*
D15*
X64882000Y-112046666D03*
X64882000Y-114546666D03*
D18*
X88435333Y-128660000D03*
D19*
X93515333Y-128660000D03*
D14*
X64882000Y-96660000D03*
D15*
X64882000Y-99160000D03*
X64882000Y-101660000D03*
D16*
X94142000Y-107541000D03*
D17*
X94142000Y-110081000D03*
X94142000Y-112621000D03*
X94142000Y-115161000D03*
X94142000Y-117701000D03*
D16*
X170480000Y-82100000D03*
D17*
X173020000Y-82100000D03*
X175560000Y-82100000D03*
X178100000Y-82100000D03*
X180640000Y-82100000D03*
X183180000Y-82100000D03*
X185720000Y-82100000D03*
X188260000Y-82100000D03*
X190800000Y-82100000D03*
X193340000Y-82100000D03*
X195880000Y-82100000D03*
X198420000Y-82100000D03*
X200960000Y-82100000D03*
X203500000Y-82100000D03*
X206040000Y-82100000D03*
X208580000Y-82100000D03*
X211120000Y-82100000D03*
X213660000Y-82100000D03*
X216200000Y-82100000D03*
X218740000Y-82100000D03*
D16*
X106842000Y-107486000D03*
D17*
X106842000Y-110026000D03*
X106842000Y-112566000D03*
X106842000Y-115106000D03*
X106842000Y-117646000D03*
D18*
X102238666Y-128660000D03*
D19*
X107318666Y-128660000D03*
D14*
X64882000Y-122433332D03*
D15*
X64882000Y-124933332D03*
X64882000Y-127433332D03*
D16*
X111922000Y-107486000D03*
D17*
X111922000Y-110026000D03*
X111922000Y-112566000D03*
X111922000Y-115106000D03*
X111922000Y-117646000D03*
D16*
X287180250Y-99812000D03*
D17*
X289720250Y-99812000D03*
X292260250Y-99812000D03*
X294800250Y-99812000D03*
X297340250Y-99812000D03*
X299880250Y-99812000D03*
X302420250Y-99812000D03*
X304960250Y-99812000D03*
X307500250Y-99812000D03*
X310040250Y-99812000D03*
X312580250Y-99812000D03*
X315120250Y-99812000D03*
X317660250Y-99812000D03*
X320200250Y-99812000D03*
X322740250Y-99812000D03*
X325280250Y-99812000D03*
X327820250Y-99812000D03*
X330360250Y-99812000D03*
X332900250Y-99812000D03*
X335440250Y-99812000D03*
D16*
X76362000Y-80430000D03*
D17*
X78902000Y-80430000D03*
X81442000Y-80430000D03*
X83982000Y-80430000D03*
X86522000Y-80430000D03*
X89062000Y-80430000D03*
X91602000Y-80430000D03*
X94142000Y-80430000D03*
X96682000Y-80430000D03*
X99222000Y-80430000D03*
X101762000Y-80430000D03*
X104302000Y-80430000D03*
X106842000Y-80430000D03*
X109382000Y-80430000D03*
X111922000Y-80430000D03*
X114462000Y-80430000D03*
X117002000Y-80430000D03*
X119542000Y-80430000D03*
X122082000Y-80430000D03*
X124622000Y-80430000D03*
D10*
X212111425Y-109220000D03*
D11*
X214611425Y-109220000D03*
X217111425Y-109220000D03*
X219611425Y-109220000D03*
D16*
X73822000Y-107486000D03*
D17*
X73822000Y-110026000D03*
X73822000Y-112566000D03*
X73822000Y-115106000D03*
X73822000Y-117646000D03*
D10*
X239520000Y-109220000D03*
D11*
X242020000Y-109220000D03*
X244520000Y-109220000D03*
X247020000Y-109220000D03*
D20*
X69052000Y-84480000D02*
X75232000Y-78300000D01*
X108454081Y-78300000D02*
X109382000Y-79227919D01*
X109382000Y-79227919D02*
X109382000Y-80430000D01*
X75232000Y-78300000D02*
X108454081Y-78300000D01*
X64882000Y-99160000D02*
X65050503Y-99160000D01*
X69052000Y-95158503D02*
X69052000Y-84480000D01*
X65050503Y-99160000D02*
X69052000Y-95158503D01*
X76672000Y-88290000D02*
X78784944Y-88290000D01*
X66607000Y-112046666D02*
X67782000Y-110871666D01*
X71592000Y-84480000D02*
X72862000Y-84480000D01*
X67782000Y-98450000D02*
X71592000Y-94640000D01*
X107872000Y-84480000D02*
X111922000Y-80430000D01*
X71592000Y-94640000D02*
X71592000Y-84480000D01*
X84292000Y-87020000D02*
X86832000Y-84480000D01*
X67782000Y-110871666D02*
X67782000Y-98450000D01*
X78784944Y-88290000D02*
X80054944Y-87020000D01*
X72862000Y-84480000D02*
X76672000Y-88290000D01*
X80054944Y-87020000D02*
X84292000Y-87020000D01*
X86832000Y-84480000D02*
X107872000Y-84480000D01*
X64882000Y-112046666D02*
X66607000Y-112046666D01*
X64882000Y-124933332D02*
X66607000Y-124933332D01*
X71592000Y-97180000D02*
X77942000Y-90830000D01*
X71592000Y-119948332D02*
X71592000Y-97180000D01*
X90712000Y-85680000D02*
X109212000Y-85680000D01*
X109212000Y-85680000D02*
X114462000Y-80430000D01*
X77942000Y-90830000D02*
X85562000Y-90830000D01*
X66607000Y-124933332D02*
X71592000Y-119948332D01*
X85562000Y-90830000D02*
X90712000Y-85680000D01*
X116950232Y-134010000D02*
X122392000Y-134010000D01*
X113140232Y-137820000D02*
X116950232Y-134010000D01*
X126172000Y-130230000D02*
X126172000Y-89600000D01*
X64882000Y-137820000D02*
X113140232Y-137820000D01*
X126172000Y-89600000D02*
X117002000Y-80430000D01*
X122392000Y-134010000D02*
X126172000Y-130230000D01*
X155430000Y-99880000D02*
X170480000Y-99880000D01*
X146090000Y-109220000D02*
X146090000Y-109095000D01*
X146090000Y-109220000D02*
X155430000Y-99880000D01*
X161469285Y-107545000D02*
X170435000Y-107545000D01*
X159794285Y-109220000D02*
X161469285Y-107545000D01*
X170435000Y-107545000D02*
X178100000Y-99880000D01*
X182838570Y-99880000D02*
X183180000Y-99880000D01*
X173498570Y-109220000D02*
X182838570Y-99880000D01*
X187202855Y-106017145D02*
X193340000Y-99880000D01*
X187202855Y-109220000D02*
X187202855Y-106017145D01*
X200907140Y-109220000D02*
X200907140Y-102472860D01*
X200907140Y-102472860D02*
X203500000Y-99880000D01*
X214611425Y-109220000D02*
X214611425Y-105911425D01*
X214611425Y-105911425D02*
X208580000Y-99880000D01*
X228315710Y-109051497D02*
X226809213Y-107545000D01*
X226809213Y-107545000D02*
X223865000Y-107545000D01*
X223865000Y-107545000D02*
X216200000Y-99880000D01*
X228315710Y-109220000D02*
X228315710Y-109051497D01*
X218595000Y-83820000D02*
X217920000Y-83820000D01*
X242020000Y-107245000D02*
X218595000Y-83820000D01*
X217920000Y-83820000D02*
X216200000Y-82100000D01*
X242020000Y-109220000D02*
X242020000Y-107245000D01*
X295790250Y-101362000D02*
X297340250Y-99812000D01*
X267070000Y-111000000D02*
X267070000Y-108372250D01*
X277180250Y-101362000D02*
X295790250Y-101362000D01*
X275630250Y-99812000D02*
X277180250Y-101362000D01*
X267070000Y-108372250D02*
X275630250Y-99812000D01*
X290388334Y-109325000D02*
X303155000Y-109325000D01*
X303155000Y-106697250D02*
X310040250Y-99812000D01*
X303155000Y-109325000D02*
X303155000Y-106697250D01*
X288713334Y-111000000D02*
X290388334Y-109325000D01*
X310356667Y-111000000D02*
X310356667Y-108372250D01*
X321190250Y-101362000D02*
X322740250Y-99812000D01*
X317366917Y-101362000D02*
X321190250Y-101362000D01*
X310356667Y-108372250D02*
X317366917Y-101362000D01*
X331960250Y-103292000D02*
X335440250Y-99812000D01*
X332000000Y-111000000D02*
X331960250Y-110960250D01*
X331960250Y-110960250D02*
X331960250Y-103292000D01*
M02*
