M48
; DRILL file {KiCad 7.0.2} date Thu Nov 30 17:18:46 2023
; FORMAT={-:-/ absolute / metric / decimal}
; #@! TF.CreationDate,2023-11-30T17:18:46+01:00
; #@! TF.GenerationSoftware,Kicad,Pcbnew,7.0.2
; #@! TF.FileFunction,Plated,1,4,PTH
FMAT,2
METRIC
; #@! TA.AperFunction,Plated,PTH,ComponentDrill
T1C0.950
; #@! TA.AperFunction,Plated,PTH,ComponentDrill
T2C1.000
; #@! TA.AperFunction,Plated,PTH,ComponentDrill
T3C1.400
%
G90
G05
T1
X64.882Y-96.66
X64.882Y-99.16
X64.882Y-101.66
X64.882Y-109.547
X64.882Y-112.047
X64.882Y-114.547
X64.882Y-122.433
X64.882Y-124.933
X64.882Y-127.433
X64.882Y-135.32
X64.882Y-137.82
X64.882Y-140.32
X143.59Y-109.22
X146.09Y-109.22
X148.59Y-109.22
X151.09Y-109.22
X157.294Y-109.22
X159.794Y-109.22
X162.294Y-109.22
X164.794Y-109.22
X170.999Y-109.22
X173.499Y-109.22
X175.999Y-109.22
X178.499Y-109.22
X184.703Y-109.22
X187.203Y-109.22
X189.703Y-109.22
X192.203Y-109.22
X198.407Y-109.22
X200.907Y-109.22
X203.407Y-109.22
X205.907Y-109.22
X212.111Y-109.22
X214.611Y-109.22
X217.111Y-109.22
X219.611Y-109.22
X225.816Y-109.22
X228.316Y-109.22
X230.816Y-109.22
X233.316Y-109.22
X239.52Y-109.22
X242.02Y-109.22
X244.52Y-109.22
X247.02Y-109.22
X264.57Y-111.0
X267.07Y-111.0
X269.57Y-111.0
X286.213Y-111.0
X288.713Y-111.0
X291.213Y-111.0
X307.857Y-111.0
X310.357Y-111.0
X312.857Y-111.0
X329.5Y-111.0
X332.0Y-111.0
X334.5Y-111.0
T2
X73.822Y-107.486
X73.822Y-110.026
X73.822Y-112.566
X73.822Y-115.106
X73.822Y-117.646
X76.362Y-80.43
X76.362Y-98.21
X78.902Y-80.43
X78.902Y-98.21
X81.442Y-80.43
X81.442Y-98.21
X81.442Y-107.486
X81.442Y-110.026
X81.442Y-112.566
X81.442Y-115.106
X81.442Y-117.646
X83.982Y-80.43
X83.982Y-98.21
X86.522Y-80.43
X86.522Y-98.21
X86.522Y-107.541
X86.522Y-110.081
X86.522Y-112.621
X86.522Y-115.161
X86.522Y-117.701
X89.062Y-80.43
X89.062Y-98.21
X91.602Y-80.43
X91.602Y-98.21
X94.142Y-80.43
X94.142Y-98.21
X94.142Y-107.541
X94.142Y-110.081
X94.142Y-112.621
X94.142Y-115.161
X94.142Y-117.701
X96.682Y-80.43
X96.682Y-98.21
X99.222Y-80.43
X99.222Y-98.21
X99.222Y-107.486
X99.222Y-110.026
X99.222Y-112.566
X99.222Y-115.106
X99.222Y-117.646
X101.762Y-80.43
X101.762Y-98.21
X104.302Y-80.43
X104.302Y-98.21
X106.842Y-80.43
X106.842Y-98.21
X106.842Y-107.486
X106.842Y-110.026
X106.842Y-112.566
X106.842Y-115.106
X106.842Y-117.646
X109.382Y-80.43
X109.382Y-98.21
X111.922Y-80.43
X111.922Y-98.21
X111.922Y-107.486
X111.922Y-110.026
X111.922Y-112.566
X111.922Y-115.106
X111.922Y-117.646
X114.462Y-80.43
X114.462Y-98.21
X117.002Y-80.43
X117.002Y-98.21
X119.542Y-80.43
X119.542Y-98.21
X119.542Y-107.486
X119.542Y-110.026
X119.542Y-112.566
X119.542Y-115.106
X119.542Y-117.646
X122.082Y-80.43
X122.082Y-98.21
X124.622Y-80.43
X124.622Y-98.21
X170.48Y-82.1
X170.48Y-99.88
X173.02Y-82.1
X173.02Y-99.88
X175.56Y-82.1
X175.56Y-99.88
X178.1Y-82.1
X178.1Y-99.88
X180.64Y-82.1
X180.64Y-99.88
X183.18Y-82.1
X183.18Y-99.88
X185.72Y-82.1
X185.72Y-99.88
X188.26Y-82.1
X188.26Y-99.88
X190.8Y-82.1
X190.8Y-99.88
X193.34Y-82.1
X193.34Y-99.88
X195.88Y-82.1
X195.88Y-99.88
X198.42Y-82.1
X198.42Y-99.88
X200.96Y-82.1
X200.96Y-99.88
X203.5Y-82.1
X203.5Y-99.88
X206.04Y-82.1
X206.04Y-99.88
X208.58Y-82.1
X208.58Y-99.88
X211.12Y-82.1
X211.12Y-99.88
X213.66Y-82.1
X213.66Y-99.88
X216.2Y-82.1
X216.2Y-99.88
X218.74Y-82.1
X218.74Y-99.88
X287.18Y-99.812
X287.19Y-82.032
X289.72Y-99.812
X289.73Y-82.032
X292.26Y-99.812
X292.27Y-82.032
X294.8Y-99.812
X294.81Y-82.032
X297.34Y-99.812
X297.35Y-82.032
X299.88Y-99.812
X299.89Y-82.032
X302.42Y-99.812
X302.43Y-82.032
X304.96Y-99.812
X304.97Y-82.032
X307.5Y-99.812
X307.51Y-82.032
X310.04Y-99.812
X310.05Y-82.032
X312.58Y-99.812
X312.59Y-82.032
X315.12Y-99.812
X315.13Y-82.032
X317.66Y-99.812
X317.67Y-82.032
X320.2Y-99.812
X320.21Y-82.032
X322.74Y-99.812
X322.75Y-82.032
X325.28Y-99.812
X325.29Y-82.032
X327.82Y-99.812
X327.83Y-82.032
X330.36Y-99.812
X330.37Y-82.032
X332.9Y-99.812
X332.91Y-82.032
X335.44Y-99.812
X335.45Y-82.032
T3
X66.642Y-72.15
X66.642Y-77.23
X74.632Y-128.66
X79.712Y-128.66
X88.435Y-128.66
X93.515Y-128.66
X102.239Y-128.66
X107.319Y-128.66
X116.042Y-128.66
X121.122Y-128.66
X152.41Y-74.85
X152.41Y-79.93
X276.958Y-74.422
X276.958Y-79.502
T0
M30
