<?xml version="1.0" encoding="UTF-8" standalone="no"?>
<!-- Created with Inkscape (http://www.inkscape.org/) -->

<svg
   width="1300mm"
   height="1300mm"
   viewBox="0 0 1300 1300"
   version="1.1"
   id="svg5"
   inkscape:version="1.2.2 (732a01da63, 2022-12-09)"
   sodipodi:docname="bottom.svg"
   xmlns:inkscape="http://www.inkscape.org/namespaces/inkscape"
   xmlns:sodipodi="http://sodipodi.sourceforge.net/DTD/sodipodi-0.dtd"
   xmlns="http://www.w3.org/2000/svg"
   xmlns:svg="http://www.w3.org/2000/svg">
  <sodipodi:namedview
     id="namedview7"
     pagecolor="#505050"
     bordercolor="#eeeeee"
     borderopacity="1"
     inkscape:showpageshadow="0"
     inkscape:pageopacity="0"
     inkscape:pagecheckerboard="0"
     inkscape:deskcolor="#505050"
     inkscape:document-units="mm"
     showgrid="false"
     showguides="true"
     inkscape:zoom="0.0625"
     inkscape:cx="-1640"
     inkscape:cy="1728"
     inkscape:window-width="1920"
     inkscape:window-height="1057"
     inkscape:window-x="-8"
     inkscape:window-y="-8"
     inkscape:window-maximized="1"
     inkscape:current-layer="layer2" />
  <defs
     id="defs2" />
  <g
     inkscape:label="drill-4.2"
     inkscape:groupmode="layer"
     id="layer1"
     style="display:inline">
    <path
       id="path4982"
       style="fill:none;stroke-width:0.374153;stroke-linecap:round;stroke-linejoin:round"
       d="m 155.25002,-16.35577 a 2.0999999,2.0999999 0 0 1 -2.1,2.1 2.0999999,2.0999999 0 0 1 -2.1,-2.1 2.0999999,2.0999999 0 0 1 2.1,-2.1 2.0999999,2.0999999 0 0 1 2.1,2.1 z" />
    <path
       id="circle4984"
       style="fill:none;stroke-width:0.374153;stroke-linecap:round;stroke-linejoin:round"
       d="m 155.25002,16.35577 a 2.0999999,2.0999999 0 0 1 -2.1,2.1 2.0999999,2.0999999 0 0 1 -2.1,-2.1 2.0999999,2.0999999 0 0 1 2.1,-2.1 2.0999999,2.0999999 0 0 1 2.1,2.1 z" />
    <path
       id="circle4986"
       style="fill:none;stroke-width:0.374153;stroke-linecap:round;stroke-linejoin:round"
       d="m 206.47598,-16.35577 a 2.0999999,2.0999999 0 0 1 -2.1,2.1 2.0999999,2.0999999 0 0 1 -2.1,-2.1 2.0999999,2.0999999 0 0 1 2.1,-2.1 2.0999999,2.0999999 0 0 1 2.1,2.1 z" />
    <path
       id="circle4988"
       style="fill:none;stroke-width:0.374153;stroke-linecap:round;stroke-linejoin:round"
       d="m 206.47598,16.35577 a 2.0999999,2.0999999 0 0 1 -2.1,2.1 2.0999999,2.0999999 0 0 1 -2.1,-2.1 2.0999999,2.0999999 0 0 1 2.1,-2.1 2.0999999,2.0999999 0 0 1 2.1,2.1 z" />
    <path
       id="circle4996"
       style="fill:none;stroke-width:0.374153;stroke-linecap:round;stroke-linejoin:round"
       d="m -63.46087,142.62856 a 2.0999999,2.0999999 0 0 1 -0.76866,-2.86865 2.0999999,2.0999999 0 0 1 2.86866,-0.76865 2.0999999,2.0999999 0 0 1 0.76865,2.86865 2.0999999,2.0999999 0 0 1 -2.86865,0.76865 z" />
    <path
       id="circle4998"
       style="fill:none;stroke-width:0.374153;stroke-linecap:round;stroke-linejoin:round"
       d="m -91.7899,126.27279 a 2.0999999,2.0999999 0 0 1 -0.76865,-2.86865 2.0999999,2.0999999 0 0 1 2.86865,-0.76865 2.0999999,2.0999999 0 0 1 0.76866,2.86865 2.0999999,2.0999999 0 0 1 -2.86866,0.76865 z" />
    <path
       id="circle5000"
       style="fill:none;stroke-width:0.374153;stroke-linecap:round;stroke-linejoin:round"
       d="m -89.07385,186.99155 a 2.0999999,2.0999999 0 0 1 -0.76866,-2.86866 2.0999999,2.0999999 0 0 1 2.86866,-0.76865 2.0999999,2.0999999 0 0 1 0.76865,2.86865 2.0999999,2.0999999 0 0 1 -2.86865,0.76866 z" />
    <path
       id="circle5002"
       style="fill:none;stroke-width:0.374153;stroke-linecap:round;stroke-linejoin:round"
       d="m -117.40288,170.63578 a 2.0999999,2.0999999 0 0 1 -0.76865,-2.86866 2.0999999,2.0999999 0 0 1 2.86865,-0.76865 2.0999999,2.0999999 0 0 1 0.76866,2.86865 2.0999999,2.0999999 0 0 1 -2.86866,0.76866 z" />
    <path
       id="circle5006"
       style="fill:none;stroke-width:0.374153;stroke-linecap:round;stroke-linejoin:round"
       d="m -91.7899,-126.27279 a 2.0999999,2.0999999 0 0 1 2.86866,0.76865 2.0999999,2.0999999 0 0 1 -0.76866,2.86865 2.0999999,2.0999999 0 0 1 -2.86865,-0.76865 2.0999999,2.0999999 0 0 1 0.76865,-2.86865 z" />
    <path
       id="circle5008"
       style="fill:none;stroke-width:0.374153;stroke-linecap:round;stroke-linejoin:round"
       d="m -63.46087,-142.62856 a 2.0999999,2.0999999 0 0 1 2.86865,0.76865 2.0999999,2.0999999 0 0 1 -0.76865,2.86865 2.0999999,2.0999999 0 0 1 -2.86866,-0.76865 2.0999999,2.0999999 0 0 1 0.76866,-2.86865 z" />
    <path
       id="circle5010"
       style="fill:none;stroke-width:0.374153;stroke-linecap:round;stroke-linejoin:round"
       d="m -117.40288,-170.63578 a 2.0999999,2.0999999 0 0 1 2.86866,0.76866 2.0999999,2.0999999 0 0 1 -0.76866,2.86865 2.0999999,2.0999999 0 0 1 -2.86865,-0.76865 2.0999999,2.0999999 0 0 1 0.76865,-2.86866 z" />
    <path
       id="circle5012"
       style="fill:none;stroke-width:0.374153;stroke-linecap:round;stroke-linejoin:round"
       d="m -89.07385,-186.99155 a 2.0999999,2.0999999 0 0 1 2.86865,0.76866 2.0999999,2.0999999 0 0 1 -0.76865,2.86865 2.0999999,2.0999999 0 0 1 -2.86866,-0.76865 2.0999999,2.0999999 0 0 1 0.76866,-2.86866 z" />
    <path
       id="circle5035"
       style="fill:none;stroke-width:0.374153;stroke-linecap:round;stroke-linejoin:round"
       d="m 263.258,-16.35577 a 2.0999999,2.0999999 0 0 1 -2.1,2.1 2.0999999,2.0999999 0 0 1 -2.1,-2.1 2.0999999,2.0999999 0 0 1 2.1,-2.1 2.0999999,2.0999999 0 0 1 2.1,2.1 z" />
    <path
       id="circle5037"
       style="fill:none;stroke-width:0.374153;stroke-linecap:round;stroke-linejoin:round"
       d="m 263.258,16.35577 a 2.0999999,2.0999999 0 0 1 -2.1,2.1 2.0999999,2.0999999 0 0 1 -2.1,-2.1 2.0999999,2.0999999 0 0 1 2.1,-2.1 2.0999999,2.0999999 0 0 1 2.1,2.1 z" />
    <path
       id="circle5039"
       style="fill:none;stroke-width:0.374153;stroke-linecap:round;stroke-linejoin:round"
       d="m 314.48396,-16.35577 a 2.0999999,2.0999999 0 0 1 -2.1,2.1 2.0999999,2.0999999 0 0 1 -2.1,-2.1 2.0999999,2.0999999 0 0 1 2.1,-2.1 2.0999999,2.0999999 0 0 1 2.1,2.1 z" />
    <path
       id="circle5041"
       style="fill:none;stroke-width:0.374153;stroke-linecap:round;stroke-linejoin:round"
       d="m 314.48396,16.35577 a 2.0999999,2.0999999 0 0 1 -2.1,2.1 2.0999999,2.0999999 0 0 1 -2.1,-2.1 2.0999999,2.0999999 0 0 1 2.1,-2.1 2.0999999,2.0999999 0 0 1 2.1,2.1 z" />
    <path
       id="circle5045"
       style="fill:none;stroke-width:0.374153;stroke-linecap:round;stroke-linejoin:round"
       d="m -117.46486,236.16622 a 2.0999999,2.0999999 0 0 1 -0.76865,-2.86865 2.0999999,2.0999999 0 0 1 2.86865,-0.76866 2.0999999,2.0999999 0 0 1 0.76865,2.86866 2.0999999,2.0999999 0 0 1 -2.86865,0.76865 z" />
    <path
       id="circle5047"
       style="fill:none;stroke-width:0.374153;stroke-linecap:round;stroke-linejoin:round"
       d="m -145.79389,219.81045 a 2.0999999,2.0999999 0 0 1 -0.76865,-2.86865 2.0999999,2.0999999 0 0 1 2.86865,-0.76866 2.0999999,2.0999999 0 0 1 0.76866,2.86866 2.0999999,2.0999999 0 0 1 -2.86866,0.76865 z" />
    <path
       id="circle5049"
       style="fill:none;stroke-width:0.374153;stroke-linecap:round;stroke-linejoin:round"
       d="m -143.07784,280.5292 a 2.0999999,2.0999999 0 0 1 -0.76865,-2.86865 2.0999999,2.0999999 0 0 1 2.86865,-0.76865 2.0999999,2.0999999 0 0 1 0.76865,2.86865 2.0999999,2.0999999 0 0 1 -2.86865,0.76865 z" />
    <path
       id="circle5051"
       style="fill:none;stroke-width:0.374153;stroke-linecap:round;stroke-linejoin:round"
       d="m -171.40687,264.17343 a 2.0999999,2.0999999 0 0 1 -0.76865,-2.86865 2.0999999,2.0999999 0 0 1 2.86865,-0.76865 2.0999999,2.0999999 0 0 1 0.76866,2.86865 2.0999999,2.0999999 0 0 1 -2.86866,0.76865 z" />
    <path
       id="circle5055"
       style="fill:none;stroke-width:0.374153;stroke-linecap:round;stroke-linejoin:round"
       d="m -145.79389,-219.81044 a 2.0999999,2.0999999 0 0 1 2.86865,0.76866 2.0999999,2.0999999 0 0 1 -0.76865,2.86865 2.0999999,2.0999999 0 0 1 -2.86866,-0.76865 2.0999999,2.0999999 0 0 1 0.76866,-2.86866 z" />
    <path
       id="circle5057"
       style="fill:none;stroke-width:0.374153;stroke-linecap:round;stroke-linejoin:round"
       d="m -117.46487,-236.16621 a 2.0999999,2.0999999 0 0 1 2.86865,0.76866 2.0999999,2.0999999 0 0 1 -0.76865,2.86865 2.0999999,2.0999999 0 0 1 -2.86865,-0.76865 2.0999999,2.0999999 0 0 1 0.76865,-2.86866 z" />
    <path
       id="circle5059"
       style="fill:none;stroke-width:0.374153;stroke-linecap:round;stroke-linejoin:round"
       d="m -171.40687,-264.17342 a 2.0999999,2.0999999 0 0 1 2.86865,0.76866 2.0999999,2.0999999 0 0 1 -0.76865,2.86865 2.0999999,2.0999999 0 0 1 -2.86866,-0.76865 2.0999999,2.0999999 0 0 1 0.76866,-2.86866 z" />
    <path
       id="circle5061"
       style="fill:none;stroke-width:0.374153;stroke-linecap:round;stroke-linejoin:round"
       d="m -143.07785,-280.52919 a 2.0999999,2.0999999 0 0 1 2.86865,0.76866 2.0999999,2.0999999 0 0 1 -0.76865,2.86865 2.0999999,2.0999999 0 0 1 -2.86865,-0.76865 2.0999999,2.0999999 0 0 1 0.76865,-2.86866 z" />
    <path
       id="circle5065"
       style="fill:none;stroke-width:0.374153;stroke-linecap:round;stroke-linejoin:round"
       d="m 380.045,-16.35577 a 2.0999999,2.0999999 0 0 1 -2.1,2.1 2.0999999,2.0999999 0 0 1 -2.1,-2.1 2.0999999,2.0999999 0 0 1 2.1,-2.1 2.0999999,2.0999999 0 0 1 2.1,2.1 z" />
    <path
       id="circle5067"
       style="fill:none;stroke-width:0.374153;stroke-linecap:round;stroke-linejoin:round"
       d="m 380.045,16.35577 a 2.0999999,2.0999999 0 0 1 -2.1,2.1 2.0999999,2.0999999 0 0 1 -2.1,-2.1 2.0999999,2.0999999 0 0 1 2.1,-2.1 2.0999999,2.0999999 0 0 1 2.1,2.1 z" />
    <path
       id="circle5069"
       style="fill:none;stroke-width:0.374153;stroke-linecap:round;stroke-linejoin:round"
       d="m 431.2709,-16.35577 a 2.0999999,2.0999999 0 0 1 -2.1,2.1 2.0999999,2.0999999 0 0 1 -2.1,-2.1 2.0999999,2.0999999 0 0 1 2.1,-2.1 2.0999999,2.0999999 0 0 1 2.1,2.1 z" />
    <path
       id="circle5071"
       style="fill:none;stroke-width:0.374153;stroke-linecap:round;stroke-linejoin:round"
       d="m 431.2709,16.35577 a 2.0999999,2.0999999 0 0 1 -2.1,2.1 2.0999999,2.0999999 0 0 1 -2.1,-2.1 2.0999999,2.0999999 0 0 1 2.1,-2.1 2.0999999,2.0999999 0 0 1 2.1,2.1 z" />
    <path
       id="circle5075"
       style="fill:none;stroke-width:0.374153;stroke-linecap:round;stroke-linejoin:round"
       d="m 132.99561,356.3901 a 2.0999999,2.0999999 0 0 1 -2.64615,-1.3483 2.0999999,2.0999999 0 0 1 1.34828,-2.6462 2.0999999,2.0999999 0 0 1 2.64616,1.3483 2.0999999,2.0999999 0 0 1 -1.34829,2.6462 z" />
    <path
       id="circle5077"
       style="fill:none;stroke-width:0.374153;stroke-linecap:round;stroke-linejoin:round"
       d="m 101.88509,366.4985 a 2.0999999,2.0999999 0 0 1 -2.64615,-1.3483 2.0999999,2.0999999 0 0 1 1.34828,-2.6462 2.0999999,2.0999999 0 0 1 2.64615,1.3483 2.0999999,2.0999999 0 0 1 -1.34828,2.6462 z" />
    <path
       id="circle5079"
       style="fill:none;stroke-width:0.374153;stroke-linecap:round;stroke-linejoin:round"
       d="m 148.8253,405.1088 a 2.0999999,2.0999999 0 0 1 -2.64615,-1.3482 2.0999999,2.0999999 0 0 1 1.34828,-2.6462 2.0999999,2.0999999 0 0 1 2.64616,1.3483 2.0999999,2.0999999 0 0 1 -1.34829,2.6461 z" />
    <path
       id="circle5081"
       style="fill:none;stroke-width:0.374153;stroke-linecap:round;stroke-linejoin:round"
       d="m 117.71478,415.2173 a 2.0999999,2.0999999 0 0 1 -2.64615,-1.3483 2.0999999,2.0999999 0 0 1 1.34828,-2.6462 2.0999999,2.0999999 0 0 1 2.64615,1.3483 2.0999999,2.0999999 0 0 1 -1.34828,2.6462 z" />
    <path
       id="circle5085"
       style="fill:none;stroke-width:0.374153;stroke-linecap:round;stroke-linejoin:round"
       d="m -297.84919,236.61693 a 2.0999999,2.0999999 0 0 1 0.46459,-2.93329 2.0999999,2.0999999 0 0 1 2.93328,0.46459 2.0999999,2.0999999 0 0 1 -0.46458,2.93328 2.0999999,2.0999999 0 0 1 -2.93329,-0.46458 z" />
    <path
       id="circle5087"
       style="fill:none;stroke-width:0.374153;stroke-linecap:round;stroke-linejoin:round"
       d="m -317.07655,210.15274 a 2.0999999,2.0999999 0 0 1 0.46459,-2.93329 2.0999999,2.0999999 0 0 1 2.93328,0.46459 2.0999999,2.0999999 0 0 1 -0.46458,2.93328 2.0999999,2.0999999 0 0 1 -2.93329,-0.46458 z" />
    <path
       id="circle5089"
       style="fill:none;stroke-width:0.374153;stroke-linecap:round;stroke-linejoin:round"
       d="m -339.29186,266.72679 a 2.0999999,2.0999999 0 0 1 0.46459,-2.93328 2.0999999,2.0999999 0 0 1 2.93328,0.46458 2.0999999,2.0999999 0 0 1 -0.46459,2.93329 2.0999999,2.0999999 0 0 1 -2.93328,-0.46459 z" />
    <path
       id="circle5091"
       style="fill:none;stroke-width:0.374153;stroke-linecap:round;stroke-linejoin:round"
       d="m -358.51922,240.2626 a 2.0999999,2.0999999 0 0 1 0.46459,-2.93329 2.0999999,2.0999999 0 0 1 2.93328,0.46459 2.0999999,2.0999999 0 0 1 -0.46459,2.93329 2.0999999,2.0999999 0 0 1 -2.93328,-0.46459 z" />
    <path
       id="circle5095"
       style="fill:none;stroke-width:0.374153;stroke-linecap:round;stroke-linejoin:round"
       d="m -317.07654,-210.15275 a 2.0999999,2.0999999 0 0 1 2.93328,-0.46459 2.0999999,2.0999999 0 0 1 0.46459,2.93328 2.0999999,2.0999999 0 0 1 -2.93329,0.46459 2.0999999,2.0999999 0 0 1 -0.46458,-2.93328 z" />
    <path
       id="circle5097"
       style="fill:none;stroke-width:0.374153;stroke-linecap:round;stroke-linejoin:round"
       d="m -297.84918,-236.61695 a 2.0999999,2.0999999 0 0 1 2.93328,-0.46458 2.0999999,2.0999999 0 0 1 0.46459,2.93328 2.0999999,2.0999999 0 0 1 -2.93329,0.46459 2.0999999,2.0999999 0 0 1 -0.46458,-2.93329 z" />
    <path
       id="circle5099"
       style="fill:none;stroke-width:0.374153;stroke-linecap:round;stroke-linejoin:round"
       d="m -358.51922,-240.26262 a 2.0999999,2.0999999 0 0 1 2.93329,-0.46458 2.0999999,2.0999999 0 0 1 0.46459,2.93328 2.0999999,2.0999999 0 0 1 -2.93329,0.46459 2.0999999,2.0999999 0 0 1 -0.46459,-2.93329 z" />
    <path
       id="circle5101"
       style="fill:none;stroke-width:0.374153;stroke-linecap:round;stroke-linejoin:round"
       d="m -339.29185,-266.72681 a 2.0999999,2.0999999 0 0 1 2.93328,-0.46459 2.0999999,2.0999999 0 0 1 0.46459,2.93329 2.0999999,2.0999999 0 0 1 -2.93329,0.46459 2.0999999,2.0999999 0 0 1 -0.46458,-2.93329 z" />
    <path
       id="circle5105"
       style="fill:none;stroke-width:0.374153;stroke-linecap:round;stroke-linejoin:round"
       d="m 101.88509,-366.49848 a 2.0999999,2.0999999 0 0 1 1.34828,2.64616 2.0999999,2.0999999 0 0 1 -2.64615,1.34828 2.0999999,2.0999999 0 0 1 -1.34828,-2.64615 2.0999999,2.0999999 0 0 1 2.64615,-1.34829 z" />
    <path
       id="circle5107"
       style="fill:none;stroke-width:0.374153;stroke-linecap:round;stroke-linejoin:round"
       d="m 132.99561,-356.39005 a 2.0999999,2.0999999 0 0 1 1.34829,2.64615 2.0999999,2.0999999 0 0 1 -2.64616,1.34828 2.0999999,2.0999999 0 0 1 -1.34828,-2.64615 2.0999999,2.0999999 0 0 1 2.64615,-1.34828 z" />
    <path
       id="circle5109"
       style="fill:none;stroke-width:0.374153;stroke-linecap:round;stroke-linejoin:round"
       d="m 117.71478,-415.21726 a 2.0999999,2.0999999 0 0 1 1.34828,2.64616 2.0999999,2.0999999 0 0 1 -2.64615,1.34828 2.0999999,2.0999999 0 0 1 -1.34828,-2.64616 2.0999999,2.0999999 0 0 1 2.64615,-1.34828 z" />
    <path
       id="circle5111"
       style="fill:none;stroke-width:0.374153;stroke-linecap:round;stroke-linejoin:round"
       d="m 148.8253,-405.10884 a 2.0999999,2.0999999 0 0 1 1.34829,2.64616 2.0999999,2.0999999 0 0 1 -2.64616,1.34828 2.0999999,2.0999999 0 0 1 -1.34828,-2.64615 2.0999999,2.0999999 0 0 1 2.64615,-1.34829 z" />
    <path
       id="circle5115"
       style="fill:none;stroke-width:0.374153;stroke-linecap:round;stroke-linejoin:round"
       d="m 494.052,-16.35577 a 2.0999999,2.0999999 0 0 1 -2.1,2.1 2.0999999,2.0999999 0 0 1 -2.1,-2.1 2.0999999,2.0999999 0 0 1 2.1,-2.1 2.0999999,2.0999999 0 0 1 2.1,2.1 z" />
    <path
       id="circle5117"
       style="fill:none;stroke-width:0.374153;stroke-linecap:round;stroke-linejoin:round"
       d="m 494.052,16.35577 a 2.0999999,2.0999999 0 0 1 -2.1,2.1 2.0999999,2.0999999 0 0 1 -2.1,-2.1 2.0999999,2.0999999 0 0 1 2.1,-2.1 2.0999999,2.0999999 0 0 1 2.1,2.1 z" />
    <path
       id="circle5119"
       style="fill:none;stroke-width:0.374153;stroke-linecap:round;stroke-linejoin:round"
       d="m 545.2779,-16.35577 a 2.0999999,2.0999999 0 0 1 -2.1,2.1 2.0999999,2.0999999 0 0 1 -2.1,-2.1 2.0999999,2.0999999 0 0 1 2.1,-2.1 2.0999999,2.0999999 0 0 1 2.1,2.1 z" />
    <path
       id="circle5121"
       style="fill:none;stroke-width:0.374153;stroke-linecap:round;stroke-linejoin:round"
       d="m 545.2779,16.35577 a 2.0999999,2.0999999 0 0 1 -2.1,2.1 2.0999999,2.0999999 0 0 1 -2.1,-2.1 2.0999999,2.0999999 0 0 1 2.1,-2.1 2.0999999,2.0999999 0 0 1 2.1,2.1 z" />
    <path
       id="circle5237"
       style="fill:none;stroke-width:0.374153;stroke-linecap:round;stroke-linejoin:round"
       d="m 168.22608,464.8167 a 2.0999999,2.0999999 0 0 1 -2.64616,-1.3483 2.0999999,2.0999999 0 0 1 1.34828,-2.6462 2.0999999,2.0999999 0 0 1 2.64616,1.3483 2.0999999,2.0999999 0 0 1 -1.34828,2.6462 z" />
    <path
       id="circle5239"
       style="fill:none;stroke-width:0.374153;stroke-linecap:round;stroke-linejoin:round"
       d="m 137.11555,474.9251 a 2.0999999,2.0999999 0 0 1 -2.64615,-1.3483 2.0999999,2.0999999 0 0 1 1.34828,-2.6462 2.0999999,2.0999999 0 0 1 2.64616,1.3483 2.0999999,2.0999999 0 0 1 -1.34829,2.6462 z" />
    <path
       id="circle5241"
       style="fill:none;stroke-width:0.374153;stroke-linecap:round;stroke-linejoin:round"
       d="m 184.05577,513.5354 a 2.0999999,2.0999999 0 0 1 -2.64616,-1.3482 2.0999999,2.0999999 0 0 1 1.34829,-2.6462 2.0999999,2.0999999 0 0 1 2.64615,1.3483 2.0999999,2.0999999 0 0 1 -1.34828,2.6461 z" />
    <path
       id="circle5243"
       style="fill:none;stroke-width:0.374153;stroke-linecap:round;stroke-linejoin:round"
       d="m 152.94524,523.6439 a 2.0999999,2.0999999 0 0 1 -2.64615,-1.3483 2.0999999,2.0999999 0 0 1 1.34828,-2.6462 2.0999999,2.0999999 0 0 1 2.64616,1.3483 2.0999999,2.0999999 0 0 1 -1.34829,2.6462 z" />
    <path
       id="circle5247"
       style="fill:none;stroke-width:0.374153;stroke-linecap:round;stroke-linejoin:round"
       d="m -390.08185,303.62825 a 2.0999999,2.0999999 0 0 1 0.46459,-2.93328 2.0999999,2.0999999 0 0 1 2.93328,0.46459 2.0999999,2.0999999 0 0 1 -0.46458,2.93328 2.0999999,2.0999999 0 0 1 -2.93329,-0.46459 z" />
    <path
       id="circle5249"
       style="fill:none;stroke-width:0.374153;stroke-linecap:round;stroke-linejoin:round"
       d="m -409.30921,277.16406 a 2.0999999,2.0999999 0 0 1 0.46459,-2.93328 2.0999999,2.0999999 0 0 1 2.93328,0.46459 2.0999999,2.0999999 0 0 1 -0.46458,2.93328 2.0999999,2.0999999 0 0 1 -2.93329,-0.46459 z" />
    <path
       id="circle5251"
       style="fill:none;stroke-width:0.374153;stroke-linecap:round;stroke-linejoin:round"
       d="m -431.52452,333.73812 a 2.0999999,2.0999999 0 0 1 0.46459,-2.93329 2.0999999,2.0999999 0 0 1 2.93328,0.46459 2.0999999,2.0999999 0 0 1 -0.46459,2.93329 2.0999999,2.0999999 0 0 1 -2.93328,-0.46459 z" />
    <path
       id="circle5253"
       style="fill:none;stroke-width:0.374153;stroke-linecap:round;stroke-linejoin:round"
       d="m -450.75188,307.27393 a 2.0999999,2.0999999 0 0 1 0.46459,-2.93329 2.0999999,2.0999999 0 0 1 2.93328,0.46459 2.0999999,2.0999999 0 0 1 -0.46459,2.93328 2.0999999,2.0999999 0 0 1 -2.93328,-0.46458 z" />
    <path
       id="circle5257"
       style="fill:none;stroke-width:0.374153;stroke-linecap:round;stroke-linejoin:round"
       d="m -409.3092,-277.16408 a 2.0999999,2.0999999 0 0 1 2.93328,-0.46459 2.0999999,2.0999999 0 0 1 0.46459,2.93329 2.0999999,2.0999999 0 0 1 -2.93329,0.46458 2.0999999,2.0999999 0 0 1 -0.46458,-2.93328 z" />
    <path
       id="circle5259"
       style="fill:none;stroke-width:0.374153;stroke-linecap:round;stroke-linejoin:round"
       d="m -390.08184,-303.62827 a 2.0999999,2.0999999 0 0 1 2.93328,-0.46459 2.0999999,2.0999999 0 0 1 0.46459,2.93329 2.0999999,2.0999999 0 0 1 -2.93329,0.46458 2.0999999,2.0999999 0 0 1 -0.46458,-2.93328 z" />
    <path
       id="circle5261"
       style="fill:none;stroke-width:0.374153;stroke-linecap:round;stroke-linejoin:round"
       d="m -450.75187,-307.27394 a 2.0999999,2.0999999 0 0 1 2.93328,-0.46459 2.0999999,2.0999999 0 0 1 0.46459,2.93328 2.0999999,2.0999999 0 0 1 -2.93329,0.46459 2.0999999,2.0999999 0 0 1 -0.46458,-2.93328 z" />
    <path
       id="circle5263"
       style="fill:none;stroke-width:0.374153;stroke-linecap:round;stroke-linejoin:round"
       d="m -431.52451,-333.73814 a 2.0999999,2.0999999 0 0 1 2.93328,-0.46458 2.0999999,2.0999999 0 0 1 0.46459,2.93328 2.0999999,2.0999999 0 0 1 -2.93329,0.46459 2.0999999,2.0999999 0 0 1 -0.46458,-2.93329 z" />
    <path
       id="circle5267"
       style="fill:none;stroke-width:0.374153;stroke-linecap:round;stroke-linejoin:round"
       d="m 137.11555,-474.92508 a 2.0999999,2.0999999 0 0 1 1.34829,2.64615 2.0999999,2.0999999 0 0 1 -2.64616,1.34828 2.0999999,2.0999999 0 0 1 -1.34828,-2.64615 2.0999999,2.0999999 0 0 1 2.64615,-1.34828 z" />
    <path
       id="circle5269"
       style="fill:none;stroke-width:0.374153;stroke-linecap:round;stroke-linejoin:round"
       d="m 168.22608,-464.81666 a 2.0999999,2.0999999 0 0 1 1.34828,2.64615 2.0999999,2.0999999 0 0 1 -2.64616,1.34829 2.0999999,2.0999999 0 0 1 -1.34828,-2.64616 2.0999999,2.0999999 0 0 1 2.64616,-1.34828 z" />
    <path
       id="circle5271"
       style="fill:none;stroke-width:0.374153;stroke-linecap:round;stroke-linejoin:round"
       d="m 152.94524,-523.64387 a 2.0999999,2.0999999 0 0 1 1.34829,2.64616 2.0999999,2.0999999 0 0 1 -2.64616,1.34828 2.0999999,2.0999999 0 0 1 -1.34828,-2.64615 2.0999999,2.0999999 0 0 1 2.64615,-1.34829 z" />
    <path
       id="circle5273"
       style="fill:none;stroke-width:0.374153;stroke-linecap:round;stroke-linejoin:round"
       d="m 184.05577,-513.53544 a 2.0999999,2.0999999 0 0 1 1.34828,2.64615 2.0999999,2.0999999 0 0 1 -2.64615,1.34828 2.0999999,2.0999999 0 0 1 -1.34829,-2.64615 2.0999999,2.0999999 0 0 1 2.64616,-1.34828 z" />
    <path
       id="path5543"
       style="fill:none;stroke-width:0.187077;stroke-linecap:round;stroke-linejoin:round"
       d="m -15.5889,209.24402 a 2.0999999,2.0999999 0 0 1 -2.1,2.1 2.0999999,2.0999999 0 0 1 -2.1,-2.1 2.0999999,2.0999999 0 0 1 2.1,-2.1 2.0999999,2.0999999 0 0 1 2.1,2.1 z" />
    <path
       id="circle5545"
       style="fill:none;stroke-width:0.187077;stroke-linecap:round;stroke-linejoin:round"
       d="m -15.5889,235.51898 a 2.0999999,2.0999999 0 0 1 -2.1,2.1 2.0999999,2.0999999 0 0 1 -2.1,-2.1 2.0999999,2.0999999 0 0 1 2.1,-2.1 2.0999999,2.0999999 0 0 1 2.1,2.1 z" />
    <path
       id="circle5743"
       style="fill:none;stroke-width:0.187077;stroke-linecap:round;stroke-linejoin:round"
       d="m 0.46938,209.24402 a 2.0999999,2.0999999 0 0 1 -2.1,2.1 2.0999999,2.0999999 0 0 1 -2.1,-2.1 2.0999999,2.0999999 0 0 1 2.1,-2.1 2.0999999,2.0999999 0 0 1 2.1,2.1 z" />
    <path
       id="circle5745"
       style="fill:none;stroke-width:0.187077;stroke-linecap:round;stroke-linejoin:round"
       d="m 0.46938,235.51898 a 2.0999999,2.0999999 0 0 1 -2.1,2.1 2.0999999,2.0999999 0 0 1 -2.1,-2.1 2.0999999,2.0999999 0 0 1 2.1,-2.1 2.0999999,2.0999999 0 0 1 2.1,2.1 z" />
    <path
       id="circle5747"
       style="fill:none;stroke-width:0.187077;stroke-linecap:round;stroke-linejoin:round"
       d="m 56.35092,209.24402 a 2.0999999,2.0999999 0 0 1 -2.1,2.1 2.0999999,2.0999999 0 0 1 -2.1,-2.1 2.0999999,2.0999999 0 0 1 2.1,-2.1 2.0999999,2.0999999 0 0 1 2.1,2.1 z" />
    <path
       id="circle5749"
       style="fill:none;stroke-width:0.187077;stroke-linecap:round;stroke-linejoin:round"
       d="m 56.35092,235.51898 a 2.0999999,2.0999999 0 0 1 -2.1,2.1 2.0999999,2.0999999 0 0 1 -2.1,-2.1 2.0999999,2.0999999 0 0 1 2.1,-2.1 2.0999999,2.0999999 0 0 1 2.1,2.1 z" />
    <path
       id="circle5898"
       style="fill:none;stroke-width:0.187077;stroke-linecap:round;stroke-linejoin:round"
       d="m -15.5889,325.534 a 2.0999999,2.0999999 0 0 1 -2.1,2.1 2.0999999,2.0999999 0 0 1 -2.1,-2.1 2.0999999,2.0999999 0 0 1 2.1,-2.1 2.0999999,2.0999999 0 0 1 2.1,2.1 z" />
    <path
       id="circle5900"
       style="fill:none;stroke-width:0.187077;stroke-linecap:round;stroke-linejoin:round"
       d="m -15.5889,351.809 a 2.0999999,2.0999999 0 0 1 -2.1,2.1 2.0999999,2.0999999 0 0 1 -2.1,-2.1 2.0999999,2.0999999 0 0 1 2.1,-2.10004 2.0999999,2.0999999 0 0 1 2.1,2.10004 z" />
    <path
       id="circle5902"
       style="fill:none;stroke-width:0.187077;stroke-linecap:round;stroke-linejoin:round"
       d="m 0.46938,325.534 a 2.0999999,2.0999999 0 0 1 -2.1,2.1 2.0999999,2.0999999 0 0 1 -2.1,-2.1 2.0999999,2.0999999 0 0 1 2.1,-2.1 2.0999999,2.0999999 0 0 1 2.1,2.1 z" />
    <path
       id="circle5904"
       style="fill:none;stroke-width:0.187077;stroke-linecap:round;stroke-linejoin:round"
       d="m 0.46938,351.809 a 2.0999999,2.0999999 0 0 1 -2.1,2.1 2.0999999,2.0999999 0 0 1 -2.1,-2.1 2.0999999,2.0999999 0 0 1 2.1,-2.10004 2.0999999,2.0999999 0 0 1 2.1,2.10004 z" />
    <path
       id="circle5906"
       style="fill:none;stroke-width:0.187077;stroke-linecap:round;stroke-linejoin:round"
       d="m 56.35092,325.534 a 2.0999999,2.0999999 0 0 1 -2.1,2.1 2.0999999,2.0999999 0 0 1 -2.1,-2.1 2.0999999,2.0999999 0 0 1 2.1,-2.1 2.0999999,2.0999999 0 0 1 2.1,2.1 z" />
    <path
       id="circle5908"
       style="fill:none;stroke-width:0.187077;stroke-linecap:round;stroke-linejoin:round"
       d="m 56.35092,351.809 a 2.0999999,2.0999999 0 0 1 -2.1,2.1 2.0999999,2.0999999 0 0 1 -2.1,-2.1 2.0999999,2.0999999 0 0 1 2.1,-2.10004 2.0999999,2.0999999 0 0 1 2.1,2.10004 z" />
    <path
       id="circle5912"
       style="fill:none;stroke-width:0.187077;stroke-linecap:round;stroke-linejoin:round"
       d="m -15.5889,436.22 a 2.0999999,2.0999999 0 0 1 -2.1,2.1 2.0999999,2.0999999 0 0 1 -2.1,-2.1 2.0999999,2.0999999 0 0 1 2.1,-2.1 2.0999999,2.0999999 0 0 1 2.1,2.1 z" />
    <path
       id="circle5914"
       style="fill:none;stroke-width:0.187077;stroke-linecap:round;stroke-linejoin:round"
       d="m -15.5889,462.495 a 2.0999999,2.0999999 0 0 1 -2.1,2.1 2.0999999,2.0999999 0 0 1 -2.1,-2.1 2.0999999,2.0999999 0 0 1 2.1,-2.1 2.0999999,2.0999999 0 0 1 2.1,2.1 z" />
    <path
       id="circle5916"
       style="fill:none;stroke-width:0.187077;stroke-linecap:round;stroke-linejoin:round"
       d="m 0.46938,436.22 a 2.0999999,2.0999999 0 0 1 -2.1,2.1 2.0999999,2.0999999 0 0 1 -2.1,-2.1 2.0999999,2.0999999 0 0 1 2.1,-2.1 2.0999999,2.0999999 0 0 1 2.1,2.1 z" />
    <path
       id="circle5918"
       style="fill:none;stroke-width:0.187077;stroke-linecap:round;stroke-linejoin:round"
       d="m 0.46938,462.495 a 2.0999999,2.0999999 0 0 1 -2.1,2.1 2.0999999,2.0999999 0 0 1 -2.1,-2.1 2.0999999,2.0999999 0 0 1 2.1,-2.1 2.0999999,2.0999999 0 0 1 2.1,2.1 z" />
    <path
       id="circle5920"
       style="fill:none;stroke-width:0.187077;stroke-linecap:round;stroke-linejoin:round"
       d="m 56.35092,436.22 a 2.0999999,2.0999999 0 0 1 -2.1,2.1 2.0999999,2.0999999 0 0 1 -2.1,-2.1 2.0999999,2.0999999 0 0 1 2.1,-2.1 2.0999999,2.0999999 0 0 1 2.1,2.1 z" />
    <path
       id="circle5922"
       style="fill:none;stroke-width:0.187077;stroke-linecap:round;stroke-linejoin:round"
       d="m 56.35092,462.495 a 2.0999999,2.0999999 0 0 1 -2.1,2.1 2.0999999,2.0999999 0 0 1 -2.1,-2.1 2.0999999,2.0999999 0 0 1 2.1,-2.1 2.0999999,2.0999999 0 0 1 2.1,2.1 z" />
    <path
       id="circle5926"
       style="fill:none;stroke-width:0.187077;stroke-linecap:round;stroke-linejoin:round"
       d="m -15.5889,550.181 a 2.0999999,2.0999999 0 0 1 -2.1,2.1 2.0999999,2.0999999 0 0 1 -2.1,-2.1 2.0999999,2.0999999 0 0 1 2.1,-2.1 2.0999999,2.0999999 0 0 1 2.1,2.1 z" />
    <path
       id="circle5928"
       style="fill:none;stroke-width:0.187077;stroke-linecap:round;stroke-linejoin:round"
       d="m -15.5889,576.456 a 2.0999999,2.0999999 0 0 1 -2.1,2.1 2.0999999,2.0999999 0 0 1 -2.1,-2.1 2.0999999,2.0999999 0 0 1 2.1,-2.1 2.0999999,2.0999999 0 0 1 2.1,2.1 z" />
    <path
       id="circle5930"
       style="fill:none;stroke-width:0.187077;stroke-linecap:round;stroke-linejoin:round"
       d="m 0.46938,550.181 a 2.0999999,2.0999999 0 0 1 -2.1,2.1 2.0999999,2.0999999 0 0 1 -2.1,-2.1 2.0999999,2.0999999 0 0 1 2.1,-2.1 2.0999999,2.0999999 0 0 1 2.1,2.1 z" />
    <path
       id="circle5932"
       style="fill:none;stroke-width:0.187077;stroke-linecap:round;stroke-linejoin:round"
       d="m 0.46938,576.456 a 2.0999999,2.0999999 0 0 1 -2.1,2.1 2.0999999,2.0999999 0 0 1 -2.1,-2.1 2.0999999,2.0999999 0 0 1 2.1,-2.1 2.0999999,2.0999999 0 0 1 2.1,2.1 z" />
    <path
       id="circle5934"
       style="fill:none;stroke-width:0.187077;stroke-linecap:round;stroke-linejoin:round"
       d="m 56.35092,550.181 a 2.0999999,2.0999999 0 0 1 -2.1,2.1 2.0999999,2.0999999 0 0 1 -2.1,-2.1 2.0999999,2.0999999 0 0 1 2.1,-2.1 2.0999999,2.0999999 0 0 1 2.1,2.1 z" />
    <path
       id="circle5936"
       style="fill:none;stroke-width:0.187077;stroke-linecap:round;stroke-linejoin:round"
       d="m 56.35092,576.456 a 2.0999999,2.0999999 0 0 1 -2.1,2.1 2.0999999,2.0999999 0 0 1 -2.1,-2.1 2.0999999,2.0999999 0 0 1 2.1,-2.1 2.0999999,2.0999999 0 0 1 2.1,2.1 z" />
  </g>
  <g
     inkscape:groupmode="layer"
     id="layer3"
     inkscape:label="drill-5.2"
     style="display:inline">
    <path
       id="path4720"
       style="fill:none;stroke-width:0.0620408;stroke-linecap:round;stroke-linejoin:round"
       inkscape:transform-center-x="-119.71568"
       d="m 122.316,0 a 2.5999999,2.5999999 0 0 1 -2.6,2.6 2.5999999,2.5999999 0 0 1 -2.6,-2.6 2.5999999,2.5999999 0 0 1 2.6,-2.6 2.5999999,2.5999999 0 0 1 2.6,2.6 z" />
    <path
       id="circle4722"
       style="fill:none;stroke-width:0.0620408;stroke-linecap:round;stroke-linejoin:round"
       inkscape:transform-center-x="-242.48959"
       d="m 245.08999,0 a 2.5999999,2.5999999 0 0 1 -2.6,2.6 2.5999999,2.5999999 0 0 1 -2.6,-2.6 2.5999999,2.5999999 0 0 1 2.6,-2.6 2.5999999,2.5999999 0 0 1 2.6,2.6 z" />
    <path
       id="circle4724"
       style="fill:none;stroke-width:0.0620408;stroke-linecap:round;stroke-linejoin:round"
       inkscape:transform-center-x="-355.60952"
       d="m 358.21,0 a 2.5999999,2.5999999 0 0 1 -2.6,2.6 2.5999999,2.5999999 0 0 1 -2.6,-2.6 2.5999999,2.5999999 0 0 1 2.6,-2.6 2.5999999,2.5999999 0 0 1 2.6,2.6 z" />
    <path
       id="circle4726"
       style="fill:none;stroke-width:0.0620408;stroke-linecap:round;stroke-linejoin:round"
       inkscape:transform-center-x="-469.874"
       d="m 472.474,0 a 2.5999999,2.5999999 0 0 1 -2.6,2.6 2.5999999,2.5999999 0 0 1 -2.6,-2.6 2.5999999,2.5999999 0 0 1 2.6,-2.6 2.5999999,2.5999999 0 0 1 2.6,2.6 z" />
    <path
       id="circle4728"
       style="fill:none;stroke-width:0.0620408;stroke-linecap:round;stroke-linejoin:round"
       inkscape:transform-center-x="-583.65092"
       d="m 586.251,0 a 2.5999999,2.5999999 0 0 1 -2.6,2.6 2.5999999,2.5999999 0 0 1 -2.6,-2.6 2.5999999,2.5999999 0 0 1 2.6,-2.6 2.5999999,2.5999999 0 0 1 2.6,2.6 z" />
    <path
       id="circle4754"
       style="fill:none;stroke-width:0.0620408;stroke-linecap:round;stroke-linejoin:round"
       inkscape:transform-center-x="-472.18347"
       inkscape:transform-center-y="343.06137"
       d="m 474.287,344.58961 a 2.5999999,2.5999999 0 0 1 -3.6317,0.57521 2.5999999,2.5999999 0 0 1 -0.5752,-3.63169 2.5999999,2.5999999 0 0 1 3.6317,-0.5752 2.5999999,2.5999999 0 0 1 0.5752,3.63168 z" />
    <path
       id="circle4756"
       style="fill:none;stroke-width:0.0620408;stroke-linecap:round;stroke-linejoin:round"
       inkscape:transform-center-x="-180.35803"
       inkscape:transform-center-y="555.0849"
       d="m 181.16155,557.5576 a 2.5999999,2.5999999 0 0 1 -3.27619,-1.6693 2.5999999,2.5999999 0 0 1 1.6693,-3.2762 2.5999999,2.5999999 0 0 1 3.27619,1.6693 2.5999999,2.5999999 0 0 1 -1.6693,3.2762 z" />
    <path
       id="circle4758"
       style="fill:none;stroke-width:0.0620408;stroke-linecap:round;stroke-linejoin:round"
       inkscape:transform-center-x="180.35799"
       inkscape:transform-center-y="555.08482"
       d="m -181.16137,557.5576 a 2.5999999,2.5999999 0 0 1 -1.6693,-3.2762 2.5999999,2.5999999 0 0 1 3.2762,-1.6693 2.5999999,2.5999999 0 0 1 1.66929,3.2762 2.5999999,2.5999999 0 0 1 -3.27619,1.6693 z" />
    <path
       id="circle4760"
       style="fill:none;stroke-width:0.0620408;stroke-linecap:round;stroke-linejoin:round"
       inkscape:transform-center-x="472.18336"
       inkscape:transform-center-y="343.0613"
       d="m -474.28673,344.58954 a 2.5999999,2.5999999 0 0 1 0.5752,-3.63169 2.5999999,2.5999999 0 0 1 3.63169,0.57521 2.5999999,2.5999999 0 0 1 -0.5752,3.63168 2.5999999,2.5999999 0 0 1 -3.63169,-0.5752 z" />
    <path
       id="circle4762"
       style="fill:none;stroke-width:0.0620408;stroke-linecap:round;stroke-linejoin:round"
       inkscape:transform-center-x="583.65074"
       inkscape:transform-center-y="5.0849222e-06"
       d="m -586.25066,0 a 2.5999999,2.5999999 0 0 1 2.6,-2.6 2.5999999,2.5999999 0 0 1 2.6,2.6 2.5999999,2.5999999 0 0 1 -2.6,2.6 2.5999999,2.5999999 0 0 1 -2.6,-2.6 z" />
    <path
       id="circle4764"
       style="fill:none;stroke-width:0.0620408;stroke-linecap:round;stroke-linejoin:round"
       inkscape:transform-center-x="472.18337"
       inkscape:transform-center-y="-343.0613"
       d="m -474.28673,-344.58955 a 2.5999999,2.5999999 0 0 1 3.63168,-0.5752 2.5999999,2.5999999 0 0 1 0.57521,3.63169 2.5999999,2.5999999 0 0 1 -3.63169,0.5752 2.5999999,2.5999999 0 0 1 -0.5752,-3.63169 z" />
    <path
       id="circle4766"
       style="fill:none;stroke-width:0.0620408;stroke-linecap:round;stroke-linejoin:round"
       inkscape:transform-center-x="180.35799"
       inkscape:transform-center-y="-555.08484"
       d="m -181.16135,-557.5576 a 2.5999999,2.5999999 0 0 1 3.27619,1.6693 2.5999999,2.5999999 0 0 1 -1.6693,3.2762 2.5999999,2.5999999 0 0 1 -3.27619,-1.66931 2.5999999,2.5999999 0 0 1 1.6693,-3.27619 z" />
    <path
       id="circle4768"
       style="fill:none;stroke-width:0.0620408;stroke-linecap:round;stroke-linejoin:round"
       inkscape:transform-center-x="-180.35799"
       inkscape:transform-center-y="-555.08483"
       d="m 181.16151,-557.55758 a 2.5999999,2.5999999 0 0 1 1.66931,3.27619 2.5999999,2.5999999 0 0 1 -3.2762,1.6693 2.5999999,2.5999999 0 0 1 -1.6693,-3.27619 2.5999999,2.5999999 0 0 1 3.27619,-1.6693 z" />
    <path
       id="circle4770"
       style="fill:none;stroke-width:0.0620408;stroke-linecap:round;stroke-linejoin:round"
       inkscape:transform-center-x="-472.18335"
       inkscape:transform-center-y="-343.06127"
       d="m 474.2869,-344.58953 a 2.5999999,2.5999999 0 0 1 -0.5752,3.63169 2.5999999,2.5999999 0 0 1 -3.6317,-0.5752 2.5999999,2.5999999 0 0 1 0.5752,-3.63169 2.5999999,2.5999999 0 0 1 3.6317,0.5752 z" />
    <path
       id="circle4772"
       style="fill:none;stroke-width:0.0620408;stroke-linecap:round;stroke-linejoin:round"
       inkscape:transform-center-x="-380.1361"
       inkscape:transform-center-y="276.18503"
       d="m 382.2395,277.71325 a 2.5999999,2.5999999 0 0 1 -3.6316,0.57521 2.5999999,2.5999999 0 0 1 -0.5752,-3.63169 2.5999999,2.5999999 0 0 1 3.6316,-0.5752 2.5999999,2.5999999 0 0 1 0.5752,3.63168 z" />
    <path
       id="circle4774"
       style="fill:none;stroke-width:0.0620408;stroke-linecap:round;stroke-linejoin:round"
       inkscape:transform-center-x="-145.19908"
       inkscape:transform-center-y="446.87681"
       d="m 146.00255,449.3496 a 2.5999999,2.5999999 0 0 1 -3.27619,-1.6693 2.5999999,2.5999999 0 0 1 1.6693,-3.2762 2.5999999,2.5999999 0 0 1 3.27619,1.6693 2.5999999,2.5999999 0 0 1 -1.6693,3.2762 z" />
    <path
       id="circle4776"
       style="fill:none;stroke-width:0.0620408;stroke-linecap:round;stroke-linejoin:round"
       inkscape:transform-center-x="145.19909"
       inkscape:transform-center-y="446.87681"
       d="m -146.00251,449.3496 a 2.5999999,2.5999999 0 0 1 -1.66931,-3.2762 2.5999999,2.5999999 0 0 1 3.2762,-1.6693 2.5999999,2.5999999 0 0 1 1.6693,3.2762 2.5999999,2.5999999 0 0 1 -3.27619,1.6693 z" />
    <path
       id="circle4778"
       style="fill:none;stroke-width:0.0620408;stroke-linecap:round;stroke-linejoin:round"
       inkscape:transform-center-x="380.13613"
       inkscape:transform-center-y="276.18503"
       d="m -382.23955,277.71328 a 2.5999999,2.5999999 0 0 1 0.5752,-3.63169 2.5999999,2.5999999 0 0 1 3.63169,0.5752 2.5999999,2.5999999 0 0 1 -0.57521,3.63169 2.5999999,2.5999999 0 0 1 -3.63168,-0.5752 z" />
    <path
       id="circle4780"
       style="fill:none;stroke-width:0.0620408;stroke-linecap:round;stroke-linejoin:round"
       inkscape:transform-center-x="469.87408"
       inkscape:transform-center-y="-1.3421144e-06"
       d="m -472.47405,0 a 2.5999999,2.5999999 0 0 1 2.6,-2.6 2.5999999,2.5999999 0 0 1 2.6,2.6 2.5999999,2.5999999 0 0 1 -2.6,2.6 2.5999999,2.5999999 0 0 1 -2.6,-2.6 z" />
    <path
       id="circle4782"
       style="fill:none;stroke-width:0.0620408;stroke-linecap:round;stroke-linejoin:round"
       inkscape:transform-center-x="380.13612"
       inkscape:transform-center-y="-276.18506"
       d="m -382.23954,-277.71331 a 2.5999999,2.5999999 0 0 1 3.63169,-0.5752 2.5999999,2.5999999 0 0 1 0.5752,3.63168 2.5999999,2.5999999 0 0 1 -3.63169,0.57521 2.5999999,2.5999999 0 0 1 -0.5752,-3.63169 z" />
    <path
       id="circle4784"
       style="fill:none;stroke-width:0.0620408;stroke-linecap:round;stroke-linejoin:round"
       inkscape:transform-center-x="145.19908"
       inkscape:transform-center-y="-446.87681"
       d="m -146.0025,-449.34955 a 2.5999999,2.5999999 0 0 1 3.27619,1.6693 2.5999999,2.5999999 0 0 1 -1.6693,3.27619 2.5999999,2.5999999 0 0 1 -3.27619,-1.6693 2.5999999,2.5999999 0 0 1 1.6693,-3.27619 z" />
    <path
       id="circle4786"
       style="fill:none;stroke-width:0.0620408;stroke-linecap:round;stroke-linejoin:round"
       inkscape:transform-center-x="-145.19906"
       inkscape:transform-center-y="-446.87682"
       d="m 146.00253,-449.34956 a 2.5999999,2.5999999 0 0 1 1.6693,3.27619 2.5999999,2.5999999 0 0 1 -3.27619,1.6693 2.5999999,2.5999999 0 0 1 -1.6693,-3.27619 2.5999999,2.5999999 0 0 1 3.27619,-1.6693 z" />
    <path
       id="circle4788"
       style="fill:none;stroke-width:0.0620408;stroke-linecap:round;stroke-linejoin:round"
       inkscape:transform-center-x="-380.13611"
       inkscape:transform-center-y="-276.18509"
       d="m 382.2396,-277.71332 a 2.5999999,2.5999999 0 0 1 -0.5752,3.63168 2.5999999,2.5999999 0 0 1 -3.6317,-0.5752 2.5999999,2.5999999 0 0 1 0.5752,-3.63168 2.5999999,2.5999999 0 0 1 3.6317,0.5752 z" />
    <path
       id="circle4790"
       style="fill:none;stroke-width:0.0620408;stroke-linecap:round;stroke-linejoin:round"
       inkscape:transform-center-x="-287.69416"
       inkscape:transform-center-y="209.02204"
       d="m 289.79809,210.55029 a 2.5999999,2.5999999 0 0 1 -3.63168,0.5752 2.5999999,2.5999999 0 0 1 -0.5752,-3.63168 2.5999999,2.5999999 0 0 1 3.63168,-0.5752 2.5999999,2.5999999 0 0 1 0.5752,3.63168 z" />
    <path
       id="circle4792"
       style="fill:none;stroke-width:0.0620408;stroke-linecap:round;stroke-linejoin:round"
       inkscape:transform-center-x="-109.8894"
       inkscape:transform-center-y="338.20478"
       d="m 110.69332,340.67755 a 2.5999999,2.5999999 0 0 1 -3.27619,-1.66931 2.5999999,2.5999999 0 0 1 1.6693,-3.27619 2.5999999,2.5999999 0 0 1 3.27619,1.66931 2.5999999,2.5999999 0 0 1 -1.6693,3.27619 z" />
    <path
       id="circle4794"
       style="fill:none;stroke-width:0.0620408;stroke-linecap:round;stroke-linejoin:round"
       inkscape:transform-center-x="109.88941"
       inkscape:transform-center-y="338.20481"
       d="m -110.69239,340.67755 a 2.5999999,2.5999999 0 0 1 -1.6693,-3.27619 2.5999999,2.5999999 0 0 1 3.27619,-1.66931 2.5999999,2.5999999 0 0 1 1.66931,3.2762 2.5999999,2.5999999 0 0 1 -3.2762,1.6693 z" />
    <path
       id="circle4796"
       style="fill:none;stroke-width:0.0620408;stroke-linecap:round;stroke-linejoin:round"
       inkscape:transform-center-x="287.69421"
       inkscape:transform-center-y="209.02204"
       d="m -289.79719,210.55027 a 2.5999999,2.5999999 0 0 1 0.5752,-3.63169 2.5999999,2.5999999 0 0 1 3.63169,0.5752 2.5999999,2.5999999 0 0 1 -0.5752,3.63169 2.5999999,2.5999999 0 0 1 -3.63169,-0.5752 z" />
    <path
       id="circle4798"
       style="fill:none;stroke-width:0.0620408;stroke-linecap:round;stroke-linejoin:round"
       inkscape:transform-center-x="355.60956"
       inkscape:transform-center-y="-4.9116762e-05"
       d="m -358.2091,-6e-5 a 2.5999999,2.5999999 0 0 1 2.6,-2.6 2.5999999,2.5999999 0 0 1 2.6,2.6 2.5999999,2.5999999 0 0 1 -2.6,2.6 2.5999999,2.5999999 0 0 1 -2.6,-2.6 z" />
    <path
       id="circle4800"
       style="fill:none;stroke-width:0.0620408;stroke-linecap:round;stroke-linejoin:round"
       inkscape:transform-center-x="287.69416"
       inkscape:transform-center-y="-209.0221"
       d="m -289.79714,-210.55035 a 2.5999999,2.5999999 0 0 1 3.63168,-0.5752 2.5999999,2.5999999 0 0 1 0.57521,3.63169 2.5999999,2.5999999 0 0 1 -3.63169,0.5752 2.5999999,2.5999999 0 0 1 -0.5752,-3.63169 z" />
    <path
       id="circle4802"
       style="fill:none;stroke-width:0.0620408;stroke-linecap:round;stroke-linejoin:round"
       inkscape:transform-center-x="109.88936"
       inkscape:transform-center-y="-338.2048"
       d="m -110.69234,-340.67756 a 2.5999999,2.5999999 0 0 1 3.27619,1.6693 2.5999999,2.5999999 0 0 1 -1.66931,3.27619 2.5999999,2.5999999 0 0 1 -3.27619,-1.6693 2.5999999,2.5999999 0 0 1 1.66931,-3.27619 z" />
    <path
       id="circle4804"
       style="fill:none;stroke-width:0.0620408;stroke-linecap:round;stroke-linejoin:round"
       inkscape:transform-center-x="-109.88945"
       inkscape:transform-center-y="-338.20477"
       d="m 110.69336,-340.67753 a 2.5999999,2.5999999 0 0 1 1.66931,3.27619 2.5999999,2.5999999 0 0 1 -3.2762,1.66931 2.5999999,2.5999999 0 0 1 -1.6693,-3.27619 2.5999999,2.5999999 0 0 1 3.27619,-1.66931 z" />
    <path
       id="circle4806"
       style="fill:none;stroke-width:0.0620408;stroke-linecap:round;stroke-linejoin:round"
       inkscape:transform-center-x="-287.6942"
       inkscape:transform-center-y="-209.02204"
       d="m 289.79811,-210.55029 a 2.5999999,2.5999999 0 0 1 -0.57521,3.63169 2.5999999,2.5999999 0 0 1 -3.63168,-0.57521 2.5999999,2.5999999 0 0 1 0.5752,-3.63168 2.5999999,2.5999999 0 0 1 3.63169,0.5752 z" />
    <path
       id="circle4808"
       style="fill:none;stroke-width:0.0620408;stroke-linecap:round;stroke-linejoin:round"
       inkscape:transform-center-x="-121.24477"
       inkscape:transform-center-y="210.0021"
       d="m 122.54514,212.25373 a 2.5999999,2.5999999 0 0 1 -3.55162,-0.95158 2.5999999,2.5999999 0 0 1 0.95167,-3.55167 2.5999999,2.5999999 0 0 1 3.55166,0.95167 2.5999999,2.5999999 0 0 1 -0.95171,3.55158 z" />
    <path
       id="circle4810"
       style="fill:none;stroke-width:0.0620408;stroke-linecap:round;stroke-linejoin:round"
       inkscape:transform-center-x="121.24476"
       inkscape:transform-center-y="210.00211"
       d="m -122.54436,212.25377 a 2.5999999,2.5999999 0 0 1 -0.95167,-3.55166 2.5999999,2.5999999 0 0 1 3.55167,-0.95167 2.5999999,2.5999999 0 0 1 0.95167,3.55167 2.5999999,2.5999999 0 0 1 -3.55167,0.95166 z" />
    <path
       id="circle4812"
       style="fill:none;stroke-width:0.0620408;stroke-linecap:round;stroke-linejoin:round"
       inkscape:transform-center-x="242.48954"
       inkscape:transform-center-y="1.8815615e-06"
       d="m -245.08914,0 a 2.5999999,2.5999999 0 0 1 2.6,-2.6 2.5999999,2.5999999 0 0 1 2.6,2.6 2.5999999,2.5999999 0 0 1 -2.6,2.6 2.5999999,2.5999999 0 0 1 -2.6,-2.6 z" />
    <path
       id="circle4814"
       style="fill:none;stroke-width:0.0620408;stroke-linecap:round;stroke-linejoin:round"
       inkscape:transform-center-x="121.24477"
       inkscape:transform-center-y="-210.00209"
       d="m -122.54437,-212.25375 a 2.5999999,2.5999999 0 0 1 3.55167,0.95167 2.5999999,2.5999999 0 0 1 -0.95167,3.55166 2.5999999,2.5999999 0 0 1 -3.55166,-0.95166 2.5999999,2.5999999 0 0 1 0.95166,-3.55167 z" />
    <path
       id="circle4816"
       style="fill:none;stroke-width:0.0620408;stroke-linecap:round;stroke-linejoin:round"
       inkscape:transform-center-x="-121.24477"
       inkscape:transform-center-y="-210.00209"
       d="m 122.54517,-212.25375 a 2.5999999,2.5999999 0 0 1 0.95167,3.55166 2.5999999,2.5999999 0 0 1 -3.55167,0.95167 2.5999999,2.5999999 0 0 1 -0.95166,-3.55167 2.5999999,2.5999999 0 0 1 3.55166,-0.95166 z" />
    <path
       id="circle4818"
       style="fill:none;stroke-width:0.0620408;stroke-linecap:round;stroke-linejoin:round"
       inkscape:transform-center-x="-59.857826"
       inkscape:transform-center-y="103.67679"
       d="m 61.15813,105.92844 a 2.5999999,2.5999999 0 0 1 -3.55166,-0.95167 2.5999999,2.5999999 0 0 1 0.95166,-3.55166 2.5999999,2.5999999 0 0 1 3.55167,0.95166 2.5999999,2.5999999 0 0 1 -0.95167,3.55167 z" />
    <path
       id="circle4820"
       style="fill:none;stroke-width:0.0620408;stroke-linecap:round;stroke-linejoin:round"
       inkscape:transform-center-x="59.857805"
       inkscape:transform-center-y="103.67679"
       d="m -61.15748,105.92846 a 2.5999999,2.5999999 0 0 1 -0.95167,-3.55167 2.5999999,2.5999999 0 0 1 3.55167,-0.95166 2.5999999,2.5999999 0 0 1 0.95166,3.55166 2.5999999,2.5999999 0 0 1 -3.55166,0.95167 z" />
    <path
       id="circle4822"
       style="fill:none;stroke-width:0.0620408;stroke-linecap:round;stroke-linejoin:round"
       inkscape:transform-center-x="119.71566"
       inkscape:transform-center-y="-1.8099484e-06"
       d="m -122.31533,0 a 2.5999999,2.5999999 0 0 1 2.6,-2.6 2.5999999,2.5999999 0 0 1 2.6,2.6 2.5999999,2.5999999 0 0 1 -2.6,2.6 2.5999999,2.5999999 0 0 1 -2.6,-2.6 z" />
    <path
       id="circle4824"
       style="fill:none;stroke-width:0.0620408;stroke-linecap:round;stroke-linejoin:round"
       inkscape:transform-center-x="59.857846"
       inkscape:transform-center-y="-103.67683"
       d="m -61.15752,-105.92849 a 2.5999999,2.5999999 0 0 1 3.55167,0.95167 2.5999999,2.5999999 0 0 1 -0.95167,3.55166 2.5999999,2.5999999 0 0 1 -3.55167,-0.95166 2.5999999,2.5999999 0 0 1 0.95167,-3.55167 z" />
    <path
       id="circle4826"
       style="fill:none;stroke-width:0.0620408;stroke-linecap:round;stroke-linejoin:round"
       inkscape:transform-center-x="-59.857855"
       inkscape:transform-center-y="-103.67683"
       d="m 61.15818,-105.92849 a 2.5999999,2.5999999 0 0 1 0.95167,3.55167 2.5999999,2.5999999 0 0 1 -3.55167,0.95167 2.5999999,2.5999999 0 0 1 -0.95166,-3.55167 2.5999999,2.5999999 0 0 1 3.55166,-0.95167 z" />
  </g>
  <g
     inkscape:groupmode="layer"
     id="layer2"
     inkscape:label="contour_ext"
     style="display:inline">
    <path
       id="path238"
       style="fill:none;stroke-width:0.609063;stroke-linecap:round;stroke-linejoin:round"
       inkscape:label="path238"
       d="M 607.5,0 A 607.5,607.5 0 0 1 0,607.5 607.5,607.5 0 0 1 -607.5,0 607.5,607.5 0 0 1 0,-607.5 607.5,607.5 0 0 1 607.5,0 Z" />
  </g>
</svg>
