<?xml version="1.0" encoding="UTF-8" standalone="no"?>
<!-- Created with Inkscape (http://www.inkscape.org/) -->

<svg
   width="1300mm"
   height="1300mm"
   viewBox="0 0 1300 1300"
   version="1.1"
   id="svg5"
   inkscape:version="1.2.2 (732a01da63, 2022-12-09)"
   sodipodi:docname="top.svg"
   xmlns:inkscape="http://www.inkscape.org/namespaces/inkscape"
   xmlns:sodipodi="http://sodipodi.sourceforge.net/DTD/sodipodi-0.dtd"
   xmlns="http://www.w3.org/2000/svg"
   xmlns:svg="http://www.w3.org/2000/svg">
  <sodipodi:namedview
     id="namedview7"
     pagecolor="#505050"
     bordercolor="#eeeeee"
     borderopacity="1"
     inkscape:showpageshadow="0"
     inkscape:pageopacity="0"
     inkscape:pagecheckerboard="0"
     inkscape:deskcolor="#505050"
     inkscape:document-units="mm"
     showgrid="false"
     showguides="true"
     inkscape:zoom="4.5544906"
     inkscape:cx="1952.0295"
     inkscape:cy="33.812783"
     inkscape:window-width="1920"
     inkscape:window-height="1057"
     inkscape:window-x="-8"
     inkscape:window-y="1072"
     inkscape:window-maximized="1"
     inkscape:current-layer="layer5" />
  <defs
     id="defs2" />
  <g
     inkscape:label="contour_ext"
     inkscape:groupmode="layer"
     id="layer1"
     style="display:inline">
    <path
       id="path7774"
       style="fill:none;stroke-width:0.580988;stroke-linecap:round;stroke-linejoin:round"
       d="M 152.5,0 A 152.5,152.5 0 0 1 0,152.5 152.5,152.5 0 0 1 -152.5,0 152.5,152.5 0 0 1 0,-152.5 152.5,152.5 0 0 1 152.5,0 Z" />
    <path
       id="circle7785"
       style="fill:none;stroke-width:0.62861;stroke-linecap:round;stroke-linejoin:round"
       d="M 165,0 A 165,165 0 0 1 0,165 165,165 0 0 1 -165,0 165,165 0 0 1 0,-165 165,165 0 0 1 165,0 Z" />
    <path
       id="circle7787"
       style="fill:none;stroke-width:0.800049;stroke-linecap:round;stroke-linejoin:round"
       d="M 210,0 A 210,210 0 0 1 0,210 210,210 0 0 1 -210,0 210,210 0 0 1 0,-210 210,210 0 0 1 210,0 Z" />
    <path
       id="circle7789"
       style="fill:none;stroke-width:0.838147;stroke-linecap:round;stroke-linejoin:round"
       d="M 220,0 A 220,220 0 0 1 0,220 220,220 0 0 1 -220,0 220,220 0 0 1 0,-220 220,220 0 0 1 220,0 Z" />
    <path
       id="circle7791"
       style="fill:none;stroke-width:1.01911;stroke-linecap:round;stroke-linejoin:round"
       d="M 267.5,0 A 267.5,267.5 0 0 1 0,267.5 267.5,267.5 0 0 1 -267.5,0 267.5,267.5 0 0 1 0,-267.5 267.5,267.5 0 0 1 267.5,0 Z" />
    <path
       id="circle7793"
       style="fill:none;stroke-width:1.05721;stroke-linecap:round;stroke-linejoin:round"
       d="M 277.5,0 A 277.5,277.5 0 0 1 0,277.5 277.5,277.5 0 0 1 -277.5,0 277.5,277.5 0 0 1 0,-277.5 277.5,277.5 0 0 1 277.5,0 Z" />
    <path
       id="circle7795"
       style="fill:none;stroke-width:1.23817;stroke-linecap:round;stroke-linejoin:round"
       d="M 325,0 A 325,325 0 0 1 0,325 325,325 0 0 1 -325,0 325,325 0 0 1 0,-325 325,325 0 0 1 325,0 Z" />
    <path
       id="circle7797"
       style="fill:none;stroke-width:1.27627;stroke-linecap:round;stroke-linejoin:round"
       d="M 335,0 A 335,335 0 0 1 0,335 335,335 0 0 1 -335,0 335,335 0 0 1 0,-335 335,335 0 0 1 335,0 Z" />
    <path
       id="circle7799"
       style="fill:none;stroke-width:1.45723;stroke-linecap:round;stroke-linejoin:round"
       d="M 382.5,0 A 382.5,382.5 0 0 1 0,382.5 382.5,382.5 0 0 1 -382.5,0 382.5,382.5 0 0 1 0,-382.5 382.5,382.5 0 0 1 382.5,0 Z" />
    <path
       id="circle7801"
       style="fill:none;stroke-width:1.49533;stroke-linecap:round;stroke-linejoin:round"
       d="M 392.5,0 A 392.5,392.5 0 0 1 0,392.5 392.5,392.5 0 0 1 -392.5,0 392.5,392.5 0 0 1 0,-392.5 392.5,392.5 0 0 1 392.5,0 Z" />
    <path
       id="circle7803"
       style="fill:none;stroke-width:1.66677;stroke-linecap:round;stroke-linejoin:round"
       d="M 437.5,0 A 437.5,437.5 0 0 1 0,437.5 437.5,437.5 0 0 1 -437.5,0 437.5,437.5 0 0 1 0,-437.5 437.5,437.5 0 0 1 437.5,0 Z" />
    <path
       id="circle7805"
       style="fill:none;stroke-width:1.71439;stroke-linecap:round;stroke-linejoin:round"
       d="M 450,0 A 450,450 0 0 1 0,450 450,450 0 0 1 -450,0 450,450 0 0 1 0,-450 450,450 0 0 1 450,0 Z" />
    <path
       id="circle7807"
       style="fill:none;stroke-width:1.89535;stroke-linecap:round;stroke-linejoin:round"
       d="M 497.5,0 A 497.5,497.5 0 0 1 0,497.5 497.5,497.5 0 0 1 -497.5,0 497.5,497.5 0 0 1 0,-497.5 497.5,497.5 0 0 1 497.5,0 Z" />
    <path
       id="circle7809"
       style="fill:none;stroke-width:1.93345;stroke-linecap:round;stroke-linejoin:round"
       d="M 507.5,0 A 507.5,507.5 0 0 1 0,507.5 507.5,507.5 0 0 1 -507.5,0 507.5,507.5 0 0 1 0,-507.5 507.5,507.5 0 0 1 507.5,0 Z" />
    <path
       id="circle7811"
       style="fill:none;stroke-width:2.10489;stroke-linecap:round;stroke-linejoin:round"
       d="M 552.5,0 A 552.5,552.5 0 0 1 0,552.5 552.5,552.5 0 0 1 -552.5,0 552.5,552.5 0 0 1 0,-552.5 552.5,552.5 0 0 1 552.5,0 Z" />
    <path
       id="circle7836"
       style="fill:none;stroke-width:2.16204;stroke-linecap:round;stroke-linejoin:round"
       d="M 567.5,0 A 567.5,567.5 0 0 1 0,567.5 567.5,567.5 0 0 1 -567.5,0 567.5,567.5 0 0 1 0,-567.5 567.5,567.5 0 0 1 567.5,0 Z" />
    <path
       id="circle7838"
       style="fill:none;stroke-width:2.31443;stroke-linecap:round;stroke-linejoin:round"
       d="M 607.5,0 A 607.5,607.5 0 0 1 0,607.5 607.5,607.5 0 0 1 -607.5,0 607.5,607.5 0 0 1 0,-607.5 607.5,607.5 0 0 1 607.5,0 Z" />
  </g>
  <g
     inkscape:groupmode="layer"
     id="layer4"
     inkscape:label="drill-3.2"
     style="display:inline">
    <path
       id="path8653"
       style="fill:none;stroke-width:0.233035;stroke-linecap:round;stroke-linejoin:round"
       inkscape:transform-center-x="-199.67499"
       inkscape:transform-center-y="-1.1897353e-06"
       d="m 201.27499,0 a 1.6,1.6 0 0 1 -1.6,1.6 1.6,1.6 0 0 1 -1.6,-1.6 1.6,1.6 0 0 1 1.6,-1.6 1.6,1.6 0 0 1 1.6,1.6 z" />
    <path
       id="circle8789"
       style="fill:none;stroke-width:0.233035;stroke-linecap:round;stroke-linejoin:round"
       inkscape:transform-center-x="-172.92366"
       inkscape:transform-center-y="99.837525"
       transform="rotate(30)"
       d="m 201.27505,-8.5536358e-6 a 1.6,1.6 0 0 1 -1.6,1.6000000536358 1.6,1.6 0 0 1 -1.6,-1.6000000536358 1.6,1.6 0 0 1 1.6,-1.6000000463642 1.6,1.6 0 0 1 1.6,1.6000000463642 z" />
    <path
       id="circle8791"
       style="fill:none;stroke-width:0.233035;stroke-linecap:round;stroke-linejoin:round"
       inkscape:transform-center-x="-99.837519"
       inkscape:transform-center-y="172.92366"
       transform="rotate(60)"
       d="m 201.27503,0 a 1.6,1.6 0 0 1 -1.6,1.6 1.6,1.6 0 0 1 -1.6,-1.6 1.6,1.6 0 0 1 1.6,-1.6 1.6,1.6 0 0 1 1.6,1.6 z" />
    <path
       id="circle8793"
       style="fill:none;stroke-width:0.233035;stroke-linecap:round;stroke-linejoin:round"
       inkscape:transform-center-x="-6.2704203e-06"
       inkscape:transform-center-y="199.67505"
       transform="rotate(90)"
       d="m 201.27505,0 a 1.6,1.6 0 0 1 -1.6,1.6 1.6,1.6 0 0 1 -1.6,-1.6 1.6,1.6 0 0 1 1.6,-1.6 1.6,1.6 0 0 1 1.6,1.6 z" />
    <path
       id="circle8795"
       style="fill:none;stroke-width:0.233035;stroke-linecap:round;stroke-linejoin:round"
       inkscape:transform-center-x="99.837521"
       inkscape:transform-center-y="172.92365"
       transform="rotate(120)"
       d="m 201.27503,0 a 1.6,1.6 0 0 1 -1.6,1.6 1.6,1.6 0 0 1 -1.6,-1.6 1.6,1.6 0 0 1 1.6,-1.6 1.6,1.6 0 0 1 1.6,1.6 z" />
    <path
       id="circle8797"
       style="fill:none;stroke-width:0.233035;stroke-linecap:round;stroke-linejoin:round"
       inkscape:transform-center-x="172.92366"
       inkscape:transform-center-y="99.837511"
       transform="rotate(150)"
       d="m 201.27505,8.5536349e-6 a 1.6,1.6 0 0 1 -1.6,1.6000000463651 1.6,1.6 0 0 1 -1.6,-1.6000000463651 1.6,1.6 0 0 1 1.6,-1.6000000536349 1.6,1.6 0 0 1 1.6,1.6000000536349 z" />
    <path
       id="circle8799"
       style="fill:none;stroke-width:0.233035;stroke-linecap:round;stroke-linejoin:round"
       inkscape:transform-center-x="199.67505"
       inkscape:transform-center-y="-2.6538201e-06"
       transform="scale(-1)"
       d="m 201.27505,0 a 1.6,1.6 0 0 1 -1.6,1.6 1.6,1.6 0 0 1 -1.6,-1.6 1.6,1.6 0 0 1 1.6,-1.6 1.6,1.6 0 0 1 1.6,1.6 z" />
    <path
       id="circle8801"
       style="fill:none;stroke-width:0.233035;stroke-linecap:round;stroke-linejoin:round"
       inkscape:transform-center-x="172.92367"
       inkscape:transform-center-y="-99.837539"
       transform="rotate(-150)"
       d="m 201.27505,8.5536349e-6 a 1.6,1.6 0 0 1 -1.6,1.6000000463651 1.6,1.6 0 0 1 -1.6,-1.6000000463651 1.6,1.6 0 0 1 1.6,-1.6000000536349 1.6,1.6 0 0 1 1.6,1.6000000536349 z" />
    <path
       id="circle8803"
       style="fill:none;stroke-width:0.233035;stroke-linecap:round;stroke-linejoin:round"
       inkscape:transform-center-x="99.837525"
       inkscape:transform-center-y="-172.92368"
       transform="rotate(-120)"
       d="m 201.27506,0 a 1.6,1.6 0 0 1 -1.6,1.6 1.6,1.6 0 0 1 -1.6,-1.6 1.6,1.6 0 0 1 1.6,-1.6 1.6,1.6 0 0 1 1.6,1.6 z" />
    <path
       id="circle8805"
       style="fill:none;stroke-width:0.233035;stroke-linecap:round;stroke-linejoin:round"
       inkscape:transform-center-x="2.1159534e-06"
       inkscape:transform-center-y="-199.67505"
       transform="rotate(-90)"
       d="m 201.27505,0 a 1.6,1.6 0 0 1 -1.6,1.6 1.6,1.6 0 0 1 -1.6,-1.6 1.6,1.6 0 0 1 1.6,-1.6 1.6,1.6 0 0 1 1.6,1.6 z" />
    <path
       id="circle8807"
       style="fill:none;stroke-width:0.233035;stroke-linecap:round;stroke-linejoin:round"
       inkscape:transform-center-x="-99.837515"
       inkscape:transform-center-y="-172.92367"
       transform="rotate(-60)"
       d="m 201.27506,0 a 1.6,1.6 0 0 1 -1.6,1.6 1.6,1.6 0 0 1 -1.6,-1.6 1.6,1.6 0 0 1 1.6,-1.6 1.6,1.6 0 0 1 1.6,1.6 z" />
    <path
       id="circle8809"
       style="fill:none;stroke-width:0.233035;stroke-linecap:round;stroke-linejoin:round"
       inkscape:transform-center-x="-172.92365"
       inkscape:transform-center-y="-99.837528"
       transform="rotate(-30)"
       d="m 201.27505,-8.5536349e-6 a 1.6,1.6 0 0 1 -1.6,1.6000000536349 1.6,1.6 0 0 1 -1.6,-1.6000000536349 1.6,1.6 0 0 1 1.6,-1.6000000463651 1.6,1.6 0 0 1 1.6,1.6000000463651 z" />
    <path
       id="circle8811"
       style="fill:none;stroke-width:0.233035;stroke-linecap:round;stroke-linejoin:round"
       inkscape:transform-center-x="-314.85803"
       inkscape:transform-center-y="-1.1897353e-06"
       d="m 316.45803,0 a 1.6,1.6 0 0 1 -1.6,1.6 1.6,1.6 0 0 1 -1.6,-1.6 1.6,1.6 0 0 1 1.6,-1.6 1.6,1.6 0 0 1 1.6,1.6 z" />
    <path
       id="circle8813"
       style="fill:none;stroke-width:0.233035;stroke-linecap:round;stroke-linejoin:round"
       inkscape:transform-center-x="-272.67505"
       inkscape:transform-center-y="157.429"
       transform="rotate(30)"
       d="m 316.45803,-8.5536358e-6 a 1.6,1.6 0 0 1 -1.6,1.6000000536358 1.6,1.6 0 0 1 -1.6,-1.6000000536358 1.6,1.6 0 0 1 1.6,-1.6000000463642 1.6,1.6 0 0 1 1.6,1.6000000463642 z" />
    <path
       id="circle8815"
       style="fill:none;stroke-width:0.233035;stroke-linecap:round;stroke-linejoin:round"
       inkscape:transform-center-x="-157.42902"
       inkscape:transform-center-y="272.67504"
       transform="rotate(60)"
       d="m 316.45803,0 a 1.6,1.6 0 0 1 -1.6,1.6 1.6,1.6 0 0 1 -1.6,-1.6 1.6,1.6 0 0 1 1.6,-1.6 1.6,1.6 0 0 1 1.6,1.6 z" />
    <path
       id="circle8817"
       style="fill:none;stroke-width:0.233035;stroke-linecap:round;stroke-linejoin:round"
       inkscape:transform-center-x="-2.3567027e-06"
       inkscape:transform-center-y="314.85803"
       transform="rotate(90)"
       d="m 316.45803,0 a 1.6,1.6 0 0 1 -1.6,1.6 1.6,1.6 0 0 1 -1.6,-1.6 1.6,1.6 0 0 1 1.6,-1.6 1.6,1.6 0 0 1 1.6,1.6 z" />
    <path
       id="circle8819"
       style="fill:none;stroke-width:0.233035;stroke-linecap:round;stroke-linejoin:round"
       inkscape:transform-center-x="157.42902"
       inkscape:transform-center-y="272.67504"
       transform="rotate(120)"
       d="m 316.45803,0 a 1.6,1.6 0 0 1 -1.6,1.6 1.6,1.6 0 0 1 -1.6,-1.6 1.6,1.6 0 0 1 1.6,-1.6 1.6,1.6 0 0 1 1.6,1.6 z" />
    <path
       id="circle8821"
       style="fill:none;stroke-width:0.233035;stroke-linecap:round;stroke-linejoin:round"
       inkscape:transform-center-x="272.67505"
       inkscape:transform-center-y="157.429"
       transform="rotate(150)"
       d="m 316.45803,8.5536349e-6 a 1.6,1.6 0 0 1 -1.6,1.6000000463651 1.6,1.6 0 0 1 -1.6,-1.6000000463651 1.6,1.6 0 0 1 1.6,-1.6000000536349 1.6,1.6 0 0 1 1.6,1.6000000536349 z" />
    <path
       id="circle8823"
       style="fill:none;stroke-width:0.233035;stroke-linecap:round;stroke-linejoin:round"
       inkscape:transform-center-x="314.85803"
       inkscape:transform-center-y="-5.3530389e-06"
       transform="scale(-1)"
       d="m 316.45803,0 a 1.6,1.6 0 0 1 -1.6,1.6 1.6,1.6 0 0 1 -1.6,-1.6 1.6,1.6 0 0 1 1.6,-1.6 1.6,1.6 0 0 1 1.6,1.6 z" />
    <path
       id="circle8825"
       style="fill:none;stroke-width:0.233035;stroke-linecap:round;stroke-linejoin:round"
       inkscape:transform-center-x="314.85803"
       inkscape:transform-center-y="-5.3530389e-06"
       transform="scale(-1)"
       d="m 316.45803,0 a 1.6,1.6 0 0 1 -1.6,1.6 1.6,1.6 0 0 1 -1.6,-1.6 1.6,1.6 0 0 1 1.6,-1.6 1.6,1.6 0 0 1 1.6,1.6 z" />
    <path
       id="circle8827"
       style="fill:none;stroke-width:0.233035;stroke-linecap:round;stroke-linejoin:round"
       inkscape:transform-center-x="272.67506"
       inkscape:transform-center-y="-157.42902"
       transform="rotate(-150)"
       d="m 316.45803,8.5536358e-6 a 1.6,1.6 0 0 1 -1.6,1.6000000463642 1.6,1.6 0 0 1 -1.6,-1.6000000463642 1.6,1.6 0 0 1 1.6,-1.6000000536358 1.6,1.6 0 0 1 1.6,1.6000000536358 z" />
    <path
       id="circle8829"
       style="fill:none;stroke-width:0.233035;stroke-linecap:round;stroke-linejoin:round"
       inkscape:transform-center-x="272.67506"
       inkscape:transform-center-y="-157.42902"
       transform="rotate(-150)"
       d="m 316.45803,8.5536358e-6 a 1.6,1.6 0 0 1 -1.6,1.6000000463642 1.6,1.6 0 0 1 -1.6,-1.6000000463642 1.6,1.6 0 0 1 1.6,-1.6000000536358 1.6,1.6 0 0 1 1.6,1.6000000536358 z" />
    <path
       id="circle8831"
       style="fill:none;stroke-width:0.233035;stroke-linecap:round;stroke-linejoin:round"
       inkscape:transform-center-x="272.67506"
       inkscape:transform-center-y="-157.42902"
       transform="rotate(-150)"
       d="m 316.45803,8.5536358e-6 a 1.6,1.6 0 0 1 -1.6,1.6000000463642 1.6,1.6 0 0 1 -1.6,-1.6000000463642 1.6,1.6 0 0 1 1.6,-1.6000000536358 1.6,1.6 0 0 1 1.6,1.6000000536358 z" />
    <path
       id="circle8833"
       style="fill:none;stroke-width:0.233035;stroke-linecap:round;stroke-linejoin:round"
       inkscape:transform-center-x="157.42902"
       inkscape:transform-center-y="-272.67506"
       transform="rotate(-120)"
       d="m 316.45803,0 a 1.6,1.6 0 0 1 -1.6,1.6 1.6,1.6 0 0 1 -1.6,-1.6 1.6,1.6 0 0 1 1.6,-1.6 1.6,1.6 0 0 1 1.6,1.6 z" />
    <path
       id="circle8835"
       style="fill:none;stroke-width:0.233035;stroke-linecap:round;stroke-linejoin:round"
       inkscape:transform-center-x="-7.7977642e-06"
       inkscape:transform-center-y="-314.85803"
       transform="rotate(-90)"
       d="m 316.45803,0 a 1.6,1.6 0 0 1 -1.6,1.6 1.6,1.6 0 0 1 -1.6,-1.6 1.6,1.6 0 0 1 1.6,-1.6 1.6,1.6 0 0 1 1.6,1.6 z" />
    <path
       id="circle8837"
       style="fill:none;stroke-width:0.233035;stroke-linecap:round;stroke-linejoin:round"
       inkscape:transform-center-x="-157.42901"
       inkscape:transform-center-y="-272.67505"
       transform="rotate(-60)"
       d="m 316.45803,0 a 1.6,1.6 0 0 1 -1.6,1.6 1.6,1.6 0 0 1 -1.6,-1.6 1.6,1.6 0 0 1 1.6,-1.6 1.6,1.6 0 0 1 1.6,1.6 z" />
    <path
       id="circle8839"
       style="fill:none;stroke-width:0.233035;stroke-linecap:round;stroke-linejoin:round"
       inkscape:transform-center-x="-272.67505"
       inkscape:transform-center-y="-157.42902"
       transform="rotate(-30)"
       d="m 316.45803,-8.5536349e-6 a 1.6,1.6 0 0 1 -1.6,1.6000000536349 1.6,1.6 0 0 1 -1.6,-1.6000000536349 1.6,1.6 0 0 1 1.6,-1.6000000463651 1.6,1.6 0 0 1 1.6,1.6000000463651 z" />
    <path
       id="circle8841"
       style="fill:none;stroke-width:0.233035;stroke-linecap:round;stroke-linejoin:round"
       inkscape:transform-center-x="-424.65796"
       inkscape:transform-center-y="-1.1897353e-06"
       d="m 426.25796,0 a 1.6,1.6 0 0 1 -1.6,1.6 1.6,1.6 0 0 1 -1.6,-1.6 1.6,1.6 0 0 1 1.6,-1.6 1.6,1.6 0 0 1 1.6,1.6 z" />
    <path
       id="circle8947"
       style="fill:none;stroke-width:0.233035;stroke-linecap:round;stroke-linejoin:round"
       inkscape:transform-center-x="-367.76457"
       inkscape:transform-center-y="212.32898"
       transform="rotate(30)"
       d="m 426.25796,-8.5536358e-6 a 1.6,1.6 0 0 1 -1.6,1.6000000536358 1.6,1.6 0 0 1 -1.6,-1.6000000536358 1.6,1.6 0 0 1 1.6,-1.6000000463642 1.6,1.6 0 0 1 1.6,1.6000000463642 z" />
    <path
       id="circle8949"
       style="fill:none;stroke-width:0.233035;stroke-linecap:round;stroke-linejoin:round"
       inkscape:transform-center-x="-212.32897"
       inkscape:transform-center-y="367.76458"
       transform="rotate(60)"
       d="m 426.25796,0 a 1.6,1.6 0 0 1 -1.6,1.6 1.6,1.6 0 0 1 -1.6,-1.6 1.6,1.6 0 0 1 1.6,-1.6 1.6,1.6 0 0 1 1.6,1.6 z" />
    <path
       id="circle8951"
       style="fill:none;stroke-width:0.233035;stroke-linecap:round;stroke-linejoin:round"
       inkscape:transform-center-x="-2.1922953e-06"
       inkscape:transform-center-y="424.65796"
       transform="rotate(90)"
       d="m 426.25796,0 a 1.6,1.6 0 0 1 -1.6,1.6 1.6,1.6 0 0 1 -1.6,-1.6 1.6,1.6 0 0 1 1.6,-1.6 1.6,1.6 0 0 1 1.6,1.6 z" />
    <path
       id="circle8953"
       style="fill:none;stroke-width:0.233035;stroke-linecap:round;stroke-linejoin:round"
       inkscape:transform-center-x="212.32898"
       inkscape:transform-center-y="367.76457"
       transform="rotate(120)"
       d="m 426.25796,0 a 1.6,1.6 0 0 1 -1.6,1.6 1.6,1.6 0 0 1 -1.6,-1.6 1.6,1.6 0 0 1 1.6,-1.6 1.6,1.6 0 0 1 1.6,1.6 z" />
    <path
       id="circle8955"
       style="fill:none;stroke-width:0.233035;stroke-linecap:round;stroke-linejoin:round"
       inkscape:transform-center-x="367.76458"
       inkscape:transform-center-y="212.32897"
       transform="rotate(150)"
       d="m 426.25796,8.5536349e-6 a 1.6,1.6 0 0 1 -1.6,1.6000000463651 1.6,1.6 0 0 1 -1.6,-1.6000000463651 1.6,1.6 0 0 1 1.6,-1.6000000536349 1.6,1.6 0 0 1 1.6,1.6000000536349 z" />
    <path
       id="circle8957"
       style="fill:none;stroke-width:0.233035;stroke-linecap:round;stroke-linejoin:round"
       inkscape:transform-center-x="424.65796"
       inkscape:transform-center-y="1.2680549e-06"
       transform="scale(-1)"
       d="m 426.25796,0 a 1.6,1.6 0 0 1 -1.6,1.6 1.6,1.6 0 0 1 -1.6,-1.6 1.6,1.6 0 0 1 1.6,-1.6 1.6,1.6 0 0 1 1.6,1.6 z" />
    <path
       id="circle8959"
       style="fill:none;stroke-width:0.233035;stroke-linecap:round;stroke-linejoin:round"
       inkscape:transform-center-x="367.76459"
       inkscape:transform-center-y="-212.32898"
       transform="rotate(-150)"
       d="m 426.25796,8.5536358e-6 a 1.6,1.6 0 0 1 -1.6,1.6000000463642 1.6,1.6 0 0 1 -1.6,-1.6000000463642 1.6,1.6 0 0 1 1.6,-1.6000000536358 1.6,1.6 0 0 1 1.6,1.6000000536358 z" />
    <path
       id="circle8961"
       style="fill:none;stroke-width:0.233035;stroke-linecap:round;stroke-linejoin:round"
       inkscape:transform-center-x="212.32899"
       inkscape:transform-center-y="-367.76459"
       transform="rotate(-120)"
       d="m 426.25796,0 a 1.6,1.6 0 0 1 -1.6,1.6 1.6,1.6 0 0 1 -1.6,-1.6 1.6,1.6 0 0 1 1.6,-1.6 1.6,1.6 0 0 1 1.6,1.6 z" />
    <path
       id="circle8963"
       style="fill:none;stroke-width:0.233035;stroke-linecap:round;stroke-linejoin:round"
       inkscape:transform-center-x="-1.1766705e-06"
       inkscape:transform-center-y="-424.65797"
       transform="rotate(-90)"
       d="m 426.25796,0 a 1.6,1.6 0 0 1 -1.6,1.6 1.6,1.6 0 0 1 -1.6,-1.6 1.6,1.6 0 0 1 1.6,-1.6 1.6,1.6 0 0 1 1.6,1.6 z" />
    <path
       id="circle8965"
       style="fill:none;stroke-width:0.233035;stroke-linecap:round;stroke-linejoin:round"
       inkscape:transform-center-x="-212.32897"
       inkscape:transform-center-y="-367.76459"
       transform="rotate(-60)"
       d="m 426.25796,0 a 1.6,1.6 0 0 1 -1.6,1.6 1.6,1.6 0 0 1 -1.6,-1.6 1.6,1.6 0 0 1 1.6,-1.6 1.6,1.6 0 0 1 1.6,1.6 z" />
    <path
       id="circle8967"
       style="fill:none;stroke-width:0.233035;stroke-linecap:round;stroke-linejoin:round"
       inkscape:transform-center-x="-367.76457"
       inkscape:transform-center-y="-212.32899"
       transform="rotate(-30)"
       d="m 426.25796,-8.5536349e-6 a 1.6,1.6 0 0 1 -1.6,1.6000000536349 1.6,1.6 0 0 1 -1.6,-1.6000000536349 1.6,1.6 0 0 1 1.6,-1.6000000463651 1.6,1.6 0 0 1 1.6,1.6000000463651 z" />
    <path
       id="circle8969"
       style="fill:none;stroke-width:0.233035;stroke-linecap:round;stroke-linejoin:round"
       inkscape:transform-center-x="-538.62695"
       d="m 540.22695,0 a 1.6,1.6 0 0 1 -1.6,1.6 1.6,1.6 0 0 1 -1.6,-1.6 1.6,1.6 0 0 1 1.6,-1.6 1.6,1.6 0 0 1 1.6,1.6 z" />
    <path
       id="circle8971"
       style="fill:none;stroke-width:0.233035;stroke-linecap:round;stroke-linejoin:round"
       inkscape:transform-center-x="-466.46462"
       inkscape:transform-center-y="269.31346"
       transform="rotate(30)"
       d="m 540.22695,-8.5536358e-6 a 1.6,1.6 0 0 1 -1.6,1.6000000536358 1.6,1.6 0 0 1 -1.6,-1.6000000536358 1.6,1.6 0 0 1 1.6,-1.6000000463642 1.6,1.6 0 0 1 1.6,1.6000000463642 z" />
    <path
       id="circle8973"
       style="fill:none;stroke-width:0.233035;stroke-linecap:round;stroke-linejoin:round"
       inkscape:transform-center-x="-269.31348"
       inkscape:transform-center-y="466.46461"
       transform="rotate(60)"
       d="m 540.22695,0 a 1.6,1.6 0 0 1 -1.6,1.6 1.6,1.6 0 0 1 -1.6,-1.6 1.6,1.6 0 0 1 1.6,-1.6 1.6,1.6 0 0 1 1.6,1.6 z" />
    <path
       id="circle8975"
       style="fill:none;stroke-width:0.233035;stroke-linecap:round;stroke-linejoin:round"
       inkscape:transform-center-x="-1.9074839e-06"
       inkscape:transform-center-y="538.62695"
       transform="rotate(90)"
       d="m 540.22695,0 a 1.6,1.6 0 0 1 -1.6,1.6 1.6,1.6 0 0 1 -1.6,-1.6 1.6,1.6 0 0 1 1.6,-1.6 1.6,1.6 0 0 1 1.6,1.6 z" />
    <path
       id="circle8977"
       style="fill:none;stroke-width:0.233035;stroke-linecap:round;stroke-linejoin:round"
       inkscape:transform-center-x="269.31348"
       inkscape:transform-center-y="466.46461"
       transform="rotate(120)"
       d="m 540.22695,0 a 1.6,1.6 0 0 1 -1.6,1.6 1.6,1.6 0 0 1 -1.6,-1.6 1.6,1.6 0 0 1 1.6,-1.6 1.6,1.6 0 0 1 1.6,1.6 z" />
    <path
       id="circle8979"
       style="fill:none;stroke-width:0.233035;stroke-linecap:round;stroke-linejoin:round"
       inkscape:transform-center-x="466.46461"
       inkscape:transform-center-y="269.31346"
       transform="rotate(150)"
       d="m 540.22695,8.5536349e-6 a 1.6,1.6 0 0 1 -1.6,1.6000000463651 1.6,1.6 0 0 1 -1.6,-1.6000000463651 1.6,1.6 0 0 1 1.6,-1.6000000536349 1.6,1.6 0 0 1 1.6,1.6000000536349 z" />
    <path
       id="circle8981"
       style="fill:none;stroke-width:0.233035;stroke-linecap:round;stroke-linejoin:round"
       inkscape:transform-center-x="538.62693"
       inkscape:transform-center-y="1.8271369e-06"
       transform="scale(-1)"
       d="m 540.22695,0 a 1.6,1.6 0 0 1 -1.6,1.6 1.6,1.6 0 0 1 -1.6,-1.6 1.6,1.6 0 0 1 1.6,-1.6 1.6,1.6 0 0 1 1.6,1.6 z" />
    <path
       id="circle8983"
       style="fill:none;stroke-width:0.233035;stroke-linecap:round;stroke-linejoin:round"
       inkscape:transform-center-x="466.46461"
       inkscape:transform-center-y="-269.31346"
       transform="rotate(-150)"
       d="m 540.22695,8.5536358e-6 a 1.6,1.6 0 0 1 -1.6,1.6000000463642 1.6,1.6 0 0 1 -1.6,-1.6000000463642 1.6,1.6 0 0 1 1.6,-1.6000000536358 1.6,1.6 0 0 1 1.6,1.6000000536358 z" />
    <path
       id="circle8985"
       style="fill:none;stroke-width:0.233035;stroke-linecap:round;stroke-linejoin:round"
       inkscape:transform-center-x="269.31347"
       inkscape:transform-center-y="-466.4646"
       transform="rotate(-120)"
       d="m 540.22695,0 a 1.6,1.6 0 0 1 -1.6,1.6 1.6,1.6 0 0 1 -1.6,-1.6 1.6,1.6 0 0 1 1.6,-1.6 1.6,1.6 0 0 1 1.6,1.6 z" />
    <path
       id="circle8987"
       style="fill:none;stroke-width:0.233035;stroke-linecap:round;stroke-linejoin:round"
       inkscape:transform-center-x="-2.988194e-06"
       inkscape:transform-center-y="-538.62693"
       transform="rotate(-90)"
       d="m 540.22695,0 a 1.6,1.6 0 0 1 -1.6,1.6 1.6,1.6 0 0 1 -1.6,-1.6 1.6,1.6 0 0 1 1.6,-1.6 1.6,1.6 0 0 1 1.6,1.6 z" />
    <path
       id="circle8989"
       style="fill:none;stroke-width:0.233035;stroke-linecap:round;stroke-linejoin:round"
       inkscape:transform-center-x="-269.31346"
       inkscape:transform-center-y="-466.46461"
       transform="rotate(-60)"
       d="m 540.22695,0 a 1.6,1.6 0 0 1 -1.6,1.6 1.6,1.6 0 0 1 -1.6,-1.6 1.6,1.6 0 0 1 1.6,-1.6 1.6,1.6 0 0 1 1.6,1.6 z" />
    <path
       id="circle8991"
       style="fill:none;stroke-width:0.233035;stroke-linecap:round;stroke-linejoin:round"
       inkscape:transform-center-x="-466.46461"
       inkscape:transform-center-y="-269.31348"
       transform="rotate(-30)"
       d="m 540.22695,-8.5536349e-6 a 1.6,1.6 0 0 1 -1.6,1.6000000536349 1.6,1.6 0 0 1 -1.6,-1.6000000536349 1.6,1.6 0 0 1 1.6,-1.6000000463651 1.6,1.6 0 0 1 1.6,1.6000000463651 z" />
  </g>
  <g
     inkscape:groupmode="layer"
     id="layer2"
     inkscape:label="drill-5.2"
     style="display:inline">
    <path
       id="path7894"
       style="fill:none;stroke-width:0.0946703;stroke-linecap:round;stroke-linejoin:round"
       inkscape:transform-center-x="-119.716"
       inkscape:transform-center-y="-1.1897353e-06"
       d="m 122.316,0 a 2.5999999,2.5999999 0 0 1 -2.6,2.5999999 A 2.5999999,2.5999999 0 0 1 117.116,0 2.5999999,2.5999999 0 0 1 119.716,-2.5999999 2.5999999,2.5999999 0 0 1 122.316,0 Z" />
    <path
       id="circle7952"
       style="fill:none;stroke-width:0.0946703;stroke-linecap:round;stroke-linejoin:round"
       inkscape:transform-center-x="-59.858"
       inkscape:transform-center-y="103.67709"
       transform="rotate(60)"
       d="m 122.316,0 a 2.5999999,2.5999999 0 0 1 -2.6,2.5999999 A 2.5999999,2.5999999 0 0 1 117.116,0 2.5999999,2.5999999 0 0 1 119.716,-2.5999999 2.5999999,2.5999999 0 0 1 122.316,0 Z" />
    <path
       id="circle7954"
       style="fill:none;stroke-width:0.0946703;stroke-linecap:round;stroke-linejoin:round"
       inkscape:transform-center-x="59.858008"
       inkscape:transform-center-y="103.67709"
       transform="rotate(120)"
       d="m 122.316,0 a 2.5999999,2.5999999 0 0 1 -2.6,2.5999999 A 2.5999999,2.5999999 0 0 1 117.116,0 2.5999999,2.5999999 0 0 1 119.716,-2.5999999 2.5999999,2.5999999 0 0 1 122.316,0 Z" />
    <path
       id="circle7956"
       style="fill:none;stroke-width:0.0946703;stroke-linecap:round;stroke-linejoin:round"
       inkscape:transform-center-x="119.71601"
       inkscape:transform-center-y="1.4849776e-06"
       transform="scale(-1)"
       d="m 122.316,0 a 2.5999999,2.5999999 0 0 1 -2.6,2.5999999 A 2.5999999,2.5999999 0 0 1 117.116,0 2.5999999,2.5999999 0 0 1 119.716,-2.5999999 2.5999999,2.5999999 0 0 1 122.316,0 Z" />
    <path
       id="circle7958"
       style="fill:none;stroke-width:0.0946703;stroke-linecap:round;stroke-linejoin:round"
       inkscape:transform-center-x="59.858007"
       inkscape:transform-center-y="-103.67711"
       transform="rotate(-120)"
       d="m 122.31601,0 a 2.5999999,2.5999999 0 0 1 -2.6,2.5999999 2.5999999,2.5999999 0 0 1 -2.6,-2.5999999 2.5999999,2.5999999 0 0 1 2.6,-2.5999999 2.5999999,2.5999999 0 0 1 2.6,2.5999999 z" />
    <path
       id="circle7960"
       style="fill:none;stroke-width:0.0946703;stroke-linecap:round;stroke-linejoin:round"
       inkscape:transform-center-x="-59.857996"
       inkscape:transform-center-y="-103.67712"
       transform="rotate(-60)"
       d="m 122.31601,0 a 2.5999999,2.5999999 0 0 1 -2.6,2.5999999 2.5999999,2.5999999 0 0 1 -2.6,-2.5999999 2.5999999,2.5999999 0 0 1 2.6,-2.5999999 2.5999999,2.5999999 0 0 1 2.6,2.5999999 z" />
    <path
       id="circle7962"
       style="fill:none;stroke-width:0.0946703;stroke-linecap:round;stroke-linejoin:round"
       inkscape:transform-center-x="-242.48999"
       inkscape:transform-center-y="-1.1897353e-06"
       d="m 245.08999,0 a 2.5999999,2.5999999 0 0 1 -2.6,2.5999999 2.5999999,2.5999999 0 0 1 -2.6,-2.5999999 2.5999999,2.5999999 0 0 1 2.6,-2.5999999 2.5999999,2.5999999 0 0 1 2.6,2.5999999 z" />
    <path
       id="circle7964"
       style="fill:none;stroke-width:0.0946703;stroke-linecap:round;stroke-linejoin:round"
       inkscape:transform-center-x="-121.245"
       inkscape:transform-center-y="210.00248"
       transform="rotate(60)"
       d="m 245.08997,0 a 2.5999999,2.5999999 0 0 1 -2.6,2.5999999 A 2.5999999,2.5999999 0 0 1 239.88998,0 2.5999999,2.5999999 0 0 1 242.48997,-2.5999999 2.5999999,2.5999999 0 0 1 245.08997,0 Z" />
    <path
       id="circle7966"
       style="fill:none;stroke-width:0.0946703;stroke-linecap:round;stroke-linejoin:round"
       inkscape:transform-center-x="121.24499"
       inkscape:transform-center-y="210.00248"
       transform="rotate(120)"
       d="m 245.08997,0 a 2.5999999,2.5999999 0 0 1 -2.6,2.5999999 A 2.5999999,2.5999999 0 0 1 239.88998,0 2.5999999,2.5999999 0 0 1 242.48997,-2.5999999 2.5999999,2.5999999 0 0 1 245.08997,0 Z" />
    <path
       id="circle7968"
       style="fill:none;stroke-width:0.0946703;stroke-linecap:round;stroke-linejoin:round"
       inkscape:transform-center-x="242.48998"
       transform="scale(-1)"
       d="m 245.08999,0 a 2.5999999,2.5999999 0 0 1 -2.6,2.5999999 2.5999999,2.5999999 0 0 1 -2.6,-2.5999999 2.5999999,2.5999999 0 0 1 2.6,-2.5999999 2.5999999,2.5999999 0 0 1 2.6,2.5999999 z" />
    <path
       id="circle7970"
       style="fill:none;stroke-width:0.0946703;stroke-linecap:round;stroke-linejoin:round"
       inkscape:transform-center-x="121.245"
       inkscape:transform-center-y="-210.00249"
       transform="rotate(-120)"
       d="m 245.09001,0 a 2.5999999,2.5999999 0 0 1 -2.6,2.5999999 2.5999999,2.5999999 0 0 1 -2.6,-2.5999999 2.5999999,2.5999999 0 0 1 2.6,-2.5999999 2.5999999,2.5999999 0 0 1 2.6,2.5999999 z" />
    <path
       id="circle7972"
       style="fill:none;stroke-width:0.0946703;stroke-linecap:round;stroke-linejoin:round"
       inkscape:transform-center-x="-121.245"
       inkscape:transform-center-y="-210.00249"
       transform="rotate(-60)"
       d="m 245.09001,0 a 2.5999999,2.5999999 0 0 1 -2.6,2.5999999 2.5999999,2.5999999 0 0 1 -2.6,-2.5999999 2.5999999,2.5999999 0 0 1 2.6,-2.5999999 2.5999999,2.5999999 0 0 1 2.6,2.5999999 z" />
    <path
       id="circle7974"
       style="fill:none;stroke-width:0.0946703;stroke-linecap:round;stroke-linejoin:round"
       inkscape:transform-center-x="-355.60999"
       inkscape:transform-center-y="-1.1897353e-06"
       d="m 358.20999,0 a 2.5999999,2.5999999 0 0 1 -2.6,2.5999999 2.5999999,2.5999999 0 0 1 -2.6,-2.5999999 2.5999999,2.5999999 0 0 1 2.6,-2.5999999 2.5999999,2.5999999 0 0 1 2.6,2.5999999 z" />
    <path
       id="circle7976"
       style="fill:none;stroke-width:0.0946703;stroke-linecap:round;stroke-linejoin:round"
       inkscape:transform-center-x="-287.69457"
       inkscape:transform-center-y="209.02233"
       transform="rotate(36)"
       d="m 358.21005,-2.3394497e-5 a 2.5999999,2.5999999 0 0 1 -2.6,2.599999894497 2.5999999,2.5999999 0 0 1 -2.6,-2.599999894497 2.5999999,2.5999999 0 0 1 2.6,-2.599999905503 2.5999999,2.5999999 0 0 1 2.6,2.599999905503 z" />
    <path
       id="circle7978"
       style="fill:none;stroke-width:0.0946703;stroke-linecap:round;stroke-linejoin:round"
       inkscape:transform-center-x="-109.88955"
       inkscape:transform-center-y="338.20526"
       transform="rotate(72)"
       d="m 358.21008,7.1230806e-6 a 2.5999999,2.5999999 0 0 1 -2.6,2.5999998769194 2.5999999,2.5999999 0 0 1 -2.6,-2.5999998769194 2.5999999,2.5999999 0 0 1 2.6,-2.5999999230806 2.5999999,2.5999999 0 0 1 2.6,2.5999999230806 z" />
    <path
       id="circle7980"
       style="fill:none;stroke-width:0.0946703;stroke-linecap:round;stroke-linejoin:round"
       inkscape:transform-center-x="109.88953"
       inkscape:transform-center-y="338.20525"
       transform="rotate(108)"
       d="m 358.21002,-7.1230811e-6 a 2.5999999,2.5999999 0 0 1 -2.6,2.5999999230811 2.5999999,2.5999999 0 0 1 -2.6,-2.5999999230811 2.5999999,2.5999999 0 0 1 2.6,-2.5999998769189 2.5999999,2.5999999 0 0 1 2.6,2.5999998769189 z" />
    <path
       id="circle7982"
       style="fill:none;stroke-width:0.0946703;stroke-linecap:round;stroke-linejoin:round"
       inkscape:transform-center-x="287.69457"
       inkscape:transform-center-y="209.02233"
       transform="rotate(144)"
       d="m 358.21005,2.3394497e-5 a 2.5999999,2.5999999 0 0 1 -2.6,2.599999905503 2.5999999,2.5999999 0 0 1 -2.6,-2.599999905503 2.5999999,2.5999999 0 0 1 2.6,-2.599999894497 2.5999999,2.5999999 0 0 1 2.6,2.599999894497 z" />
    <path
       id="circle7984"
       style="fill:none;stroke-width:0.0946703;stroke-linecap:round;stroke-linejoin:round"
       inkscape:transform-center-x="355.61004"
       inkscape:transform-center-y="-2.8255973e-06"
       transform="scale(-1)"
       d="m 358.21005,0 a 2.5999999,2.5999999 0 0 1 -2.6,2.5999999 2.5999999,2.5999999 0 0 1 -2.6,-2.5999999 2.5999999,2.5999999 0 0 1 2.6,-2.5999999 2.5999999,2.5999999 0 0 1 2.6,2.5999999 z" />
    <path
       id="circle7986"
       style="fill:none;stroke-width:0.0946703;stroke-linecap:round;stroke-linejoin:round"
       inkscape:transform-center-x="287.69457"
       inkscape:transform-center-y="-209.02235"
       transform="rotate(-144)"
       d="m 358.21005,2.3394497e-5 a 2.5999999,2.5999999 0 0 1 -2.6,2.599999905503 2.5999999,2.5999999 0 0 1 -2.6,-2.599999905503 2.5999999,2.5999999 0 0 1 2.6,-2.599999894497 2.5999999,2.5999999 0 0 1 2.6,2.599999894497 z" />
    <path
       id="circle7988"
       style="fill:none;stroke-width:0.0946703;stroke-linecap:round;stroke-linejoin:round"
       inkscape:transform-center-x="109.88955"
       inkscape:transform-center-y="-338.20527"
       transform="rotate(-108)"
       d="m 358.21008,-7.1230811e-6 a 2.5999999,2.5999999 0 0 1 -2.6,2.5999999230811 2.5999999,2.5999999 0 0 1 -2.6,-2.5999999230811 2.5999999,2.5999999 0 0 1 2.6,-2.5999998769189 2.5999999,2.5999999 0 0 1 2.6,2.5999998769189 z" />
    <path
       id="circle7990"
       style="fill:none;stroke-width:0.0946703;stroke-linecap:round;stroke-linejoin:round"
       inkscape:transform-center-x="-109.88957"
       inkscape:transform-center-y="-338.20526"
       transform="rotate(-72)"
       d="m 358.21008,7.1230811e-6 a 2.5999999,2.5999999 0 0 1 -2.6,2.5999998769189 2.5999999,2.5999999 0 0 1 -2.6,-2.5999998769189 2.5999999,2.5999999 0 0 1 2.6,-2.5999999230811 2.5999999,2.5999999 0 0 1 2.6,2.5999999230811 z" />
    <path
       id="circle7992"
       style="fill:none;stroke-width:0.0946703;stroke-linecap:round;stroke-linejoin:round"
       inkscape:transform-center-x="-287.69457"
       inkscape:transform-center-y="-209.02234"
       transform="rotate(-36)"
       d="m 358.21005,-2.3394497e-5 a 2.5999999,2.5999999 0 0 1 -2.6,2.599999894497 2.5999999,2.5999999 0 0 1 -2.6,-2.599999894497 2.5999999,2.5999999 0 0 1 2.6,-2.599999905503 2.5999999,2.5999999 0 0 1 2.6,2.599999905503 z" />
    <path
       id="circle7994"
       style="fill:none;stroke-width:0.0946703;stroke-linecap:round;stroke-linejoin:round"
       inkscape:transform-center-x="-469.87402"
       inkscape:transform-center-y="-1.1897353e-06"
       d="m 472.47402,0 a 2.5999999,2.5999999 0 0 1 -2.6,2.5999999 2.5999999,2.5999999 0 0 1 -2.6,-2.5999999 2.5999999,2.5999999 0 0 1 2.6,-2.5999999 2.5999999,2.5999999 0 0 1 2.6,2.5999999 z" />
    <path
       id="circle7996"
       style="fill:none;stroke-width:0.0946703;stroke-linecap:round;stroke-linejoin:round"
       inkscape:transform-center-x="-380.13611"
       inkscape:transform-center-y="276.18505"
       transform="rotate(36)"
       d="m 472.47408,-2.3394497e-5 a 2.5999999,2.5999999 0 0 1 -2.6,2.599999894497 2.5999999,2.5999999 0 0 1 -2.6,-2.599999894497 2.5999999,2.5999999 0 0 1 2.6,-2.599999905503 2.5999999,2.5999999 0 0 1 2.6,2.599999905503 z" />
    <path
       id="circle7998"
       style="fill:none;stroke-width:0.0946703;stroke-linecap:round;stroke-linejoin:round"
       inkscape:transform-center-x="-145.19907"
       inkscape:transform-center-y="446.87682"
       transform="rotate(72)"
       d="m 472.47405,7.1230811e-6 a 2.5999999,2.5999999 0 0 1 -2.6,2.5999998769189 2.5999999,2.5999999 0 0 1 -2.6,-2.5999998769189 2.5999999,2.5999999 0 0 1 2.6,-2.5999999230811 2.5999999,2.5999999 0 0 1 2.6,2.5999999230811 z" />
    <path
       id="circle8000"
       style="fill:none;stroke-width:0.0946703;stroke-linecap:round;stroke-linejoin:round"
       inkscape:transform-center-x="-145.19907"
       inkscape:transform-center-y="446.87682"
       transform="rotate(72)"
       d="m 472.47405,7.1230811e-6 a 2.5999999,2.5999999 0 0 1 -2.6,2.5999998769189 2.5999999,2.5999999 0 0 1 -2.6,-2.5999998769189 2.5999999,2.5999999 0 0 1 2.6,-2.5999999230811 2.5999999,2.5999999 0 0 1 2.6,2.5999999230811 z" />
    <path
       id="circle8006"
       style="fill:none;stroke-width:0.0946703;stroke-linecap:round;stroke-linejoin:round"
       inkscape:transform-center-x="145.19907"
       inkscape:transform-center-y="446.87681"
       transform="rotate(108)"
       d="m 472.47405,-7.1230811e-6 a 2.5999999,2.5999999 0 0 1 -2.6,2.5999999230811 2.5999999,2.5999999 0 0 1 -2.6,-2.5999999230811 2.5999999,2.5999999 0 0 1 2.6,-2.5999998769189 2.5999999,2.5999999 0 0 1 2.6,2.5999998769189 z" />
    <path
       id="circle8008"
       style="fill:none;stroke-width:0.0946703;stroke-linecap:round;stroke-linejoin:round"
       inkscape:transform-center-x="380.13613"
       inkscape:transform-center-y="276.18505"
       transform="rotate(144)"
       d="m 472.47408,2.3394497e-5 a 2.5999999,2.5999999 0 0 1 -2.6,2.599999905503 2.5999999,2.5999999 0 0 1 -2.6,-2.599999905503 2.5999999,2.5999999 0 0 1 2.6,-2.599999894497 2.5999999,2.5999999 0 0 1 2.6,2.599999894497 z" />
    <path
       id="circle8010"
       style="fill:none;stroke-width:0.0946703;stroke-linecap:round;stroke-linejoin:round"
       inkscape:transform-center-x="469.87408"
       transform="scale(-1)"
       d="m 472.47408,0 a 2.5999999,2.5999999 0 0 1 -2.6,2.5999999 2.5999999,2.5999999 0 0 1 -2.6,-2.5999999 2.5999999,2.5999999 0 0 1 2.6,-2.5999999 2.5999999,2.5999999 0 0 1 2.6,2.5999999 z" />
    <path
       id="circle8012"
       style="fill:none;stroke-width:0.0946703;stroke-linecap:round;stroke-linejoin:round"
       inkscape:transform-center-x="380.13612"
       inkscape:transform-center-y="-276.18507"
       transform="rotate(-144)"
       d="m 472.47408,2.3394497e-5 a 2.5999999,2.5999999 0 0 1 -2.6,2.599999905503 2.5999999,2.5999999 0 0 1 -2.6,-2.599999905503 2.5999999,2.5999999 0 0 1 2.6,-2.599999894497 2.5999999,2.5999999 0 0 1 2.6,2.599999894497 z" />
    <path
       id="circle8014"
       style="fill:none;stroke-width:0.0946703;stroke-linecap:round;stroke-linejoin:round"
       inkscape:transform-center-x="145.19908"
       inkscape:transform-center-y="-446.87683"
       transform="rotate(-108)"
       d="M 472.47411,-7.1230811e-6 A 2.5999999,2.5999999 0 0 1 469.87411,2.5999928 2.5999999,2.5999999 0 0 1 467.27412,-7.1230811e-6 2.5999999,2.5999999 0 0 1 469.87411,-2.600007 a 2.5999999,2.5999999 0 0 1 2.6,2.5999998769189 z" />
    <path
       id="circle8016"
       style="fill:none;stroke-width:0.0946703;stroke-linecap:round;stroke-linejoin:round"
       inkscape:transform-center-x="-145.1991"
       inkscape:transform-center-y="-446.87682"
       transform="rotate(-72)"
       d="m 472.47408,7.1230811e-6 a 2.5999999,2.5999999 0 0 1 -2.6,2.5999998769189 2.5999999,2.5999999 0 0 1 -2.6,-2.5999998769189 2.5999999,2.5999999 0 0 1 2.6,-2.5999999230811 2.5999999,2.5999999 0 0 1 2.6,2.5999999230811 z" />
    <path
       id="circle8018"
       style="fill:none;stroke-width:0.0946703;stroke-linecap:round;stroke-linejoin:round"
       inkscape:transform-center-x="-380.13614"
       inkscape:transform-center-y="-276.18508"
       transform="rotate(-36)"
       d="M 472.47411,-2.3394497e-5 A 2.5999999,2.5999999 0 0 1 469.87411,2.5999765 2.5999999,2.5999999 0 0 1 467.27412,-2.3394497e-5 2.5999999,2.5999999 0 0 1 469.87411,-2.6000233 a 2.5999999,2.5999999 0 0 1 2.6,2.599999905503 z" />
    <path
       id="circle8022"
       style="fill:none;stroke-width:0.0946703;stroke-linecap:round;stroke-linejoin:round"
       inkscape:transform-center-x="-583.651"
       inkscape:transform-center-y="-1.1897353e-06"
       d="m 586.251,0 a 2.5999999,2.5999999 0 0 1 -2.6,2.5999999 A 2.5999999,2.5999999 0 0 1 581.051,0 2.5999999,2.5999999 0 0 1 583.651,-2.5999999 2.5999999,2.5999999 0 0 1 586.251,0 Z" />
    <path
       id="circle8085"
       style="fill:none;stroke-width:0.0946703;stroke-linecap:round;stroke-linejoin:round"
       inkscape:transform-center-x="-472.18362"
       inkscape:transform-center-y="343.06148"
       transform="rotate(36)"
       d="m 586.25106,-2.3394497e-5 a 2.5999999,2.5999999 0 0 1 -2.6,2.599999894497 2.5999999,2.5999999 0 0 1 -2.6,-2.599999894497 2.5999999,2.5999999 0 0 1 2.6,-2.599999905503 2.5999999,2.5999999 0 0 1 2.6,2.599999905503 z" />
    <path
       id="circle8087"
       style="fill:none;stroke-width:0.0946703;stroke-linecap:round;stroke-linejoin:round"
       inkscape:transform-center-x="-180.35809"
       inkscape:transform-center-y="555.08516"
       transform="rotate(72)"
       d="m 586.25106,7.1230811e-6 a 2.5999999,2.5999999 0 0 1 -2.6,2.5999998769189 2.5999999,2.5999999 0 0 1 -2.6,-2.5999998769189 2.5999999,2.5999999 0 0 1 2.6,-2.5999999230811 2.5999999,2.5999999 0 0 1 2.6,2.5999999230811 z" />
    <path
       id="circle8089"
       style="fill:none;stroke-width:0.0946703;stroke-linecap:round;stroke-linejoin:round"
       inkscape:transform-center-x="180.35807"
       inkscape:transform-center-y="555.08509"
       transform="rotate(108)"
       d="m 586.25106,-7.1230811e-6 a 2.5999999,2.5999999 0 0 1 -2.6,2.5999999230811 2.5999999,2.5999999 0 0 1 -2.6,-2.5999999230811 2.5999999,2.5999999 0 0 1 2.6,-2.5999998769189 2.5999999,2.5999999 0 0 1 2.6,2.5999998769189 z" />
    <path
       id="circle8091"
       style="fill:none;stroke-width:0.0946703;stroke-linecap:round;stroke-linejoin:round"
       inkscape:transform-center-x="472.18359"
       inkscape:transform-center-y="343.06145"
       transform="rotate(144)"
       d="M 586.251,2.3394497e-5 A 2.5999999,2.5999999 0 0 1 583.651,2.6000233 2.5999999,2.5999999 0 0 1 581.051,2.3394497e-5 2.5999999,2.5999999 0 0 1 583.651,-2.5999765 a 2.5999999,2.5999999 0 0 1 2.6,2.599999894497 z" />
    <path
       id="circle8093"
       style="fill:none;stroke-width:0.0946703;stroke-linecap:round;stroke-linejoin:round"
       inkscape:transform-center-x="583.65101"
       inkscape:transform-center-y="7.147795e-06"
       transform="scale(-1)"
       d="m 586.251,0 a 2.5999999,2.5999999 0 0 1 -2.6,2.5999999 A 2.5999999,2.5999999 0 0 1 581.051,0 2.5999999,2.5999999 0 0 1 583.651,-2.5999999 2.5999999,2.5999999 0 0 1 586.251,0 Z" />
    <path
       id="circle8095"
       style="fill:none;stroke-width:0.0946703;stroke-linecap:round;stroke-linejoin:round"
       inkscape:transform-center-x="472.18359"
       inkscape:transform-center-y="-343.06145"
       transform="rotate(-144)"
       d="M 586.251,2.3394497e-5 A 2.5999999,2.5999999 0 0 1 583.651,2.6000233 2.5999999,2.5999999 0 0 1 581.051,2.3394497e-5 2.5999999,2.5999999 0 0 1 583.651,-2.5999765 a 2.5999999,2.5999999 0 0 1 2.6,2.599999894497 z" />
    <path
       id="circle8097"
       style="fill:none;stroke-width:0.0946703;stroke-linecap:round;stroke-linejoin:round"
       inkscape:transform-center-x="180.35809"
       inkscape:transform-center-y="-555.0851"
       transform="rotate(-108)"
       d="M 586.251,-7.1230811e-6 A 2.5999999,2.5999999 0 0 1 583.651,2.5999928 2.5999999,2.5999999 0 0 1 581.051,-7.1230811e-6 2.5999999,2.5999999 0 0 1 583.651,-2.600007 a 2.5999999,2.5999999 0 0 1 2.6,2.5999998769189 z" />
    <path
       id="circle8099"
       style="fill:none;stroke-width:0.0946703;stroke-linecap:round;stroke-linejoin:round"
       inkscape:transform-center-x="-180.35809"
       inkscape:transform-center-y="-555.0851"
       transform="rotate(-72)"
       d="M 586.251,7.1230811e-6 A 2.5999999,2.5999999 0 0 1 583.651,2.600007 2.5999999,2.5999999 0 0 1 581.051,7.1230811e-6 2.5999999,2.5999999 0 0 1 583.651,-2.5999928 2.5999999,2.5999999 0 0 1 586.251,7.1230811e-6 Z" />
    <path
       id="circle8101"
       style="fill:none;stroke-width:0.0946703;stroke-linecap:round;stroke-linejoin:round"
       inkscape:transform-center-x="-472.18359"
       inkscape:transform-center-y="-343.06147"
       transform="rotate(-36)"
       d="m 586.251,-2.3394497e-5 a 2.5999999,2.5999999 0 0 1 -2.6,2.599999894497 2.5999999,2.5999999 0 0 1 -2.6,-2.599999894497 2.5999999,2.5999999 0 0 1 2.6,-2.599999905503 2.5999999,2.5999999 0 0 1 2.6,2.599999905503 z" />
  </g>
  <g
     inkscape:groupmode="layer"
     id="layer3"
     inkscape:label="pocket-11*6mm"
     style="display:inline">
    <path
       id="circle8248"
       style="display:inline;fill:none;stroke-width:0.477042;stroke-linecap:round;stroke-linejoin:round"
       d="M 125.216,0 A 125.216,125.216 0 0 1 0,125.216 125.216,125.216 0 0 1 -125.216,0 125.216,125.216 0 0 1 0,-125.216 125.216,125.216 0 0 1 125.216,0 Z m -11,0 A 114.216,114.216 0 0 1 0,114.216 114.216,114.216 0 0 1 -114.216,0 114.216,114.216 0 0 1 0,-114.216 114.216,114.216 0 0 1 114.216,0 Z" />
    <path
       id="circle8256"
       style="display:inline;fill:none;stroke-width:0.944782;stroke-linecap:round;stroke-linejoin:round"
       d="M 247.98999,0 A 247.98999,247.98999 0 0 1 0,247.98999 247.98999,247.98999 0 0 1 -247.98999,0 247.98999,247.98999 0 0 1 0,-247.98999 247.98999,247.98999 0 0 1 247.98999,0 Z m -11,0 A 236.98999,236.98999 0 0 1 0,236.98999 236.98999,236.98999 0 0 1 -236.98999,0 236.98999,236.98999 0 0 1 0,-236.98999 236.98999,236.98999 0 0 1 236.98999,0 Z" />
    <path
       id="circle8264"
       style="display:inline;fill:none;stroke-width:1.37575;stroke-linecap:round;stroke-linejoin:round"
       d="M 361.10999,0 A 361.10999,361.10999 0 0 1 0,361.10999 361.10999,361.10999 0 0 1 -361.10999,0 361.10999,361.10999 0 0 1 0,-361.10999 361.10999,361.10999 0 0 1 361.10999,0 Z m -11,0 A 350.10999,350.10999 0 0 1 0,350.10999 350.10999,350.10999 0 0 1 -350.10999,0 350.10999,350.10999 0 0 1 0,-350.10999 350.10999,350.10999 0 0 1 350.10999,0 Z" />
    <path
       id="circle8346"
       style="display:inline;fill:none;stroke-width:1.81106;stroke-linecap:round;stroke-linejoin:round"
       d="M 475.37402,0 A 475.37412,475.37412 0 0 1 -6.025445e-5,475.37412 475.37412,475.37412 0 0 1 -475.37418,0 475.37412,475.37412 0 0 1 -6.025445e-5,-475.37412 475.37412,475.37412 0 0 1 475.37402,0 Z m -11,0 A 464.37402,464.37402 0 0 1 0,464.37402 464.37402,464.37402 0 0 1 -464.37402,0 464.37402,464.37402 0 0 1 0,-464.37402 464.37402,464.37402 0 0 1 464.37402,0 Z" />
  </g>
  <g
     inkscape:groupmode="layer"
     id="layer5"
     inkscape:label="pocket_3*6mm">
    <path
       id="circle466"
       style="fill:none;stroke-width:0.511817;stroke-linecap:round;stroke-linejoin:round"
       d="M 179.5,0 A 179.5,179.5 0 0 1 0,179.5 179.5,179.5 0 0 1 -179.5,0 179.5,179.5 0 0 1 0,-179.5 179.5,179.5 0 0 1 179.5,0 Z m -3,0 A 176.5,176.5 0 0 1 0,176.5 176.5,176.5 0 0 1 -176.5,0 176.5,176.5 0 0 1 0,-176.5 176.5,176.5 0 0 1 176.5,0 Z" />
    <path
       id="circle782"
       style="fill:none;stroke-width:0.504364;stroke-linecap:round;stroke-linejoin:round"
       d="M 293,0 A 293,293 0 0 1 0,293 293,293 0 0 1 -293,0 293,293 0 0 1 0,-293 293,293 0 0 1 293,0 Z m -3,0 A 290,290 0 0 1 0,290 290,290 0 0 1 -290,0 290,290 0 0 1 0,-290 290,290 0 0 1 290,0 Z" />
    <path
       id="circle1566"
       style="fill:none;stroke-width:0.508368;stroke-linecap:round;stroke-linejoin:round"
       d="M 408,0 A 408,408 0 0 1 0,408 408,408 0 0 1 -408,0 408,408 0 0 1 0,-408 408,408 0 0 1 408,0 Z m -3,0 A 405,405 0 0 1 0,405 405,405 0 0 1 -405,0 405,405 0 0 1 0,-405 405,405 0 0 1 405,0 Z" />
    <path
       id="circle1957"
       style="fill:none;stroke-width:0.50239;stroke-linecap:round;stroke-linejoin:round"
       d="M 523,0 A 523,523 0 0 1 0,523 523,523 0 0 1 -523,0 523,523 0 0 1 0,-523 523,523 0 0 1 523,0 Z m -3,0 A 520,520 0 0 1 0,520 520,520 0 0 1 -520,0 520,520 0 0 1 0,-520 520,520 0 0 1 520,0 Z" />
  </g>
</svg>
